<?xml version="1.0" encoding="UTF-8"?>
<svg id="Layer_2" data-name="Layer 2" xmlns="http://www.w3.org/2000/svg" viewBox="0 0 519.69 119.44">
  <defs>
    <style>
      .cls-1 {
        fill: #008669;
      }

      .cls-1, .cls-2 {
        fill-rule: evenodd;
      }

      .cls-2 {
        fill: #f8ae00;
      }
    </style>
  </defs>
  <g id="_Слой_1" data-name="Слой 1">
    <g>
      <path class="cls-1" d="m354.09,87.22h23.08c5.2,0,9.24-1.79,12.23-4.13,8.8-6.85,5.72-22.34-3.91-24.59.39-.34.07-.1.63-.44,2.05-1.22,2.79-1.73,4.2-3.86,5.33-8.02,1.13-22.02-13.96-22.02h-22.27v55.03h0Zm21.47-32.2h-11.81v-14.76c4.86,0,13.15-.73,16.38,1.61,5.03,3.62,3.35,13.17-4.57,13.17v-.02h0Zm-.54,24.15h-11.27v-16.36c5.35,0,13.76-.66,17.7,1.62,5.43,3.13,5.58,14.76-6.43,14.76v-.02Z"/>
      <path class="cls-1" d="m399.19,67.37c0,16.09,13.15,24.82,25.15,19.24,2.17-1.02,3.49-2.57,4.91-4.21v4.84h8.6v-39.99h-8.6v4.57c-.91-.61-.91-1.22-1.98-2.05-10.44-8.04-28.07-1.78-28.07,17.6h0Zm19.6,12.88c-3.03,0-5.48-1.39-7.31-3.42-5.11-5.72-3.93-22.34,6.52-22.34,3.66,0,6.85.93,8.92,4.23,4.94,7.92,1.88,21.52-8.11,21.52h-.02Z"/>
      <path class="cls-1" d="m484.53,33.01v53.41c0,.63.19.81.81.81h8.33v-18.26c.88.59,12.12,14.45,13.18,15.81.76.96,1.27,1.37,1.85,2.45h11c-2.59-3.88-14.77-17.62-17.18-21.2,1.93-2.88,16.53-17.36,16.91-18.78-14.55,0-8.38-1.35-17.9,8.12l-5.21,5.53c-.83,1.03-1.57,2-2.64,2.72v-31.41h-8.33c-.63,0-.81.19-.81.81v-.02Z"/>
      <path class="cls-1" d="m452.6,51.53c0-.81.02-1.62.02-2.44.02-2.54.44-1.86-8.88-1.86v39.99h9.12v-24.15c0-10.64,16.9-12.1,16.9-.27v24.42h9.12v-26.03c0-8.36-5.92-14.76-13.69-14.76-5.38,0-9.05,1-12.61,5.09h.02Z"/>
      <path class="cls-2" d="m59.68,116.34c-2.17,0-4.37-.83-6.02-2.49l-11.57-11.57h-16.38c-4.72,0-8.51-3.82-8.51-8.51v-16.38l-11.61-11.61c-3.32-3.32-3.32-8.75,0-12.07l11.57-11.57v-16.38c0-4.72,3.82-8.51,8.51-8.51h16.38l11.57-11.57c3.32-3.32,8.75-3.32,12.07,0l11.57,11.57h16.38c4.72,0,8.51,3.82,8.51,8.51v16.38l11.57,11.57c3.32,3.32,3.32,8.75,0,12.07l-11.57,11.57v16.38c0,4.72-3.82,8.51-8.51,8.51h-16.33l-11.57,11.57c-1.69,1.69-3.86,2.52-6.06,2.52Z"/>
      <path class="cls-1" d="m117.08,54.05l-12.79-12.79v-18.11c0-2.22-.9-4.21-2.35-5.65-1.46-1.46-3.45-2.35-5.65-2.35h-18.11l-12.79-12.79c-1.56-1.56-3.62-2.35-5.67-2.35s-4.1.78-5.67,2.35l-12.79,12.79h-18.11c-2.22,0-4.21.9-5.65,2.35-1.46,1.46-2.35,3.45-2.35,5.65v18.11l-12.79,12.79c-1.56,1.56-2.35,3.62-2.35,5.67s.78,4.1,2.35,5.67l12.79,12.79v18.11c0,2.22.9,4.21,2.35,5.65,1.46,1.44,3.45,2.35,5.65,2.35h18.11l12.79,12.79c1.56,1.56,3.62,2.35,5.67,2.35s4.09-.78,5.67-2.35l12.79-12.79h18.11c2.22,0,4.21-.9,5.65-2.35,1.46-1.46,2.35-3.45,2.35-5.65v-18.11l12.79-12.79c1.56-1.56,2.35-3.62,2.35-5.67s-.78-4.1-2.35-5.67h0ZM7.67,63.64l-.03-.03c-1.08-1.1-1.62-2.5-1.62-3.93s.54-2.83,1.62-3.91l.03-.03,12.44-12.44v-17.62c0-1.54.63-2.93,1.64-3.94,1.02-1.02,2.4-1.64,3.94-1.64h17.62l12.44-12.44.03-.03c1.1-1.08,2.5-1.62,3.93-1.62s2.83.54,3.91,1.62l.03.03,12.44,12.44h17.62c1.54,0,2.93.63,3.94,1.64,1.02,1.02,1.64,2.4,1.64,3.94v17.62l12.44,12.44.03.03c1.08,1.1,1.62,2.5,1.62,3.93s-.54,2.83-1.62,3.91l-.03.03-12.44,12.44v17.63c0,1.54-.63,2.93-1.64,3.94-1.02,1.02-2.4,1.64-3.94,1.64h-17.62l-12.44,12.44-.03.03c-1.1,1.08-2.5,1.62-3.93,1.62s-2.83-.54-3.91-1.62l-.03-.03-12.44-12.44h-17.62c-1.54,0-2.93-.63-3.94-1.64-1.02-1.02-1.64-2.4-1.64-3.94v-17.62l-12.44-12.44v-.02Z"/>
      <path class="cls-1" d="m40.16,61.87c15.72-7.38,25.25-.69,34.99-12.18,6.09-7.18,4.69-14.93,3.03-19.41-.66-1.71-1.69-3.27-2.98-4.57l-11.37-11.37c-2.28-2.25-5.97-2.25-8.24,0L14.3,55.62c-2.25,2.25-2.25,5.94,0,8.24l10.15,10.15c3.28-4.01,8.34-8.66,15.69-12.12l.02-.03Z"/>
      <path class="cls-1" d="m44.23,69.74c-6.09,7.18-4.69,14.93-3.03,19.41.66,1.71,1.69,3.27,2.98,4.57l11.37,11.37c2.28,2.25,5.97,2.25,8.24,0l41.29-41.29c2.25-2.25,2.25-5.94,0-8.24l-10.15-10.15c-3.28,4.01-8.34,8.66-15.7,12.12-15.72,7.38-25.25.69-34.99,12.18v.03Z"/>
      <path class="cls-1" d="m251.04,64.95c0,6.94.37,10.75,4.67,16.26,2.05,2.64,7.12,5.75,11.69,5.75,6.19,0,9.12-.73,13.15-5.36,0,4.48.07,7.02-1.62,9.92-3.57,6.18-13.79,5.16-16.43,1.15-1.71-2.59,1.15-1.95-9.87-1.95.05,2.45,1.39,5.01,2.74,6.65,6.14,7.45,18.78,7.97,26.6,3.1,5.38-3.35,7.7-9.9,7.7-16.19v-37.04h-8.85v4.57c-3.74-4.3-6.77-5.36-12.61-5.36-2.88,0-5.04.8-7.14,1.73-5.67,2.52-10.03,10.07-10.03,16.8v-.02h0Zm9.12,2.15c0-14.48,13.25-15.23,17.87-9.29,5.55,7.14,2.79,21.36-7.41,21.36-6.6,0-10.47-5.45-10.47-12.08l.02.02Z"/>
      <path class="cls-1" d="m315.17,88.3c3.6,0,8.36-1.25,11.2-3.28,2.18-1.56,5.7-5.3,5.7-8.78h-8.05c-1.2,0-.58,1.3-2.89,2.74-3.18,1.98-7.63,2.11-10.88.56-.76-.36-2.44-1.61-2.93-2.18-1.47-1.74-2.64-4.15-2.64-7.29h27.9c0-8.02.34-11.54-4.7-18.11-4.65-6.06-15.45-6.99-22.32-3.55-5.7,2.86-9.12,8.68-9.95,15.01-.95,7.19.51,13.77,5.11,19.19,3.05,3.59,9.53,5.7,14.42,5.7h.03Zm-.8-34.35c3.99,0,7.14,1.71,8.56,5.4.35.95.81,2.52.85,3.72h-19.05c1.15-4.94,3.1-9.12,9.66-9.12h-.02Z"/>
      <path class="cls-1" d="m167.31,66.55c0,11.05,4.82,19.04,15.04,21.19,7.14,1.51,15.09-.25,19.46-6.26.91-1.25,2.1-3.42,2.25-5.26h-8.85c-.86,3.69-5.69,4.3-9.12,4.3-5.09,0-9.39-4.3-9.39-10.47h27.11c1.17,0,.81-1.13.81-3.76,0-6.01-1.81-10.64-4.52-13.99-5.06-6.26-15.23-7.53-22.51-3.89-2.93,1.47-5.69,3.77-7.24,6.7-1.86,3.52-3.05,7.07-3.05,11.46h0Zm18.51-12.61c5.96,0,9.66,3.25,9.66,9.12h-18.78c.1-4.86,4.15-9.12,9.12-9.12Z"/>
      <path class="cls-1" d="m219.11,51.53v-4.3h-8.05c-.63,0-.81.19-.81.81v39.19h9.12v-22.81c0-12.71,17.18-13.71,17.18-.54v23.35h9.12v-22.54c0-7.39-1.29-13.3-7.33-16.55-5.11-2.74-13.11-2.17-17.16,1.46-.78.71-1.24,1.37-2.08,1.95l.02-.02Z"/>
      <polygon class="cls-1" points="127.85 40.78 145.02 40.78 145.02 87.22 154.41 87.22 154.41 40.78 171.59 40.78 171.59 32.2 127.85 32.2 127.85 40.78"/>
      <path class="cls-1" d="m360.45,97.66c.96,0,1.84.24,2.67.73.81.49,1.47,1.2,1.96,2.15.49.95.73,2.1.73,3.44s-.25,2.47-.74,3.42c-.49.96-1.15,1.68-1.98,2.17-.83.49-1.73.73-2.71.73-.76,0-1.44-.14-2.01-.39-.59-.25-1.05-.59-1.37-1.02-.34-.41-.52-.83-.58-1.23l.29-.42v2.77h-2.61v-17.23h2.71v7.53l-.49.19c.1-.46.3-.9.64-1.34.34-.44.8-.8,1.4-1.08.59-.29,1.3-.44,2.12-.44l-.03.03h0Zm-.52,10.26c.61,0,1.17-.17,1.64-.49.47-.34.85-.8,1.12-1.39.27-.59.39-1.27.39-2.05s-.14-1.46-.39-2.05c-.25-.59-.63-1.05-1.12-1.39-.49-.34-1.03-.49-1.64-.49s-1.18.15-1.68.47c-.49.32-.86.78-1.13,1.37-.27.59-.41,1.27-.41,2.05v.1c0,.78.14,1.46.41,2.05.27.59.64,1.05,1.13,1.37.49.32,1.03.47,1.68.47v-.03Z"/>
      <path class="cls-1" d="m388.07,110.03h-2.83v-16.68h2.83v16.68h0Zm8.53-7.28v-2.56h-9.15v2.56h9.15Zm-.61-9.41h2.83v16.68h-2.83v-16.68Z"/>
      <path class="cls-1" d="m439.02,110.03h-2.71v-16.68h2.71v16.68h0Zm-.63-6.4h.02l5.26,6.4h3.27l-5.6-6.82v.73l5.52-5.99h-3.2l-5.26,5.69Z"/>
      <path class="cls-1" d="m460.99,101.18h7.38v1.79c0,1.4-.29,2.66-.85,3.77-.56,1.1-1.39,1.98-2.47,2.61-1.08.63-2.37.95-3.86.95s-2.81-.36-3.99-1.08c-1.18-.73-2.1-1.74-2.76-3.05-.66-1.3-1-2.81-1-4.49s.32-3.15.96-4.45c.64-1.32,1.56-2.34,2.74-3.06,1.18-.73,2.54-1.1,4.06-1.1,1.29,0,2.4.24,3.38.73.98.49,1.78,1.13,2.39,1.96.61.83,1.02,1.76,1.22,2.79h-2.89c-.29-.9-.76-1.61-1.44-2.13-.68-.53-1.56-.78-2.64-.78-.98,0-1.84.25-2.59.74-.74.49-1.32,1.2-1.73,2.11-.41.91-.61,1.98-.61,3.2s.2,2.34.63,3.25,1,1.62,1.76,2.12c.74.49,1.61.73,2.56.73,1.32,0,2.37-.39,3.13-1.15.76-.76,1.13-1.76,1.13-2.98v-.73l.59.64h-5.14v-2.37l.03-.03Z"/>
      <path class="cls-1" d="m477.52,97.89h.61v2.56h-.71c-.69,0-1.3.12-1.84.36-.52.24-.93.59-1.22,1.08-.29.49-.42,1.07-.42,1.74v6.4h-2.71v-12.08h2.61v3.03l-.42-.24c.35-.98.88-1.69,1.59-2.15.71-.46,1.56-.69,2.52-.69Z"/>
      <path class="cls-1" d="m485.64,97.66c1.17,0,2.2.27,3.11.81.9.54,1.61,1.29,2.1,2.23.49.96.74,2.05.74,3.28s-.25,2.34-.74,3.28c-.49.96-1.2,1.71-2.1,2.23-.9.54-1.93.81-3.11.81s-2.2-.27-3.11-.81c-.9-.54-1.61-1.29-2.1-2.23-.49-.95-.74-2.05-.74-3.28s.25-2.33.74-3.28c.49-.95,1.2-1.71,2.1-2.23.9-.54,1.93-.81,3.11-.81h0Zm0,10.26c.64,0,1.22-.17,1.71-.49.49-.34.86-.8,1.12-1.39.25-.59.37-1.27.37-2.05s-.12-1.46-.37-2.05c-.25-.59-.63-1.05-1.12-1.39-.49-.34-1.07-.49-1.71-.49s-1.22.17-1.71.49c-.49.34-.86.8-1.12,1.39-.25.59-.37,1.27-.37,2.05s.12,1.46.37,2.05c.25.59.63,1.05,1.12,1.39.49.34,1.07.49,1.71.49Z"/>
      <path class="cls-1" d="m504.72,110.03h-2.61v-2.5l.34.41c-.08.36-.29.71-.64,1.08-.36.37-.8.68-1.37.93-.56.25-1.2.37-1.91.37-.81,0-1.54-.17-2.22-.49-.68-.34-1.2-.85-1.61-1.56-.41-.71-.61-1.59-.61-2.66v-7.67h2.71v7.16c0,.61.1,1.13.3,1.54.2.41.49.73.86.93.37.2.8.3,1.29.3s.95-.1,1.35-.3c.41-.2.74-.52,1.02-.96.25-.44.39-.98.39-1.64v-7.02h2.71v12.08Z"/>
      <path class="cls-1" d="m514.33,97.66c.96,0,1.84.24,2.67.73.81.49,1.47,1.2,1.96,2.15.49.95.73,2.1.73,3.44s-.25,2.47-.74,3.42c-.49.96-1.15,1.68-1.98,2.17-.83.49-1.73.73-2.71.73-.76,0-1.44-.14-2.01-.39-.59-.25-1.05-.59-1.37-1.02-.34-.41-.52-.83-.58-1.23l.37.07v6.8h-2.71v-16.62h2.61v2.84l-.41-.25c.1-.46.3-.9.64-1.34.34-.44.8-.8,1.4-1.08.59-.29,1.3-.44,2.12-.44v.03h0Zm-.53,10.26c.61,0,1.17-.17,1.64-.49.47-.34.85-.8,1.12-1.39.27-.59.39-1.27.39-2.05s-.14-1.46-.39-2.05c-.25-.59-.63-1.05-1.12-1.39-.49-.34-1.03-.49-1.64-.49s-1.18.15-1.68.47c-.49.32-.86.78-1.13,1.37-.27.59-.41,1.27-.41,2.05v.1c0,.78.14,1.46.41,2.05.27.59.64,1.05,1.13,1.37.49.32,1.03.47,1.68.47v-.03Z"/>
      <path class="cls-1" d="m421.98,97.91l4.74,11.96-.12.34c-.53,1.4-1.37,1.69-2.07,1.69-.27,0-.54-.03-.81-.08v2.52c.46.15.93.24,1.42.22,2.28,0,3.42-1.52,4.38-4.03l4.86-12.61h-2.96l-3.16,8.77-3.28-8.77h-3v-.02Z"/>
      <path class="cls-1" d="m366.53,97.91l4.74,11.96-.12.34c-.52,1.4-1.37,1.69-2.07,1.69-.27,0-.54-.03-.81-.08v2.52c.46.15.93.24,1.42.22,2.28,0,3.42-1.52,4.38-4.03l4.86-12.61h-2.96l-3.16,8.77-3.28-8.77h-3v-.02Z"/>
      <path class="cls-1" d="m416.69,106.81c0,2.39,1.07,3.79,3.35,3.79.47,0,.95-.07,1.39-.22v-2.54c-.22.07-.46.1-.68.12-.76,0-1.27-.51-1.27-1.51v-13.11h-2.81v13.47h.02Z"/>
      <path class="cls-1" d="m404.2,104.14c0-2.47,1.69-3.81,3.42-3.81s3.42,1.34,3.42,3.81-1.69,3.81-3.42,3.81-3.42-1.34-3.42-3.81h0Zm-2.89,0c0,4.13,2.86,6.46,5.82,6.46,2.01,0,3.32-1.05,3.89-1.93v1.71h2.81v-12.45h-2.81v1.69c-.58-.86-1.88-1.91-3.89-1.91-2.96,0-5.82,2.32-5.82,6.45v-.02Z"/>
    </g>
  </g>
</svg>