<?xml version="1.0" encoding="UTF-8"?>
<svg id="Layer_2" data-name="Layer 2" xmlns="http://www.w3.org/2000/svg" viewBox="0 0 657.87 232.91">
  <defs>
    <style>
      .cls-1 {
        isolation: isolate;
      }

      .cls-2 {
        fill: #015f45;
      }
    </style>
  </defs>
  <g class="cls-1">
    <g class="cls-1">
      <path class="cls-2" d="m39.11,30.6V5.4h17.96v1.62h-16.13v9.07h8.53c2.95,0,5.2.6,6.73,1.8,1.54,1.2,2.3,2.96,2.3,5.29s-.81,4.27-2.43,5.53c-1.62,1.26-3.99,1.89-7.11,1.89h-9.86Zm1.84-1.55h8.06c2.52,0,4.43-.49,5.72-1.46,1.3-.97,1.94-2.42,1.94-4.34,0-3.77-2.56-5.65-7.67-5.65h-8.06v11.45Z"/>
      <path class="cls-2" d="m72.26,30.74c-1.9,0-3.57-.41-5.02-1.22-1.45-.82-2.59-1.94-3.42-3.38-.83-1.44-1.24-3.08-1.24-4.93s.39-3.52,1.17-4.95c.78-1.43,1.85-2.55,3.22-3.37,1.37-.82,2.9-1.22,4.61-1.22s3.23.4,4.59,1.19,2.42,1.9,3.2,3.33c.78,1.43,1.17,3.08,1.17,4.95,0,.07,0,.15-.02.23-.01.08-.02.17-.02.27h-16.6v-1.4h15.62l-.72.68c.02-1.46-.28-2.78-.92-3.94-.64-1.16-1.49-2.08-2.57-2.74-1.08-.66-2.33-.99-3.74-.99s-2.63.33-3.73.99c-1.09.66-1.95,1.57-2.57,2.74-.62,1.16-.94,2.49-.94,3.98v.32c0,1.54.34,2.9,1.03,4.09.68,1.19,1.63,2.11,2.83,2.77,1.2.66,2.57.99,4.1.99,1.2,0,2.32-.22,3.37-.65s1.93-1.09,2.65-1.98l1.04,1.19c-.82,1.01-1.84,1.77-3.08,2.29-1.24.52-2.57.77-4.01.77Z"/>
      <path class="cls-2" d="m94.01,30.74c-1.82,0-3.45-.41-4.88-1.22-1.43-.82-2.56-1.94-3.38-3.38-.83-1.44-1.24-3.08-1.24-4.93s.41-3.53,1.24-4.97c.83-1.44,1.96-2.56,3.38-3.37,1.43-.8,3.05-1.21,4.88-1.21,1.51,0,2.89.29,4.12.86,1.24.58,2.24,1.44,3.01,2.59l-1.33.97c-.67-.96-1.51-1.67-2.52-2.12-1.01-.46-2.1-.68-3.28-.68-1.46,0-2.78.33-3.94.99-1.16.66-2.08,1.58-2.74,2.77-.66,1.19-.99,2.57-.99,4.16s.33,2.97.99,4.16c.66,1.19,1.57,2.11,2.74,2.77,1.16.66,2.48.99,3.94.99,1.18,0,2.27-.23,3.28-.68,1.01-.46,1.85-1.16,2.52-2.12l1.33.97c-.77,1.15-1.77,2.02-3.01,2.59-1.24.58-2.61.86-4.12.86Z"/>
      <path class="cls-2" d="m106.46,30.6V11.81h16.42v18.79h-1.8V12.89l.5.54h-13.82l.5-.54v17.71h-1.8Z"/>
      <path class="cls-2" d="m128.49,30.78c-.24,0-.49-.02-.74-.07-.25-.05-.52-.11-.81-.18l.18-1.55c.14.02.29.05.45.09.16.04.29.05.41.05.82,0,1.46-.31,1.94-.92.48-.61.85-1.43,1.1-2.47.25-1.03.43-2.2.54-3.49.11-1.3.2-2.62.27-3.96l.32-6.48h13.18v18.79h-1.8V12.85l.5.58h-10.73l.47-.61-.29,5.62c-.1,1.63-.23,3.19-.4,4.68-.17,1.49-.42,2.81-.76,3.96-.34,1.15-.82,2.06-1.44,2.72-.62.66-1.43.99-2.41.99Z"/>
      <path class="cls-2" d="m158.08,30.74c-1.39,0-2.6-.22-3.62-.67-1.02-.44-1.8-1.07-2.34-1.89-.54-.82-.81-1.75-.81-2.81,0-.96.22-1.83.67-2.61.44-.78,1.18-1.42,2.21-1.91,1.03-.49,2.41-.74,4.14-.74h6.91v1.4h-6.88c-1.94,0-3.31.36-4.09,1.08-.78.72-1.17,1.62-1.17,2.7,0,1.2.46,2.16,1.37,2.88s2.2,1.08,3.85,1.08,2.92-.36,4.01-1.08c1.09-.72,1.9-1.76,2.43-3.13l.5,1.22c-.5,1.37-1.36,2.45-2.57,3.26-1.21.8-2.75,1.21-4.63,1.21Zm6.77-.14v-4.28l-.07-.65v-7.06c0-1.75-.47-3.08-1.42-4-.95-.91-2.33-1.37-4.16-1.37-1.3,0-2.5.22-3.62.67s-2.07,1.01-2.86,1.71l-.9-1.3c.94-.84,2.06-1.49,3.38-1.96,1.32-.47,2.7-.7,4.14-.7,2.33,0,4.12.59,5.36,1.76,1.25,1.18,1.87,2.93,1.87,5.26v11.92h-1.73Z"/>
      <path class="cls-2" d="m177.31,30.6V12.89l.5.54h-7.85v-1.62h16.49v1.62h-7.85l.5-.54v17.71h-1.8Z"/>
      <path class="cls-2" d="m190.3,30.6V11.81h1.8v8.57h12.74v-8.57h1.8v18.79h-1.8v-8.64h-12.74v8.64h-1.8Z"/>
      <path class="cls-2" d="m221.91,30.74c-1.8,0-3.4-.41-4.81-1.22-1.4-.82-2.52-1.94-3.35-3.38-.83-1.44-1.24-3.08-1.24-4.93s.41-3.52,1.24-4.95c.83-1.43,1.94-2.55,3.35-3.37,1.4-.82,3.01-1.22,4.81-1.22s3.41.41,4.82,1.22c1.42.82,2.53,1.94,3.35,3.37s1.22,3.08,1.22,4.95-.41,3.49-1.22,4.93c-.82,1.44-1.93,2.57-3.35,3.38-1.42.82-3.02,1.22-4.82,1.22Zm0-1.62c1.44,0,2.74-.33,3.89-.99,1.15-.66,2.05-1.59,2.7-2.79s.97-2.58.97-4.14-.32-2.97-.97-4.16c-.65-1.19-1.55-2.11-2.7-2.77-1.15-.66-2.45-.99-3.89-.99s-2.73.33-3.87.99c-1.14.66-2.04,1.58-2.7,2.77-.66,1.19-.99,2.57-.99,4.16s.33,2.94.99,4.14c.66,1.2,1.56,2.13,2.7,2.79,1.14.66,2.43.99,3.87.99Z"/>
      <path class="cls-2" d="m244.95,30.74c-1.9,0-3.57-.41-5.02-1.22-1.45-.82-2.59-1.94-3.42-3.38-.83-1.44-1.24-3.08-1.24-4.93s.39-3.52,1.17-4.95c.78-1.43,1.85-2.55,3.22-3.37,1.37-.82,2.9-1.22,4.61-1.22s3.23.4,4.59,1.19,2.42,1.9,3.2,3.33c.78,1.43,1.17,3.08,1.17,4.95,0,.07,0,.15-.02.23-.01.08-.02.17-.02.27h-16.6v-1.4h15.62l-.72.68c.02-1.46-.28-2.78-.92-3.94-.64-1.16-1.49-2.08-2.57-2.74-1.08-.66-2.33-.99-3.74-.99s-2.63.33-3.73.99c-1.09.66-1.95,1.57-2.57,2.74-.62,1.16-.94,2.49-.94,3.98v.32c0,1.54.34,2.9,1.03,4.09.68,1.19,1.63,2.11,2.83,2.77,1.2.66,2.57.99,4.1.99,1.2,0,2.32-.22,3.37-.65s1.93-1.09,2.65-1.98l1.04,1.19c-.82,1.01-1.84,1.77-3.08,2.29-1.24.52-2.57.77-4.01.77Z"/>
      <path class="cls-2" d="m275.95,30.74c-1.82,0-3.45-.41-4.88-1.22-1.43-.82-2.56-1.94-3.38-3.38-.83-1.44-1.24-3.08-1.24-4.93s.41-3.53,1.24-4.97c.83-1.44,1.96-2.56,3.38-3.37,1.43-.8,3.05-1.21,4.88-1.21,1.51,0,2.89.29,4.12.86,1.24.58,2.24,1.44,3.01,2.59l-1.33.97c-.67-.96-1.51-1.67-2.52-2.12-1.01-.46-2.1-.68-3.28-.68-1.46,0-2.78.33-3.94.99-1.16.66-2.08,1.58-2.74,2.77-.66,1.19-.99,2.57-.99,4.16s.33,2.97.99,4.16c.66,1.19,1.57,2.11,2.74,2.77,1.16.66,2.48.99,3.94.99,1.18,0,2.27-.23,3.28-.68,1.01-.46,1.85-1.16,2.52-2.12l1.33.97c-.77,1.15-1.77,2.02-3.01,2.59-1.24.58-2.61.86-4.12.86Z"/>
      <path class="cls-2" d="m288.4,30.6V11.81h1.8v8.57h12.74v-8.57h1.8v18.79h-1.8v-8.64h-12.74v8.64h-1.8Z"/>
      <path class="cls-2" d="m310.9,30.6l5.22-7.24h1.91l-5.15,7.24h-1.98Zm13.82,0v-6.91l.4.43h-6.66c-2.35,0-4.18-.51-5.49-1.53s-1.96-2.53-1.96-4.52c0-2.11.71-3.68,2.12-4.72,1.42-1.03,3.29-1.55,5.62-1.55h7.63v18.79h-1.66Zm0-7.42v-10.33l.4.54h-6.26c-1.92,0-3.41.37-4.46,1.12s-1.58,1.96-1.58,3.64c0,3.07,1.94,4.61,5.83,4.61h6.48l-.4.43Z"/>
      <path class="cls-2" d="m337.58,30.6V12.89l.5.54h-7.85v-1.62h16.49v1.62h-7.85l.5-.54v17.71h-1.8Z"/>
      <path class="cls-2" d="m350.58,30.6V11.81h1.8v16.02l13.39-16.02h1.58v18.79h-1.8V14.58l-13.39,16.02h-1.58Z"/>
      <path class="cls-2" d="m382.9,30.74c-1.9,0-3.57-.41-5.02-1.22-1.45-.82-2.59-1.94-3.42-3.38-.83-1.44-1.24-3.08-1.24-4.93s.39-3.52,1.17-4.95c.78-1.43,1.85-2.55,3.22-3.37,1.37-.82,2.9-1.22,4.61-1.22s3.23.4,4.59,1.19c1.36.79,2.42,1.9,3.2,3.33.78,1.43,1.17,3.08,1.17,4.95,0,.07,0,.15-.02.23-.01.08-.02.17-.02.27h-16.6v-1.4h15.62l-.72.68c.02-1.46-.28-2.78-.92-3.94s-1.49-2.08-2.57-2.74c-1.08-.66-2.33-.99-3.74-.99s-2.63.33-3.73.99c-1.09.66-1.95,1.57-2.57,2.74-.62,1.16-.94,2.49-.94,3.98v.32c0,1.54.34,2.9,1.03,4.09.68,1.19,1.62,2.11,2.83,2.77,1.2.66,2.57.99,4.1.99,1.2,0,2.32-.22,3.37-.65s1.93-1.09,2.65-1.98l1.04,1.19c-.82,1.01-1.84,1.77-3.08,2.29-1.24.52-2.57.77-4.01.77Z"/>
      <path class="cls-2" d="m406.3,30.6V11.81h1.8v8.57h12.74v-8.57h1.8v18.79h-1.8v-8.64h-12.74v8.64h-1.8Z"/>
      <path class="cls-2" d="m435.39,30.74c-1.39,0-2.6-.22-3.62-.67-1.02-.44-1.8-1.07-2.34-1.89-.54-.82-.81-1.75-.81-2.81,0-.96.22-1.83.67-2.61.44-.78,1.18-1.42,2.21-1.91,1.03-.49,2.41-.74,4.14-.74h6.91v1.4h-6.88c-1.94,0-3.31.36-4.09,1.08-.78.72-1.17,1.62-1.17,2.7,0,1.2.46,2.16,1.37,2.88s2.2,1.08,3.85,1.08,2.92-.36,4.01-1.08c1.09-.72,1.9-1.76,2.43-3.13l.5,1.22c-.5,1.37-1.36,2.45-2.57,3.26-1.21.8-2.75,1.21-4.63,1.21Zm6.77-.14v-4.28l-.07-.65v-7.06c0-1.75-.47-3.08-1.42-4-.95-.91-2.33-1.37-4.16-1.37-1.3,0-2.5.22-3.62.67s-2.07,1.01-2.86,1.71l-.9-1.3c.94-.84,2.06-1.49,3.38-1.96,1.32-.47,2.7-.7,4.14-.7,2.33,0,4.12.59,5.36,1.76s1.87,2.93,1.87,5.26v11.92h-1.73Z"/>
      <path class="cls-2" d="m449.03,30.78c-.24,0-.49-.02-.74-.07-.25-.05-.52-.11-.81-.18l.18-1.55c.14.02.29.05.45.09s.29.05.41.05c.82,0,1.46-.31,1.94-.92.48-.61.85-1.43,1.1-2.47.25-1.03.43-2.2.54-3.49.11-1.3.2-2.62.27-3.96l.32-6.48h13.18v18.79h-1.8V12.85l.5.58h-10.73l.47-.61-.29,5.62c-.1,1.63-.23,3.19-.4,4.68-.17,1.49-.42,2.81-.76,3.96-.34,1.15-.82,2.06-1.44,2.72s-1.43.99-2.41.99Z"/>
      <path class="cls-2" d="m473.66,30.6V11.81h1.8v16.02l13.39-16.02h1.58v18.79h-1.8V14.58l-13.39,16.02h-1.58Z"/>
      <path class="cls-2" d="m503.21,24.05c-2.14,0-3.85-.5-5.15-1.49s-1.94-2.49-1.94-4.48v-6.26h1.8v6.16c0,1.51.5,2.65,1.51,3.42,1.01.77,2.35,1.15,4.03,1.15,1.01,0,2.08-.13,3.2-.4,1.13-.26,2.28-.66,3.46-1.19l-.04,1.48c-1.18.53-2.35.93-3.51,1.21-1.16.28-2.29.41-3.37.41Zm6.7,6.55V11.81h1.8v18.79h-1.8Z"/>
      <path class="cls-2" d="m519.48,30.6V11.81h1.8v8.57h12.74v-8.57h1.8v18.79h-1.8v-8.64h-12.74v8.64h-1.8Z"/>
      <path class="cls-2" d="m550.62,30.67l-7.02-.07V11.81h1.8v6.77l5.62.07c2.35.02,4.13.53,5.35,1.53,1.21,1,1.82,2.45,1.82,4.37s-.65,3.52-1.94,4.57c-1.3,1.06-3.17,1.57-5.62,1.55Zm-.07-1.44c1.92.02,3.37-.36,4.36-1.15.98-.79,1.48-1.97,1.48-3.53s-.49-2.64-1.46-3.38-2.43-1.13-4.37-1.15l-5.15-.04v9.18l5.15.07Zm11.09,1.37V11.81h1.8v18.79h-1.8Z"/>
      <path class="cls-2" d="m568.01,30.6l7.81-10.15-.04.86-7.38-9.5h2.05l6.44,8.32h-.76l6.41-8.32h2.02l-7.45,9.61.04-.97,7.92,10.15h-2.12l-6.8-8.86.68.07-6.77,8.78h-2.05Z"/>
    </g>
    <g class="cls-1">
      <path class="cls-2" d="m49.91,92.78c-1.87,0-3.61-.32-5.2-.95-1.6-.63-2.98-1.53-4.16-2.68-1.18-1.15-2.09-2.5-2.74-4.05-.65-1.55-.97-3.25-.97-5.09s.32-3.55.97-5.09c.65-1.55,1.57-2.9,2.75-4.05s2.57-2.05,4.16-2.68,3.31-.95,5.18-.95c1.78,0,3.44.29,4.99.86,1.55.58,2.87,1.45,3.98,2.63l-1.15,1.19c-1.08-1.06-2.27-1.82-3.58-2.29-1.31-.47-2.69-.7-4.16-.7-1.61,0-3.1.28-4.48.83-1.38.55-2.58,1.33-3.6,2.34-1.02,1.01-1.81,2.18-2.38,3.53-.56,1.34-.85,2.81-.85,4.39s.28,3.05.85,4.39c.56,1.34,1.36,2.52,2.38,3.53,1.02,1.01,2.22,1.79,3.6,2.34,1.38.55,2.87.83,4.48.83,1.46,0,2.85-.23,4.16-.7s2.5-1.24,3.58-2.32l1.15,1.19c-1.1,1.18-2.43,2.06-3.98,2.65-1.55.59-3.21.88-4.99.88Z"/>
      <path class="cls-2" d="m64.16,92.6v-18.79h1.8v18.79h-1.8Zm1.22-8.71v-1.55h5.9v1.55h-5.9Zm6.19-.5l-1.66-.29,7.7-9.29h1.98l-8.03,9.58Zm6.44,9.22l-8.06-9.4,1.51-.86,8.71,10.26h-2.16Z"/>
      <path class="cls-2" d="m84.61,92.6v-18.79h1.8v16.02l13.39-16.02h1.58v18.79h-1.8v-16.02l-13.39,16.02h-1.58Z"/>
      <path class="cls-2" d="m105.63,97.28v-6.26h21.2v6.26h-1.69v-4.68h-17.78v4.68h-1.73Zm2.63-5.87l-1.8-.4c.77.05,1.39-.23,1.87-.85.48-.61.85-1.45,1.12-2.5.26-1.06.46-2.25.59-3.58.13-1.33.23-2.69.31-4.09l.25-6.19h13.21v17.93h-1.8v-16.31h-9.79l-.22,4.68c-.05,1.32-.13,2.63-.25,3.94-.12,1.31-.31,2.51-.58,3.6-.26,1.09-.63,1.97-1.1,2.65-.47.67-1.07,1.04-1.82,1.12Z"/>
    </g>
    <g class="cls-1">
      <path class="cls-2" d="m132.17,92.6v-18.79h1.8v18.79h-1.8Zm1.22-8.71v-1.55h5.9v1.55h-5.9Zm6.19-.5l-1.66-.29,7.7-9.29h1.98l-8.03,9.58Zm6.44,9.22l-8.06-9.4,1.51-.86,8.71,10.26h-2.16Z"/>
    </g>
    <g class="cls-1">
      <path class="cls-2" d="m157.22,92.74c-1.39,0-2.6-.22-3.62-.67-1.02-.44-1.8-1.07-2.34-1.89-.54-.82-.81-1.75-.81-2.81,0-.96.22-1.83.67-2.61.44-.78,1.18-1.42,2.21-1.91,1.03-.49,2.41-.74,4.14-.74h6.91v1.4h-6.88c-1.94,0-3.31.36-4.09,1.08-.78.72-1.17,1.62-1.17,2.7,0,1.2.46,2.16,1.37,2.88s2.2,1.08,3.85,1.08,2.92-.36,4.01-1.08c1.09-.72,1.9-1.76,2.43-3.13l.5,1.22c-.5,1.37-1.36,2.45-2.57,3.26-1.21.8-2.75,1.21-4.63,1.21Zm6.77-.14v-4.28l-.07-.65v-7.06c0-1.75-.47-3.08-1.42-4-.95-.91-2.33-1.37-4.16-1.37-1.3,0-2.5.22-3.62.67s-2.07,1.01-2.86,1.71l-.9-1.3c.94-.84,2.06-1.49,3.38-1.96,1.32-.47,2.7-.7,4.14-.7,2.33,0,4.12.59,5.36,1.76,1.25,1.18,1.87,2.93,1.87,5.26v11.92h-1.73Z"/>
      <path class="cls-2" d="m178.74,97.28v-6.26h21.2v6.26h-1.69v-4.68h-17.78v4.68h-1.73Zm2.63-5.87l-1.8-.4c.77.05,1.39-.23,1.87-.85.48-.61.85-1.45,1.12-2.5.26-1.06.46-2.25.59-3.58.13-1.33.23-2.69.31-4.09l.25-6.19h13.21v17.93h-1.8v-16.31h-9.79l-.22,4.68c-.05,1.32-.13,2.63-.25,3.94-.12,1.31-.31,2.51-.58,3.6-.26,1.09-.63,1.97-1.1,2.65-.47.67-1.07,1.04-1.82,1.12Z"/>
      <path class="cls-2" d="m212.76,92.74c-1.8,0-3.4-.41-4.81-1.22-1.4-.82-2.52-1.94-3.35-3.38-.83-1.44-1.24-3.08-1.24-4.93s.41-3.52,1.24-4.95c.83-1.43,1.94-2.55,3.35-3.37,1.4-.82,3.01-1.22,4.81-1.22s3.41.41,4.82,1.22c1.42.82,2.53,1.94,3.35,3.37s1.22,3.08,1.22,4.95-.41,3.49-1.22,4.93c-.82,1.44-1.93,2.57-3.35,3.38-1.42.82-3.02,1.22-4.82,1.22Zm0-1.62c1.44,0,2.74-.33,3.89-.99,1.15-.66,2.05-1.59,2.7-2.79s.97-2.58.97-4.14-.32-2.97-.97-4.16c-.65-1.19-1.55-2.11-2.7-2.77-1.15-.66-2.45-.99-3.89-.99s-2.73.33-3.87.99c-1.14.66-2.04,1.58-2.7,2.77-.66,1.19-.99,2.57-.99,4.16s.33,2.94.99,4.14c.66,1.2,1.56,2.13,2.7,2.79,1.14.66,2.43.99,3.87.99Z"/>
    </g>
    <g class="cls-1">
      <path class="cls-2" d="m242.76,92.78c-1.85,0-3.57-.31-5.17-.94s-2.84-1.44-3.73-2.45l.94-1.4c.77.89,1.85,1.63,3.26,2.21,1.4.59,2.97.88,4.7.88,2.26,0,3.98-.5,5.17-1.51,1.19-1.01,1.78-2.36,1.78-4.07s-.59-3.03-1.78-4.05c-1.19-1.02-3.04-1.53-5.56-1.53h-1.58v-1.33l8.03-10.26.25.72h-14.26v-1.66h15.8v1.3l-7.99,10.26-.79-.58h.79c3,0,5.24.66,6.73,1.98,1.49,1.32,2.23,3.04,2.23,5.15,0,1.39-.33,2.64-.99,3.74-.66,1.1-1.64,1.97-2.95,2.59s-2.93.94-4.88.94Z"/>
      <path class="cls-2" d="m262.92,92.78c-1.82,0-3.53-.31-5.13-.94-1.6-.62-2.84-1.44-3.73-2.45l.94-1.4c.77.89,1.85,1.63,3.24,2.21,1.39.59,2.94.88,4.64.88,2.33,0,4.08-.53,5.26-1.58,1.18-1.06,1.76-2.42,1.76-4.1,0-1.2-.28-2.23-.83-3.1-.55-.86-1.49-1.53-2.81-2-1.32-.47-3.12-.7-5.4-.7h-5.11l1.33-12.2h13.36v1.66h-12.6l.9-.86-1.19,10.69-.86-.94h4.57c2.57,0,4.61.31,6.14.92,1.52.61,2.63,1.47,3.31,2.57.68,1.1,1.03,2.4,1.03,3.89,0,1.39-.32,2.65-.97,3.78-.65,1.13-1.63,2.02-2.93,2.68-1.31.66-2.95.99-4.91.99Z"/>
    </g>
    <g class="cls-1">
      <path class="cls-2" d="m280.01,80.86c-1.08,0-2.04-.28-2.88-.85-.84-.56-1.49-1.36-1.96-2.38-.47-1.02-.7-2.21-.7-3.58s.23-2.56.7-3.58c.47-1.02,1.12-1.81,1.96-2.38.84-.56,1.8-.85,2.88-.85s2.08.28,2.92.85c.84.56,1.49,1.36,1.96,2.38.47,1.02.7,2.21.7,3.58s-.23,2.56-.7,3.58c-.47,1.02-1.12,1.81-1.96,2.38-.84.56-1.81.85-2.92.85Zm0-1.22c1.27,0,2.29-.49,3.06-1.48.77-.98,1.15-2.35,1.15-4.1s-.38-3.12-1.15-4.1c-.77-.98-1.79-1.48-3.06-1.48s-2.26.5-3.02,1.49c-.77,1-1.15,2.36-1.15,4.09s.38,3.09,1.15,4.09c.77,1,1.78,1.49,3.02,1.49Zm-1.84,12.96l17.21-25.2h1.55l-17.21,25.2h-1.55Zm16.92.14c-1.08,0-2.05-.28-2.9-.85-.85-.56-1.51-1.36-1.98-2.38-.47-1.02-.7-2.21-.7-3.58s.23-2.56.7-3.58c.47-1.02,1.13-1.81,1.98-2.38.85-.56,1.82-.85,2.9-.85s2.07.28,2.9.85c.83.56,1.48,1.36,1.94,2.38.47,1.02.7,2.21.7,3.58s-.23,2.56-.7,3.58c-.47,1.02-1.12,1.81-1.94,2.38-.83.56-1.79.85-2.9.85Zm0-1.22c1.25,0,2.26-.5,3.02-1.49.77-1,1.15-2.36,1.15-4.09s-.38-3.09-1.15-4.09c-.77-1-1.78-1.49-3.02-1.49s-2.29.49-3.06,1.48c-.77.98-1.15,2.35-1.15,4.1s.38,3.12,1.15,4.1c.77.98,1.79,1.48,3.06,1.48Z"/>
      <path class="cls-2" d="m315.4,92.6v-18.79h7.92c2.06,0,3.7.41,4.9,1.22,1.2.82,1.8,2,1.8,3.56s-.58,2.7-1.75,3.49-2.67,1.19-4.52,1.19l.5-.54c2.21,0,3.83.41,4.86,1.22,1.03.82,1.55,2.02,1.55,3.6s-.58,2.85-1.75,3.73c-1.16.88-2.96,1.31-5.38,1.31h-8.14Zm1.76-10.22h6.05c1.58,0,2.81-.3,3.69-.9.88-.6,1.31-1.49,1.31-2.66s-.44-2.06-1.31-2.65c-.88-.59-2.11-.88-3.69-.88h-6.05v7.09Zm0,8.75h6.34c1.75,0,3.08-.29,4-.86s1.37-1.5,1.37-2.77-.4-2.24-1.21-2.83c-.8-.59-2.09-.88-3.87-.88h-6.62v7.34Z"/>
    </g>
    <g class="cls-1">
      <path class="cls-2" d="m342.62,92.6l11.59-25.2h1.84l11.59,25.2h-1.98l-10.94-24.05h.79l-10.91,24.05h-1.98Zm4.25-7.09l.61-1.55h15.08l.61,1.55h-16.31Z"/>
    </g>
    <g class="cls-1">
      <path class="cls-2" d="m375.49,92.6l-8.46-18.79h1.91l7.92,17.78h-.86l7.99-17.78h1.84l-8.5,18.79h-1.84Z"/>
      <path class="cls-2" d="m390.64,69.24c-.41,0-.76-.14-1.04-.43s-.43-.62-.43-1.01c0-.41.14-.76.43-1.04s.64-.43,1.04-.43c.43,0,.79.14,1.06.41.28.28.41.62.41,1.03s-.14.76-.41,1.04c-.28.29-.63.43-1.06.43Zm-.9,23.36v-18.79h1.8v18.79h-1.8Z"/>
      <path class="cls-2" d="m403.89,92.74c-1.56,0-3.02-.23-4.37-.68-1.36-.46-2.41-1.03-3.15-1.73l.83-1.44c.72.62,1.68,1.16,2.88,1.6,1.2.44,2.5.67,3.89.67,1.97,0,3.38-.32,4.25-.97.86-.65,1.3-1.5,1.3-2.56,0-.77-.22-1.37-.67-1.82-.44-.44-1.04-.79-1.78-1.03-.74-.24-1.56-.44-2.45-.59-.89-.16-1.78-.33-2.66-.52s-1.7-.47-2.45-.83c-.74-.36-1.34-.86-1.78-1.49-.44-.64-.67-1.48-.67-2.54,0-.96.26-1.82.79-2.59.53-.77,1.32-1.39,2.38-1.85,1.06-.47,2.38-.7,3.96-.7,1.18,0,2.36.17,3.55.5,1.19.34,2.15.78,2.9,1.33l-.83,1.44c-.79-.6-1.68-1.03-2.66-1.3-.98-.26-1.98-.4-2.99-.4-1.82,0-3.16.34-4.01,1.01-.85.67-1.28,1.51-1.28,2.52,0,.79.22,1.42.67,1.89.44.47,1.04.83,1.78,1.08.74.25,1.56.46,2.45.61.89.16,1.78.33,2.66.52s1.7.46,2.45.81c.74.35,1.34.83,1.78,1.44.44.61.67,1.43.67,2.47s-.28,1.93-.85,2.7c-.56.77-1.4,1.37-2.5,1.8-1.1.43-2.46.65-4.07.65Z"/>
    </g>
    <g class="cls-1">
      <path class="cls-2" d="m39.11,154.6v-25.2h17.96v1.62h-16.13v9.07h8.53c2.95,0,5.2.6,6.73,1.8,1.54,1.2,2.3,2.96,2.3,5.29s-.81,4.27-2.43,5.53c-1.62,1.26-3.99,1.89-7.11,1.89h-9.86Zm1.84-1.55h8.06c2.52,0,4.43-.49,5.72-1.46,1.3-.97,1.94-2.42,1.94-4.34,0-3.77-2.56-5.65-7.67-5.65h-8.06v11.45Z"/>
      <path class="cls-2" d="m72.26,154.74c-1.9,0-3.57-.41-5.02-1.22-1.45-.82-2.59-1.94-3.42-3.38-.83-1.44-1.24-3.08-1.24-4.93s.39-3.52,1.17-4.95c.78-1.43,1.85-2.55,3.22-3.37,1.37-.82,2.9-1.22,4.61-1.22s3.23.4,4.59,1.19,2.42,1.9,3.2,3.33c.78,1.43,1.17,3.08,1.17,4.95,0,.07,0,.15-.02.23-.01.08-.02.17-.02.27h-16.6v-1.4h15.62l-.72.68c.02-1.46-.28-2.78-.92-3.94-.64-1.16-1.49-2.08-2.57-2.74-1.08-.66-2.33-.99-3.74-.99s-2.63.33-3.73.99c-1.09.66-1.95,1.57-2.57,2.74-.62,1.16-.94,2.49-.94,3.98v.32c0,1.54.34,2.9,1.03,4.09.68,1.19,1.63,2.11,2.83,2.77,1.2.66,2.57.99,4.1.99,1.2,0,2.32-.22,3.37-.65s1.93-1.09,2.65-1.98l1.04,1.19c-.82,1.01-1.84,1.77-3.08,2.29-1.24.52-2.57.77-4.01.77Z"/>
      <path class="cls-2" d="m91.05,154.78c-1.3,0-2.6-.2-3.92-.61-1.32-.41-2.48-1.03-3.49-1.87l.68-1.33c.91.77,1.97,1.34,3.17,1.71s2.4.55,3.6.52c1.22,0,2.3-.18,3.22-.54.92-.36,1.64-.85,2.14-1.48s.76-1.32.76-2.09c0-1.13-.5-2-1.51-2.63-1.01-.62-2.39-.94-4.14-.94h-3.49v-1.37h3.42c1.01,0,1.9-.13,2.68-.4.78-.26,1.39-.65,1.84-1.17.44-.52.67-1.12.67-1.82,0-.77-.26-1.42-.77-1.96-.52-.54-1.21-.94-2.09-1.21-.88-.26-1.85-.4-2.93-.4-.94.02-1.9.17-2.9.43-1,.26-1.97.66-2.93,1.19l-.58-1.44c1.06-.58,2.12-1.01,3.2-1.3s2.17-.44,3.28-.47c1.39-.02,2.66.16,3.82.56,1.15.4,2.06.96,2.74,1.69.67.73,1.01,1.61,1.01,2.65,0,.94-.28,1.75-.85,2.43-.56.68-1.33,1.22-2.3,1.6s-2.06.58-3.26.58l.14-.58c2.16,0,3.83.42,5.02,1.26,1.19.84,1.78,1.97,1.78,3.38,0,1.13-.36,2.11-1.08,2.95-.72.84-1.69,1.49-2.9,1.94s-2.55.68-4.01.68Z"/>
      <path class="cls-2" d="m112.83,154.74c-1.8,0-3.4-.41-4.81-1.22-1.4-.82-2.52-1.94-3.35-3.38-.83-1.44-1.24-3.08-1.24-4.93s.41-3.52,1.24-4.95c.83-1.43,1.94-2.55,3.35-3.37,1.4-.82,3.01-1.22,4.81-1.22s3.41.41,4.82,1.22c1.42.82,2.53,1.94,3.35,3.37s1.22,3.08,1.22,4.95-.41,3.49-1.22,4.93c-.82,1.44-1.93,2.57-3.35,3.38-1.42.82-3.02,1.22-4.82,1.22Zm0-1.62c1.44,0,2.74-.33,3.89-.99,1.15-.66,2.05-1.59,2.7-2.79s.97-2.58.97-4.14-.32-2.97-.97-4.16c-.65-1.19-1.55-2.11-2.7-2.77-1.15-.66-2.45-.99-3.89-.99s-2.73.33-3.87.99c-1.14.66-2.04,1.58-2.7,2.77-.66,1.19-.99,2.57-.99,4.16s.33,2.94.99,4.14c.66,1.2,1.56,2.13,2.7,2.79,1.14.66,2.43.99,3.87.99Z"/>
      <path class="cls-2" d="m128.1,154.6v-18.79h16.42v18.79h-1.8v-17.71l.5.54h-13.82l.5-.54v17.71h-1.8Z"/>
      <path class="cls-2" d="m157.26,154.74c-1.39,0-2.6-.22-3.62-.67-1.02-.44-1.8-1.07-2.34-1.89-.54-.82-.81-1.75-.81-2.81,0-.96.22-1.83.67-2.61.44-.78,1.18-1.42,2.21-1.91,1.03-.49,2.41-.74,4.14-.74h6.91v1.4h-6.88c-1.94,0-3.31.36-4.09,1.08-.78.72-1.17,1.62-1.17,2.7,0,1.2.46,2.16,1.37,2.88s2.2,1.08,3.85,1.08,2.92-.36,4.01-1.08c1.09-.72,1.9-1.76,2.43-3.13l.5,1.22c-.5,1.37-1.36,2.45-2.57,3.26-1.21.8-2.75,1.21-4.63,1.21Zm6.77-.14v-4.28l-.07-.65v-7.06c0-1.75-.47-3.08-1.42-4-.95-.91-2.33-1.37-4.16-1.37-1.3,0-2.5.22-3.62.67s-2.07,1.01-2.86,1.71l-.9-1.3c.94-.84,2.06-1.49,3.38-1.96,1.32-.47,2.7-.7,4.14-.7,2.33,0,4.12.59,5.36,1.76,1.25,1.18,1.87,2.93,1.87,5.26v11.92h-1.73Z"/>
      <path class="cls-2" d="m180.66,154.74c-1.82,0-3.45-.41-4.88-1.22-1.43-.82-2.56-1.94-3.38-3.38-.83-1.44-1.24-3.08-1.24-4.93s.41-3.53,1.24-4.97c.83-1.44,1.96-2.56,3.38-3.37,1.43-.8,3.05-1.21,4.88-1.21,1.51,0,2.89.29,4.12.86,1.24.58,2.24,1.44,3.01,2.59l-1.33.97c-.67-.96-1.51-1.67-2.52-2.12-1.01-.46-2.1-.68-3.28-.68-1.46,0-2.78.33-3.94.99-1.16.66-2.08,1.58-2.74,2.77-.66,1.19-.99,2.57-.99,4.16s.33,2.97.99,4.16c.66,1.19,1.57,2.11,2.74,2.77,1.16.66,2.48.99,3.94.99,1.18,0,2.27-.23,3.28-.68,1.01-.46,1.85-1.16,2.52-2.12l1.33.97c-.77,1.15-1.77,2.02-3.01,2.59-1.24.58-2.61.86-4.12.86Z"/>
      <path class="cls-2" d="m193.11,154.6v-18.79h1.8v8.57h12.74v-8.57h1.8v18.79h-1.8v-8.64h-12.74v8.64h-1.8Z"/>
      <path class="cls-2" d="m224.72,154.74c-1.8,0-3.4-.41-4.81-1.22-1.4-.82-2.52-1.94-3.35-3.38-.83-1.44-1.24-3.08-1.24-4.93s.41-3.52,1.24-4.95c.83-1.43,1.94-2.55,3.35-3.37,1.4-.82,3.01-1.22,4.81-1.22s3.41.41,4.82,1.22c1.42.82,2.53,1.94,3.35,3.37s1.22,3.08,1.22,4.95-.41,3.49-1.22,4.93c-.82,1.44-1.93,2.57-3.35,3.38-1.42.82-3.02,1.22-4.82,1.22Zm0-1.62c1.44,0,2.74-.33,3.89-.99,1.15-.66,2.05-1.59,2.7-2.79s.97-2.58.97-4.14-.32-2.97-.97-4.16c-.65-1.19-1.55-2.11-2.7-2.77-1.15-.66-2.45-.99-3.89-.99s-2.73.33-3.87.99c-1.14.66-2.04,1.58-2.7,2.77-.66,1.19-.99,2.57-.99,4.16s.33,2.94.99,4.14c.66,1.2,1.56,2.13,2.7,2.79,1.14.66,2.43.99,3.87.99Z"/>
    </g>
    <g class="cls-1">
      <path class="cls-2" d="m247.58,154.74c-1.82,0-3.45-.41-4.88-1.22-1.43-.82-2.56-1.94-3.38-3.38-.83-1.44-1.24-3.08-1.24-4.93s.41-3.53,1.24-4.97c.83-1.44,1.96-2.56,3.38-3.37,1.43-.8,3.05-1.21,4.88-1.21,1.51,0,2.89.29,4.12.86,1.24.58,2.24,1.44,3.01,2.59l-1.33.97c-.67-.96-1.51-1.67-2.52-2.12-1.01-.46-2.1-.68-3.28-.68-1.46,0-2.78.33-3.94.99-1.16.66-2.08,1.58-2.74,2.77-.66,1.19-.99,2.57-.99,4.16s.33,2.97.99,4.16c.66,1.19,1.57,2.11,2.74,2.77,1.16.66,2.48.99,3.94.99,1.18,0,2.27-.23,3.28-.68,1.01-.46,1.85-1.16,2.52-2.12l1.33.97c-.77,1.15-1.77,2.02-3.01,2.59-1.24.58-2.61.86-4.12.86Z"/>
    </g>
    <g class="cls-1">
      <path class="cls-2" d="m262.92,154.6v-17.71l.5.54h-7.85v-1.62h16.49v1.62h-7.85l.5-.54v17.71h-1.8Z"/>
      <path class="cls-2" d="m283.01,154.67l-7.09-.07v-18.79h1.8v6.77l5.72.07c2.33.02,4.1.53,5.33,1.53,1.22,1,1.84,2.45,1.84,4.37s-.65,3.52-1.94,4.57c-1.3,1.06-3.18,1.57-5.65,1.55Zm-.04-1.44c1.92.02,3.37-.36,4.34-1.15.97-.79,1.46-1.97,1.46-3.53s-.48-2.64-1.44-3.38-2.41-1.13-4.36-1.15l-5.26-.04v9.18l5.26.07Z"/>
      <path class="cls-2" d="m305.07,154.6v-18.79h1.8v16.02l13.39-16.02h1.58v18.79h-1.8v-16.02l-13.39,16.02h-1.58Z"/>
      <path class="cls-2" d="m343.52,154.78c-1.3,0-2.6-.2-3.92-.61-1.32-.41-2.48-1.03-3.49-1.87l.68-1.33c.91.77,1.97,1.34,3.17,1.71s2.4.55,3.6.52c1.22,0,2.3-.18,3.22-.54.92-.36,1.64-.85,2.14-1.48s.76-1.32.76-2.09c0-1.13-.5-2-1.51-2.63-1.01-.62-2.39-.94-4.14-.94h-3.49v-1.37h3.42c1.01,0,1.9-.13,2.68-.4.78-.26,1.39-.65,1.84-1.17.44-.52.67-1.12.67-1.82,0-.77-.26-1.42-.77-1.96-.52-.54-1.21-.94-2.09-1.21-.88-.26-1.85-.4-2.93-.4-.94.02-1.9.17-2.9.43-1,.26-1.97.66-2.93,1.19l-.58-1.44c1.06-.58,2.12-1.01,3.2-1.3s2.17-.44,3.28-.47c1.39-.02,2.66.16,3.82.56,1.15.4,2.06.96,2.74,1.69.67.73,1.01,1.61,1.01,2.65,0,.94-.28,1.75-.85,2.43-.56.68-1.33,1.22-2.3,1.6-.97.38-2.06.58-3.26.58l.14-.58c2.16,0,3.83.42,5.02,1.26,1.19.84,1.78,1.97,1.78,3.38,0,1.13-.36,2.11-1.08,2.95-.72.84-1.69,1.49-2.9,1.94s-2.55.68-4.01.68Z"/>
      <path class="cls-2" d="m362.78,154.74c-1.39,0-2.6-.22-3.62-.67-1.02-.44-1.8-1.07-2.34-1.89-.54-.82-.81-1.75-.81-2.81,0-.96.22-1.83.67-2.61.44-.78,1.18-1.42,2.21-1.91,1.03-.49,2.41-.74,4.14-.74h6.91v1.4h-6.88c-1.94,0-3.31.36-4.09,1.08-.78.72-1.17,1.62-1.17,2.7,0,1.2.46,2.16,1.37,2.88s2.2,1.08,3.85,1.08,2.92-.36,4.01-1.08,1.9-1.76,2.43-3.13l.5,1.22c-.5,1.37-1.36,2.45-2.57,3.26-1.21.8-2.75,1.21-4.63,1.21Zm6.77-.14v-4.28l-.07-.65v-7.06c0-1.75-.47-3.08-1.42-4-.95-.91-2.33-1.37-4.16-1.37-1.3,0-2.5.22-3.62.67s-2.07,1.01-2.86,1.71l-.9-1.3c.94-.84,2.06-1.49,3.38-1.96,1.32-.47,2.7-.7,4.14-.7,2.33,0,4.12.59,5.36,1.76,1.25,1.18,1.87,2.93,1.87,5.26v11.92h-1.73Z"/>
      <path class="cls-2" d="m378.58,154.6v-18.79h1.8v17.75l-.5-.54h10.91l-.43.54v-17.75h1.8v17.75l-.54-.54h10.94l-.5.54v-17.75h1.8v18.79h-25.27Zm26.5,4.25v-4.79l.5.54h-3.67v-1.58h4.9v5.83h-1.73Z"/>
      <path class="cls-2" d="m411.63,154.6v-18.79h1.8v16.02l13.39-16.02h1.58v18.79h-1.8v-16.02l-13.39,16.02h-1.58Z"/>
      <path class="cls-2" d="m439.6,154.6v-17.71l.5.54h-7.85v-1.62h16.49v1.62h-7.85l.5-.54v17.71h-1.8Z"/>
      <path class="cls-2" d="m457.57,154.74c-1.39,0-2.6-.22-3.62-.67-1.02-.44-1.8-1.07-2.34-1.89-.54-.82-.81-1.75-.81-2.81,0-.96.22-1.83.67-2.61.44-.78,1.18-1.42,2.21-1.91,1.03-.49,2.41-.74,4.14-.74h6.91v1.4h-6.88c-1.94,0-3.31.36-4.09,1.08-.78.72-1.17,1.62-1.17,2.7,0,1.2.46,2.16,1.37,2.88s2.2,1.08,3.85,1.08,2.92-.36,4.01-1.08,1.9-1.76,2.43-3.13l.5,1.22c-.5,1.37-1.36,2.45-2.57,3.26-1.21.8-2.75,1.21-4.63,1.21Zm6.77-.14v-4.28l-.07-.65v-7.06c0-1.75-.47-3.08-1.42-4-.95-.91-2.33-1.37-4.16-1.37-1.3,0-2.5.22-3.62.67s-2.07,1.01-2.86,1.71l-.9-1.3c.94-.84,2.06-1.49,3.38-1.96,1.32-.47,2.7-.7,4.14-.7,2.33,0,4.12.59,5.36,1.76,1.25,1.18,1.87,2.93,1.87,5.26v11.92h-1.73Z"/>
      <path class="cls-2" d="m482.62,154.6v-18.79h16.42v18.79h-1.8v-17.71l.5.54h-13.82l.5-.54v17.71h-1.8Z"/>
      <path class="cls-2" d="m504.65,154.78c-.24,0-.49-.02-.74-.07-.25-.05-.52-.11-.81-.18l.18-1.55c.14.02.29.05.45.09s.29.05.41.05c.82,0,1.46-.31,1.94-.92.48-.61.85-1.43,1.1-2.47.25-1.03.43-2.2.54-3.49.11-1.3.2-2.62.27-3.96l.32-6.48h13.18v18.79h-1.8v-17.75l.5.58h-10.73l.47-.61-.29,5.62c-.1,1.63-.23,3.19-.4,4.68-.17,1.49-.42,2.81-.76,3.96-.34,1.15-.82,2.06-1.44,2.72s-1.43.99-2.41.99Z"/>
      <path class="cls-2" d="m534.25,154.74c-1.39,0-2.6-.22-3.62-.67-1.02-.44-1.8-1.07-2.34-1.89-.54-.82-.81-1.75-.81-2.81,0-.96.22-1.83.67-2.61.44-.78,1.18-1.42,2.21-1.91,1.03-.49,2.41-.74,4.14-.74h6.91v1.4h-6.88c-1.94,0-3.31.36-4.09,1.08-.78.72-1.17,1.62-1.17,2.7,0,1.2.46,2.16,1.37,2.88s2.2,1.08,3.85,1.08,2.92-.36,4.01-1.08c1.09-.72,1.9-1.76,2.43-3.13l.5,1.22c-.5,1.37-1.36,2.45-2.57,3.26-1.21.8-2.75,1.21-4.63,1.21Zm6.77-.14v-4.28l-.07-.65v-7.06c0-1.75-.47-3.08-1.42-4-.95-.91-2.33-1.37-4.16-1.37-1.3,0-2.5.22-3.62.67s-2.07,1.01-2.86,1.71l-.9-1.3c.94-.84,2.06-1.49,3.38-1.96,1.32-.47,2.7-.7,4.14-.7,2.33,0,4.12.59,5.36,1.76s1.87,2.93,1.87,5.26v11.92h-1.73Z"/>
    </g>
    <g class="cls-1">
      <path class="cls-2" d="m553.47,154.6v-17.71l.5.54h-7.85v-1.62h16.49v1.62h-7.85l.5-.54v17.71h-1.8Z"/>
    </g>
    <g class="cls-1">
      <path class="cls-2" d="m573.34,154.74c-1.9,0-3.57-.41-5.02-1.22-1.45-.82-2.59-1.94-3.42-3.38-.83-1.44-1.24-3.08-1.24-4.93s.39-3.52,1.17-4.95c.78-1.43,1.85-2.55,3.22-3.37,1.37-.82,2.9-1.22,4.61-1.22s3.23.4,4.59,1.19c1.36.79,2.42,1.9,3.2,3.33.78,1.43,1.17,3.08,1.17,4.95,0,.07,0,.15-.02.23-.01.08-.02.17-.02.27h-16.6v-1.4h15.62l-.72.68c.02-1.46-.28-2.78-.92-3.94s-1.49-2.08-2.57-2.74c-1.08-.66-2.33-.99-3.74-.99s-2.63.33-3.73.99c-1.09.66-1.95,1.57-2.57,2.74-.62,1.16-.94,2.49-.94,3.98v.32c0,1.54.34,2.9,1.03,4.09.68,1.19,1.62,2.11,2.83,2.77,1.2.66,2.57.99,4.1.99,1.2,0,2.32-.22,3.37-.65s1.93-1.09,2.65-1.98l1.04,1.19c-.82,1.01-1.84,1.77-3.08,2.29-1.24.52-2.57.77-4.01.77Z"/>
    </g>
    <g class="cls-1">
      <path class="cls-2" d="m583.82,154.6l7.45-10.26,1.51.86-6.77,9.4h-2.2Zm7.31-9.22l-6.73-9.58h1.98l6.44,9.29-1.69.29Zm.32.5v-1.55h5.8v1.55h-5.8Zm5.22,8.71v-18.79h1.8v18.79h-1.8Zm1.19-8.71v-1.55h5.83v1.55h-5.83Zm6.19-.5l-1.69-.29,6.44-9.29h1.98l-6.73,9.58Zm5.11,9.22l-6.77-9.4,1.51-.86,7.42,10.26h-2.16Z"/>
    </g>
    <g class="cls-1">
      <path class="cls-2" d="m623.05,154.74c-1.9,0-3.57-.41-5.02-1.22-1.45-.82-2.59-1.94-3.42-3.38-.83-1.44-1.24-3.08-1.24-4.93s.39-3.52,1.17-4.95c.78-1.43,1.85-2.55,3.22-3.37,1.37-.82,2.9-1.22,4.61-1.22s3.23.4,4.59,1.19c1.36.79,2.42,1.9,3.2,3.33.78,1.43,1.17,3.08,1.17,4.95,0,.07,0,.15-.02.23-.01.08-.02.17-.02.27h-16.6v-1.4h15.62l-.72.68c.02-1.46-.28-2.78-.92-3.94s-1.49-2.08-2.57-2.74c-1.08-.66-2.33-.99-3.74-.99s-2.63.33-3.73.99c-1.09.66-1.95,1.57-2.57,2.74-.62,1.16-.94,2.49-.94,3.98v.32c0,1.54.34,2.9,1.03,4.09.68,1.19,1.62,2.11,2.83,2.77,1.2.66,2.57.99,4.1.99,1.2,0,2.32-.22,3.37-.65s1.93-1.09,2.65-1.98l1.04,1.19c-.82,1.01-1.84,1.77-3.08,2.29-1.24.52-2.57.77-4.01.77Z"/>
      <path class="cls-2" d="m637.2,154.6v-18.79h1.8v16.02l13.39-16.02h1.58v18.79h-1.8v-16.02l-13.39,16.02h-1.58Zm8.32-21.67c-1.46,0-2.67-.39-3.62-1.17s-1.45-1.87-1.49-3.26h1.33c.05.98.43,1.76,1.13,2.34.71.58,1.59.86,2.65.86s1.94-.29,2.65-.86c.71-.58,1.07-1.36,1.1-2.34h1.37c-.02,1.39-.51,2.48-1.46,3.26-.95.78-2.17,1.17-3.65,1.17Z"/>
    </g>
    <g class="cls-1">
      <path class="cls-2" d="m44.51,216.78c-2.09,0-3.97-.28-5.65-.85-1.68-.56-3.04-1.36-4.07-2.39l.83-1.37c.96.94,2.21,1.67,3.74,2.2,1.54.53,3.26.79,5.18.79,2.71,0,4.73-.5,6.05-1.51,1.32-1.01,1.98-2.36,1.98-4.07,0-1.2-.31-2.19-.92-2.97-.61-.78-1.46-1.36-2.54-1.75-1.08-.38-2.34-.58-3.78-.58h-5.54v-1.58h5.51c1.92,0,3.43-.4,4.54-1.21,1.1-.8,1.66-1.96,1.66-3.47,0-1.18-.33-2.15-.99-2.92-.66-.77-1.52-1.33-2.59-1.67-1.07-.35-2.24-.52-3.51-.52-.89,0-1.8.08-2.74.25s-1.82.41-2.66.74c-.84.32-1.62.73-2.34,1.21l-.65-1.51c1.22-.77,2.57-1.35,4.03-1.75,1.46-.4,2.92-.59,4.36-.59,1.18,0,2.3.13,3.38.4,1.08.26,2.03.67,2.86,1.22.83.55,1.48,1.24,1.96,2.07.48.83.72,1.79.72,2.9,0,1.18-.28,2.21-.83,3.11-.55.9-1.35,1.61-2.39,2.12-1.04.52-2.29.77-3.73.77l.14-.68c1.46,0,2.8.25,4,.76,1.2.5,2.15,1.24,2.84,2.2.7.96,1.04,2.15,1.04,3.56s-.37,2.62-1.12,3.69c-.74,1.07-1.85,1.9-3.31,2.5-1.46.6-3.29.9-5.47.9Z"/>
      <path class="cls-2" d="m65.46,216.74c-1.39,0-2.6-.22-3.62-.67-1.02-.44-1.8-1.07-2.34-1.89-.54-.82-.81-1.75-.81-2.81,0-.96.22-1.83.67-2.61.44-.78,1.18-1.42,2.21-1.91,1.03-.49,2.41-.74,4.14-.74h6.91v1.4h-6.88c-1.94,0-3.31.36-4.09,1.08-.78.72-1.17,1.62-1.17,2.7,0,1.2.46,2.16,1.37,2.88s2.2,1.08,3.85,1.08,2.92-.36,4.01-1.08c1.09-.72,1.9-1.76,2.43-3.13l.5,1.22c-.5,1.37-1.36,2.45-2.57,3.26-1.21.8-2.75,1.21-4.63,1.21Zm6.77-.14v-4.28l-.07-.65v-7.06c0-1.75-.47-3.08-1.42-4-.95-.91-2.33-1.37-4.16-1.37-1.3,0-2.5.22-3.62.67s-2.07,1.01-2.86,1.71l-.9-1.3c.94-.84,2.06-1.49,3.38-1.96,1.32-.47,2.7-.7,4.14-.7,2.33,0,4.12.59,5.36,1.76,1.25,1.18,1.87,2.93,1.87,5.26v11.92h-1.73Z"/>
      <path class="cls-2" d="m81.26,216.6v-18.79h1.8v17.75l-.5-.54h10.91l-.43.54v-17.75h1.8v17.75l-.54-.54h10.94l-.5.54v-17.75h1.8v18.79h-25.27Zm26.5,4.25v-4.79l.5.54h-3.67v-1.58h4.9v5.83h-1.73Z"/>
      <path class="cls-2" d="m114.31,216.6v-18.79h1.8v16.02l13.39-16.02h1.58v18.79h-1.8v-16.02l-13.39,16.02h-1.58Z"/>
      <path class="cls-2" d="m142.28,216.6v-17.71l.5.54h-7.85v-1.62h16.49v1.62h-7.85l.5-.54v17.71h-1.8Z"/>
      <path class="cls-2" d="m160.25,216.74c-1.39,0-2.6-.22-3.62-.67-1.02-.44-1.8-1.07-2.34-1.89-.54-.82-.81-1.75-.81-2.81,0-.96.22-1.83.67-2.61.44-.78,1.18-1.42,2.21-1.91,1.03-.49,2.41-.74,4.14-.74h6.91v1.4h-6.88c-1.94,0-3.31.36-4.09,1.08-.78.72-1.17,1.62-1.17,2.7,0,1.2.46,2.16,1.37,2.88s2.2,1.08,3.85,1.08,2.92-.36,4.01-1.08c1.09-.72,1.9-1.76,2.43-3.13l.5,1.22c-.5,1.37-1.36,2.45-2.57,3.26-1.21.8-2.75,1.21-4.63,1.21Zm6.77-.14v-4.28l-.07-.65v-7.06c0-1.75-.47-3.08-1.42-4-.95-.91-2.33-1.37-4.16-1.37-1.3,0-2.5.22-3.62.67s-2.07,1.01-2.86,1.71l-.9-1.3c.94-.84,2.06-1.49,3.38-1.96,1.32-.47,2.7-.7,4.14-.7,2.33,0,4.12.59,5.36,1.76,1.25,1.18,1.87,2.93,1.87,5.26v11.92h-1.73Z"/>
      <path class="cls-2" d="m185.3,216.6v-18.79h16.42v18.79h-1.8v-17.71l.5.54h-13.82l.5-.54v17.71h-1.8Z"/>
      <path class="cls-2" d="m216.98,216.74c-1.8,0-3.4-.41-4.81-1.22-1.4-.82-2.52-1.94-3.35-3.38-.83-1.44-1.24-3.08-1.24-4.93s.41-3.52,1.24-4.95c.83-1.43,1.94-2.55,3.35-3.37,1.4-.82,3.01-1.22,4.81-1.22s3.41.41,4.82,1.22c1.42.82,2.53,1.94,3.35,3.37s1.22,3.08,1.22,4.95-.41,3.49-1.22,4.93c-.82,1.44-1.93,2.57-3.35,3.38-1.42.82-3.02,1.22-4.82,1.22Zm0-1.62c1.44,0,2.74-.33,3.89-.99,1.15-.66,2.05-1.59,2.7-2.79s.97-2.58.97-4.14-.32-2.97-.97-4.16c-.65-1.19-1.55-2.11-2.7-2.77-1.15-.66-2.45-.99-3.89-.99s-2.73.33-3.87.99c-1.14.66-2.04,1.58-2.7,2.77-.66,1.19-.99,2.57-.99,4.16s.33,2.94.99,4.14c.66,1.2,1.56,2.13,2.7,2.79,1.14.66,2.43.99,3.87.99Z"/>
    </g>
    <g class="cls-1">
      <path class="cls-2" d="m232.25,216.6v-18.79h1.8v18.79h-1.8Zm1.22-8.71v-1.55h5.9v1.55h-5.9Zm6.19-.5l-1.66-.29,7.7-9.29h1.98l-8.03,9.58Zm6.44,9.22l-8.06-9.4,1.51-.86,8.71,10.26h-2.16Z"/>
    </g>
    <g class="cls-1">
      <path class="cls-2" d="m251.75,223.73c-.86,0-1.67-.14-2.43-.43-.76-.29-1.4-.71-1.93-1.26l.9-1.37c.48.5,1,.88,1.57,1.12.56.24,1.21.36,1.93.36.86,0,1.63-.24,2.29-.72.66-.48,1.28-1.36,1.85-2.63l1.3-2.88.25-.32,7.96-17.78h1.84l-9.65,21.35c-.5,1.15-1.05,2.06-1.64,2.72-.59.66-1.23,1.13-1.93,1.42-.7.29-1.46.43-2.3.43Zm5.44-6.66l-8.71-19.26h1.91l7.92,17.68-1.12,1.58Z"/>
      <path class="cls-2" d="m271.62,216.6v-18.79h16.42v18.79h-1.8v-17.71l.5.54h-13.82l.5-.54v17.71h-1.8Z"/>
      <path class="cls-2" d="m303.3,216.74c-1.8,0-3.4-.41-4.81-1.22-1.4-.82-2.52-1.94-3.35-3.38-.83-1.44-1.24-3.08-1.24-4.93s.41-3.52,1.24-4.95c.83-1.43,1.94-2.55,3.35-3.37,1.4-.82,3.01-1.22,4.81-1.22s3.41.41,4.82,1.22c1.42.82,2.53,1.94,3.35,3.37s1.22,3.08,1.22,4.95-.41,3.49-1.22,4.93c-.82,1.44-1.93,2.57-3.35,3.38-1.42.82-3.02,1.22-4.82,1.22Zm0-1.62c1.44,0,2.74-.33,3.89-.99,1.15-.66,2.05-1.59,2.7-2.79s.97-2.58.97-4.14-.32-2.97-.97-4.16c-.65-1.19-1.55-2.11-2.7-2.77-1.15-.66-2.45-.99-3.89-.99s-2.73.33-3.87.99c-1.14.66-2.04,1.58-2.7,2.77-.66,1.19-.99,2.57-.99,4.16s.33,2.94.99,4.14c.66,1.2,1.56,2.13,2.7,2.79,1.14.66,2.43.99,3.87.99Z"/>
      <path class="cls-2" d="m318.57,216.6v-18.79h1.8v18.79h-1.8Zm1.22-8.71v-1.55h5.9v1.55h-5.9Zm6.19-.5l-1.66-.29,7.7-9.29h1.98l-8.03,9.58Zm6.44,9.22l-8.06-9.4,1.51-.86,8.71,10.26h-2.16Z"/>
      <path class="cls-2" d="m353.74,216.78c-1.85,0-3.57-.31-5.17-.94-1.6-.62-2.84-1.44-3.73-2.45l.94-1.4c.77.89,1.85,1.63,3.26,2.21s2.97.88,4.7.88c2.26,0,3.98-.5,5.17-1.51,1.19-1.01,1.78-2.36,1.78-4.07s-.59-3.03-1.78-4.05c-1.19-1.02-3.04-1.53-5.56-1.53h-1.58v-1.33l8.03-10.26.25.72h-14.26v-1.66h15.8v1.3l-7.99,10.26-.79-.58h.79c3,0,5.24.66,6.73,1.98,1.49,1.32,2.23,3.04,2.23,5.15,0,1.39-.33,2.64-.99,3.74-.66,1.1-1.64,1.97-2.95,2.59-1.31.62-2.93.94-4.88.94Z"/>
      <path class="cls-2" d="m368.86,216.6v-25.2h9.97c2.66,0,5,.54,7.02,1.62,2.02,1.08,3.58,2.57,4.7,4.46,1.12,1.9,1.67,4.07,1.67,6.52s-.56,4.62-1.67,6.52c-1.12,1.9-2.68,3.38-4.7,4.46-2.02,1.08-4.36,1.62-7.02,1.62h-9.97Zm1.84-1.66h7.99c2.38,0,4.44-.47,6.19-1.4,1.75-.94,3.11-2.23,4.07-3.87.96-1.64,1.44-3.53,1.44-5.67s-.48-4.03-1.44-5.67c-.96-1.64-2.32-2.93-4.07-3.87-1.75-.94-3.82-1.4-6.19-1.4h-7.99v21.89Z"/>
      <path class="cls-2" d="m414.47,216.78c-1.87,0-3.64-.32-5.31-.95-1.67-.63-2.96-1.46-3.87-2.47l.83-1.37c.86.89,2.05,1.64,3.55,2.25,1.5.61,3.09.92,4.77.92s3.05-.22,4.12-.67c1.07-.44,1.86-1.04,2.38-1.78.52-.74.77-1.57.77-2.48,0-1.08-.29-1.94-.86-2.59-.58-.65-1.33-1.16-2.27-1.55-.94-.38-1.96-.71-3.06-.97-1.1-.26-2.22-.54-3.35-.85-1.13-.3-2.16-.69-3.1-1.17-.94-.48-1.69-1.13-2.25-1.96-.56-.83-.85-1.9-.85-3.22,0-1.2.31-2.3.94-3.31s1.6-1.82,2.92-2.45c1.32-.62,3.01-.94,5.08-.94,1.39,0,2.77.2,4.12.61,1.36.41,2.51.96,3.47,1.66l-.68,1.48c-1.06-.72-2.19-1.25-3.4-1.6-1.21-.35-2.38-.52-3.51-.52-1.61,0-2.94.23-4,.68-1.06.46-1.84,1.06-2.34,1.82s-.76,1.6-.76,2.54c0,1.08.28,1.94.85,2.59.56.65,1.31,1.16,2.25,1.55.94.38,1.97.71,3.1.97,1.13.26,2.24.55,3.35.85,1.1.3,2.12.69,3.06,1.17.94.48,1.69,1.13,2.27,1.94.58.82.86,1.87.86,3.17,0,1.18-.32,2.27-.97,3.29-.65,1.02-1.64,1.84-2.97,2.45-1.33.61-3.04.92-5.13.92Z"/>
      <path class="cls-2" d="m436.83,216.74c-1.9,0-3.57-.41-5.02-1.22-1.45-.82-2.59-1.94-3.42-3.38-.83-1.44-1.24-3.08-1.24-4.93s.39-3.52,1.17-4.95c.78-1.43,1.85-2.55,3.22-3.37,1.37-.82,2.9-1.22,4.61-1.22s3.23.4,4.59,1.19c1.36.79,2.42,1.9,3.2,3.33.78,1.43,1.17,3.08,1.17,4.95,0,.07,0,.15-.02.23-.01.08-.02.17-.02.27h-16.6v-1.4h15.62l-.72.68c.02-1.46-.28-2.78-.92-3.94s-1.49-2.08-2.57-2.74c-1.08-.66-2.33-.99-3.74-.99s-2.63.33-3.73.99c-1.09.66-1.95,1.57-2.57,2.74s-.94,2.49-.94,3.98v.32c0,1.54.34,2.9,1.03,4.09.68,1.19,1.62,2.11,2.83,2.77s2.57.99,4.1.99c1.2,0,2.32-.22,3.37-.65s1.93-1.09,2.65-1.98l1.04,1.19c-.82,1.01-1.84,1.77-3.08,2.29-1.24.52-2.57.77-4.01.77Z"/>
      <path class="cls-2" d="m458.14,216.74c-1.82,0-3.45-.41-4.88-1.22-1.43-.82-2.56-1.94-3.38-3.38-.83-1.44-1.24-3.08-1.24-4.93s.41-3.53,1.24-4.97c.83-1.44,1.96-2.56,3.38-3.37,1.43-.8,3.05-1.21,4.88-1.21,1.51,0,2.89.29,4.12.86s2.24,1.44,3.01,2.59l-1.33.97c-.67-.96-1.51-1.67-2.52-2.12s-2.1-.68-3.28-.68c-1.46,0-2.78.33-3.94.99-1.17.66-2.08,1.58-2.74,2.77-.66,1.19-.99,2.57-.99,4.16s.33,2.97.99,4.16c.66,1.19,1.57,2.11,2.74,2.77,1.16.66,2.48.99,3.94.99,1.18,0,2.27-.23,3.28-.68,1.01-.46,1.85-1.16,2.52-2.12l1.33.97c-.77,1.15-1.77,2.02-3.01,2.59s-2.61.86-4.12.86Z"/>
      <path class="cls-2" d="m478.3,216.74c-1.61,0-3-.29-4.18-.88-1.18-.59-2.08-1.48-2.72-2.66-.64-1.19-.95-2.66-.95-4.41v-10.98h1.8v10.84c0,2.11.54,3.72,1.62,4.82,1.08,1.1,2.6,1.66,4.57,1.66,1.42,0,2.64-.3,3.67-.9,1.03-.6,1.82-1.45,2.38-2.54.55-1.09.83-2.38.83-3.87v-10.01h1.8v18.79h-1.73v-5.22l.25.61c-.55,1.46-1.47,2.62-2.75,3.47-1.28.85-2.81,1.28-4.59,1.28Z"/>
    </g>
    <g class="cls-1">
      <path class="cls-2" d="m494.76,216.6v-18.79h1.73v5.15l-.18-.58c.53-1.51,1.42-2.68,2.66-3.49,1.25-.82,2.81-1.22,4.68-1.22v1.76c-.07,0-.14,0-.22-.02-.07-.01-.14-.02-.22-.02-2.09,0-3.72.65-4.9,1.96-1.18,1.31-1.76,3.13-1.76,5.45v9.79h-1.8Z"/>
    </g>
    <g class="cls-1">
      <path class="cls-2" d="m516.03,216.74c-1.9,0-3.57-.41-5.02-1.22-1.45-.82-2.59-1.94-3.42-3.38-.83-1.44-1.24-3.08-1.24-4.93s.39-3.52,1.17-4.95,1.85-2.55,3.22-3.37c1.37-.82,2.9-1.22,4.61-1.22s3.23.4,4.59,1.19,2.42,1.9,3.2,3.33c.78,1.43,1.17,3.08,1.17,4.95,0,.07,0,.15-.02.23-.01.08-.02.17-.02.27h-16.6v-1.4h15.62l-.72.68c.02-1.46-.28-2.78-.92-3.94-.64-1.16-1.49-2.08-2.57-2.74-1.08-.66-2.33-.99-3.74-.99s-2.63.33-3.73.99c-1.09.66-1.95,1.57-2.57,2.74s-.94,2.49-.94,3.98v.32c0,1.54.34,2.9,1.03,4.09.68,1.19,1.63,2.11,2.83,2.77,1.2.66,2.57.99,4.1.99,1.2,0,2.32-.22,3.37-.65s1.93-1.09,2.65-1.98l1.04,1.19c-.82,1.01-1.84,1.77-3.08,2.29-1.24.52-2.57.77-4.01.77Z"/>
    </g>
  </g>
  <rect class="cls-2" x="2.1" y="13.14" width="16.13" height="16.13" rx="3" ry="3" transform="translate(-12.02 13.4) rotate(-45)"/>
  <rect class="cls-2" x="2.26" y="75.45" width="15.81" height="15.81" rx="3" ry="3" transform="translate(-55.97 31.6) rotate(-45)"/>
  <rect class="cls-2" x="2.27" y="137.37" width="15.81" height="15.81" rx="3" ry="3" transform="translate(-99.74 49.74) rotate(-45)"/>
  <rect class="cls-2" x="2.26" y="199.3" width="15.81" height="15.81" rx="3" ry="3" transform="translate(-143.54 67.87) rotate(-45)"/>
</svg>