<?xml version="1.0" encoding="UTF-8"?>
<svg id="Layer_2" data-name="Layer 2" xmlns="http://www.w3.org/2000/svg" xmlns:xlink="http://www.w3.org/1999/xlink" viewBox="0 0 774.71 165.82">
  <defs>
    <style>
      .cls-1 {
        letter-spacing: 0em;
      }

      .cls-1, .cls-2, .cls-3 {
        font-family: Montserrat-Regular, Montserrat;
      }

      .cls-4, .cls-5 {
        font-family: MontserratItalic-Italic, Montserrat;
        font-style: italic;
      }

      .cls-6 {
        letter-spacing: -.02em;
      }

      .cls-7 {
        letter-spacing: 0em;
      }

      .cls-3 {
        letter-spacing: -.02em;
      }

      .cls-8 {
        font-size: 72px;
        font-variation-settings: 'wght' 400;
      }

      .cls-9 {
        fill: url(#linear-gradient);
      }

      .cls-10 {
        letter-spacing: -.01em;
      }

      .cls-5 {
        letter-spacing: -.02em;
      }
    </style>
    <linearGradient id="linear-gradient" x1="7.27" y1="78.98" x2="767.37" y2="78.98" gradientUnits="userSpaceOnUse">
      <stop offset="0" stop-color="#09b188"/>
      <stop offset=".12" stop-color="#079d78"/>
      <stop offset=".34" stop-color="#048261"/>
      <stop offset=".56" stop-color="#026e51"/>
      <stop offset=".77" stop-color="#016248"/>
      <stop offset="1" stop-color="#015f45"/>
    </linearGradient>
  </defs>
  <g id="Layer_1-2" data-name="Layer 1">
    <g>
      <text class="cls-8" transform="translate(0 61.2)"><tspan class="cls-2"><tspan x="0" y="0">Новые возм</tspan><tspan class="cls-6" x="453.45" y="0">о</tspan><tspan class="cls-7" x="497.8" y="0">жно</tspan><tspan class="cls-10" x="651.66" y="0">с</tspan><tspan x="691.12" y="0">ти</tspan></tspan><tspan class="cls-1" x="0" y="72">к</tspan><tspan class="cls-2" x="41.11" y="72">а</tspan><tspan class="cls-3" x="83.09" y="72">р</tspan><tspan class="cls-2" x="131.04" y="72">ты </tspan><tspan class="cls-5" x="240.48" y="72">V</tspan><tspan class="cls-4" x="289.65" y="72">ISA</tspan></text>
      <g>
        <path class="cls-9" d="m8.5,61.2V10.8h5.33v50.4h-5.33Zm4.75-23.26v-4.68h32.62v4.68H13.25Zm32.11,23.26V10.8h5.26v50.4h-5.26Z"/>
        <path class="cls-9" d="m81.94,61.56c-3.7,0-6.98-.83-9.86-2.48-2.88-1.66-5.16-3.95-6.84-6.88-1.68-2.93-2.52-6.24-2.52-9.94s.84-7.13,2.52-10.01c1.68-2.88,3.96-5.14,6.84-6.77,2.88-1.63,6.17-2.45,9.86-2.45s7.07.83,9.97,2.48c2.9,1.66,5.18,3.91,6.84,6.77,1.66,2.86,2.48,6.18,2.48,9.97s-.83,7.07-2.48,9.97c-1.66,2.9-3.95,5.18-6.88,6.84-2.93,1.66-6.24,2.48-9.94,2.48Zm0-4.54c2.74,0,5.16-.61,7.27-1.84,2.11-1.22,3.78-2.95,5-5.18,1.22-2.23,1.84-4.81,1.84-7.74s-.61-5.57-1.84-7.78c-1.22-2.21-2.89-3.92-5-5.15-2.11-1.22-4.51-1.84-7.2-1.84s-5.09.61-7.2,1.84c-2.11,1.22-3.79,2.94-5.04,5.15-1.25,2.21-1.87,4.8-1.87,7.78s.62,5.51,1.87,7.74c1.25,2.23,2.92,3.96,5,5.18,2.09,1.22,4.48,1.84,7.16,1.84Z"/>
        <path class="cls-9" d="m112.17,61.2V23.4h16.7c4.27,0,7.64.82,10.12,2.45,2.47,1.63,3.71,4.03,3.71,7.2s-1.18,5.44-3.53,7.09c-2.35,1.66-5.45,2.48-9.29,2.48l1.01-1.51c4.51,0,7.82.84,9.94,2.52,2.11,1.68,3.17,4.1,3.17,7.27s-1.19,5.8-3.56,7.6c-2.38,1.8-6.06,2.7-11.05,2.7h-17.21Zm4.97-21.02h11.38c2.93,0,5.17-.55,6.73-1.66,1.56-1.1,2.34-2.71,2.34-4.82s-.78-3.7-2.34-4.75c-1.56-1.06-3.8-1.58-6.73-1.58h-11.38v12.82Zm0,16.99h12.02c3.22,0,5.65-.52,7.31-1.55,1.66-1.03,2.48-2.7,2.48-5s-.75-3.98-2.23-5.04c-1.49-1.06-3.84-1.58-7.06-1.58h-12.53v13.18Z"/>
        <path class="cls-9" d="m170.93,61.27l-14.98-.07V23.4h5.11v13.18l10.8.14c4.75.05,8.38,1.1,10.87,3.17,2.5,2.06,3.74,5.04,3.74,8.93s-1.34,7.13-4.03,9.29c-2.69,2.16-6.53,3.22-11.52,3.17Zm-.36-3.89c3.55.05,6.23-.66,8.03-2.12,1.8-1.46,2.7-3.61,2.7-6.44s-.89-4.91-2.66-6.23c-1.78-1.32-4.46-2-8.06-2.05l-9.5-.14v16.85l9.5.14Zm22.25,3.82V23.4h5.11v37.8h-5.11Z"/>
        <path class="cls-9" d="m228.67,61.56c-3.94,0-7.39-.83-10.37-2.48-2.98-1.66-5.3-3.94-6.98-6.84-1.68-2.9-2.52-6.23-2.52-9.97s.8-7.06,2.41-9.94c1.61-2.88,3.82-5.15,6.62-6.8,2.81-1.66,5.96-2.48,9.47-2.48s6.71.8,9.47,2.41c2.76,1.61,4.93,3.86,6.52,6.77,1.58,2.9,2.38,6.25,2.38,10.04,0,.24-.01.49-.04.76-.02.26-.04.54-.04.83h-32.9v-3.82h30.17l-2.02,1.51c0-2.74-.59-5.17-1.76-7.31-1.18-2.14-2.77-3.8-4.79-5-2.02-1.2-4.34-1.8-6.98-1.8s-4.92.6-6.98,1.8c-2.06,1.2-3.67,2.88-4.82,5.04-1.15,2.16-1.73,4.63-1.73,7.42v.79c0,2.88.64,5.41,1.91,7.6,1.27,2.18,3.05,3.89,5.33,5.11,2.28,1.22,4.88,1.84,7.81,1.84,2.3,0,4.45-.41,6.44-1.22,1.99-.82,3.71-2.06,5.15-3.74l2.88,3.31c-1.68,2.02-3.78,3.55-6.3,4.61-2.52,1.06-5.29,1.58-8.32,1.58Z"/>
        <path class="cls-9" d="m275.83,61.2V23.4h16.7c4.27,0,7.64.82,10.12,2.45,2.47,1.63,3.71,4.03,3.71,7.2s-1.18,5.44-3.53,7.09c-2.35,1.66-5.45,2.48-9.29,2.48l1.01-1.51c4.51,0,7.82.84,9.94,2.52,2.11,1.68,3.17,4.1,3.17,7.27s-1.19,5.8-3.56,7.6c-2.38,1.8-6.06,2.7-11.05,2.7h-17.21Zm4.97-21.02h11.38c2.93,0,5.17-.55,6.73-1.66,1.56-1.1,2.34-2.71,2.34-4.82s-.78-3.7-2.34-4.75c-1.56-1.06-3.8-1.58-6.73-1.58h-11.38v12.82Zm0,16.99h12.02c3.22,0,5.65-.52,7.31-1.55,1.66-1.03,2.48-2.7,2.48-5s-.75-3.98-2.23-5.04c-1.49-1.06-3.84-1.58-7.06-1.58h-12.53v13.18Z"/>
        <path class="cls-9" d="m335.16,61.56c-3.7,0-6.98-.83-9.86-2.48-2.88-1.66-5.16-3.95-6.84-6.88-1.68-2.93-2.52-6.24-2.52-9.94s.84-7.13,2.52-10.01c1.68-2.88,3.96-5.14,6.84-6.77,2.88-1.63,6.17-2.45,9.86-2.45s7.07.83,9.97,2.48c2.9,1.66,5.18,3.91,6.84,6.77,1.66,2.86,2.48,6.18,2.48,9.97s-.83,7.07-2.48,9.97c-1.66,2.9-3.95,5.18-6.88,6.84-2.93,1.66-6.24,2.48-9.94,2.48Zm0-4.54c2.74,0,5.16-.61,7.27-1.84,2.11-1.22,3.78-2.95,5-5.18,1.22-2.23,1.84-4.81,1.84-7.74s-.61-5.57-1.84-7.78c-1.22-2.21-2.89-3.92-5-5.15-2.11-1.22-4.51-1.84-7.2-1.84s-5.09.61-7.2,1.84c-2.11,1.22-3.79,2.94-5.04,5.15-1.25,2.21-1.87,4.8-1.87,7.78s.62,5.51,1.87,7.74c1.25,2.23,2.92,3.96,5,5.18,2.09,1.22,4.48,1.84,7.16,1.84Z"/>
        <path class="cls-9" d="m375.55,61.63c-2.74,0-5.45-.38-8.14-1.15-2.69-.77-5.06-1.94-7.13-3.53l1.66-3.82c1.82,1.34,3.94,2.36,6.34,3.06,2.4.7,4.78,1.04,7.13,1.04,2.35-.05,4.39-.38,6.12-1.01,1.73-.62,3.07-1.49,4.03-2.59.96-1.1,1.44-2.35,1.44-3.74,0-2.02-.91-3.59-2.74-4.72-1.83-1.13-4.32-1.69-7.49-1.69h-7.56v-3.74h7.2c1.87,0,3.53-.24,4.97-.72,1.44-.48,2.56-1.18,3.35-2.09.79-.91,1.19-1.99,1.19-3.24,0-1.34-.47-2.5-1.4-3.46-.94-.96-2.22-1.68-3.85-2.16-1.63-.48-3.48-.72-5.54-.72-1.87.05-3.82.32-5.83.83-2.02.5-4.01,1.26-5.98,2.27l-1.44-3.96c2.21-1.15,4.4-2.03,6.59-2.63,2.18-.6,4.38-.9,6.59-.9,3.02-.1,5.75.26,8.17,1.08,2.42.82,4.36,1.98,5.8,3.49,1.44,1.51,2.16,3.32,2.16,5.44,0,1.87-.58,3.5-1.73,4.9-1.15,1.39-2.69,2.47-4.61,3.24-1.92.77-4.1,1.15-6.55,1.15l.22-1.37c4.32,0,7.69.84,10.12,2.52,2.42,1.68,3.64,3.96,3.64,6.84,0,2.26-.74,4.24-2.23,5.94-1.49,1.7-3.49,3.04-6.01,4-2.52.96-5.34,1.44-8.46,1.44Z"/>
        <path class="cls-9" d="m403.84,61.2V23.4h5.18l17.14,29.02h-2.16l17.42-29.02h4.75v37.8h-4.68v-31.97l.94.43-16.27,26.93h-2.3l-16.42-27.22,1.08-.22v32.04h-4.68Z"/>
        <path class="cls-9" d="m476.27,61.56c-3.7,0-6.98-.83-9.86-2.48-2.88-1.66-5.16-3.95-6.84-6.88-1.68-2.93-2.52-6.24-2.52-9.94s.84-7.13,2.52-10.01c1.68-2.88,3.96-5.14,6.84-6.77,2.88-1.63,6.17-2.45,9.86-2.45s7.07.83,9.97,2.48c2.9,1.66,5.18,3.91,6.84,6.77,1.66,2.86,2.48,6.18,2.48,9.97s-.83,7.07-2.48,9.97c-1.66,2.9-3.95,5.18-6.88,6.84-2.93,1.66-6.24,2.48-9.94,2.48Zm0-4.54c2.74,0,5.16-.61,7.27-1.84,2.11-1.22,3.78-2.95,5-5.18,1.22-2.23,1.84-4.81,1.84-7.74s-.61-5.57-1.84-7.78c-1.22-2.21-2.89-3.92-5-5.15-2.11-1.22-4.51-1.84-7.2-1.84s-5.09.61-7.2,1.84c-2.11,1.22-3.79,2.94-5.04,5.15-1.25,2.21-1.87,4.8-1.87,7.78s.62,5.51,1.87,7.74c1.25,2.23,2.92,3.96,5,5.18,2.09,1.22,4.48,1.84,7.16,1.84Z"/>
        <path class="cls-9" d="m499.03,61.2l14.83-21.24,4.18,2.52-12.89,18.72h-6.12Zm14.4-18.36l-13.32-19.44h5.54l12.53,18.72-4.75.72Zm1.22,1.51v-4.39h11.88v4.39h-11.88Zm10.3,16.85V23.4h5.11v37.8h-5.11Zm3.53-16.85v-4.39h11.95v4.39h-11.95Zm13.25-1.51l-4.9-.72,12.6-18.72h5.54l-13.25,19.44Zm8.21,18.36l-12.96-18.72,4.25-2.52,14.83,21.24h-6.12Z"/>
        <path class="cls-9" d="m564.54,61.2V23.4h5.11v16.7h23.83v-16.7h5.11v37.8h-5.11v-16.7h-23.83v16.7h-5.11Z"/>
        <path class="cls-9" d="m628.7,61.56c-3.7,0-6.98-.83-9.86-2.48-2.88-1.66-5.16-3.95-6.84-6.88-1.68-2.93-2.52-6.24-2.52-9.94s.84-7.13,2.52-10.01c1.68-2.88,3.96-5.14,6.84-6.77,2.88-1.63,6.17-2.45,9.86-2.45s7.07.83,9.97,2.48c2.9,1.66,5.18,3.91,6.84,6.77,1.66,2.86,2.48,6.18,2.48,9.97s-.83,7.07-2.48,9.97c-1.66,2.9-3.95,5.18-6.88,6.84-2.93,1.66-6.24,2.48-9.94,2.48Zm0-4.54c2.74,0,5.16-.61,7.27-1.84,2.11-1.22,3.78-2.95,5-5.18,1.22-2.23,1.84-4.81,1.84-7.74s-.61-5.57-1.84-7.78c-1.22-2.21-2.89-3.92-5-5.15-2.11-1.22-4.51-1.84-7.2-1.84s-5.09.61-7.2,1.84c-2.11,1.22-3.79,2.94-5.04,5.15-1.25,2.21-1.87,4.8-1.87,7.78s.62,5.51,1.87,7.74c1.25,2.23,2.92,3.96,5,5.18,2.09,1.22,4.48,1.84,7.16,1.84Z"/>
        <path class="cls-9" d="m674.77,61.56c-3.74,0-7.09-.83-10.04-2.48-2.95-1.66-5.27-3.94-6.95-6.84-1.68-2.9-2.52-6.23-2.52-9.97s.84-7.13,2.52-10.01c1.68-2.88,4-5.14,6.95-6.77,2.95-1.63,6.3-2.45,10.04-2.45,3.22,0,6.12.62,8.71,1.87,2.59,1.25,4.63,3.12,6.12,5.62l-3.82,2.59c-1.3-1.92-2.9-3.34-4.82-4.25-1.92-.91-4.01-1.37-6.26-1.37-2.69,0-5.11.61-7.27,1.84-2.16,1.22-3.86,2.94-5.11,5.15-1.25,2.21-1.87,4.8-1.87,7.78s.62,5.57,1.87,7.78c1.25,2.21,2.95,3.92,5.11,5.15,2.16,1.22,4.58,1.84,7.27,1.84,2.26,0,4.34-.46,6.26-1.37,1.92-.91,3.53-2.3,4.82-4.18l3.82,2.59c-1.49,2.45-3.53,4.31-6.12,5.58-2.59,1.27-5.5,1.91-8.71,1.91Z"/>
        <path class="cls-9" d="m705.59,61.2V26.5l1.3,1.37h-15.62v-4.46h33.77v4.46h-15.62l1.3-1.37v34.7h-5.11Z"/>
        <path class="cls-9" d="m732.45,61.2V23.4h5.11v30.02l25.27-30.02h4.54v37.8h-5.11v-30.1l-25.2,30.1h-4.61Z"/>
        <path class="cls-9" d="m7.27,133.2v-37.8h5.11v37.8h-5.11Zm3.53-16.85v-4.39h12.17v4.39h-12.17Zm13.32-1.51l-4.75-.72,15.05-18.72h5.54l-15.84,19.44Zm10.87,18.36l-15.55-18.72,4.25-2.52,17.35,21.24h-6.05Z"/>
        <path class="cls-9" d="m58.82,133.56c-2.83,0-5.29-.47-7.38-1.4s-3.68-2.23-4.79-3.89c-1.1-1.66-1.66-3.56-1.66-5.72,0-1.97.47-3.76,1.4-5.36.94-1.61,2.47-2.9,4.61-3.89,2.14-.98,5-1.48,8.6-1.48h13.03v3.82h-12.89c-3.65,0-6.18.65-7.6,1.94-1.42,1.3-2.12,2.9-2.12,4.82,0,2.16.84,3.89,2.52,5.18,1.68,1.3,4.03,1.94,7.06,1.94s5.36-.66,7.45-1.98c2.09-1.32,3.61-3.23,4.57-5.72l1.15,3.53c-.96,2.5-2.63,4.49-5,5.98-2.38,1.49-5.36,2.23-8.96,2.23Zm13.03-.36v-8.35l-.22-1.37v-13.97c0-3.22-.9-5.69-2.7-7.42-1.8-1.73-4.48-2.59-8.03-2.59-2.45,0-4.78.41-6.98,1.22-2.21.82-4.08,1.9-5.62,3.24l-2.3-3.82c1.92-1.63,4.22-2.89,6.91-3.78,2.69-.89,5.52-1.33,8.5-1.33,4.9,0,8.68,1.21,11.34,3.64,2.66,2.42,4,6.11,4,11.05v23.47h-4.9Z"/>
        <path class="cls-9" d="m90.36,147.17v-51.77h4.9v11.38l-.5,7.56.72,7.63v25.2h-5.11Zm19.51-13.61c-3.27,0-6.22-.76-8.86-2.27-2.64-1.51-4.74-3.7-6.3-6.55-1.56-2.86-2.34-6.35-2.34-10.48s.77-7.62,2.3-10.48c1.54-2.85,3.62-5.03,6.26-6.52,2.64-1.49,5.62-2.23,8.93-2.23,3.6,0,6.83.8,9.68,2.41,2.86,1.61,5.1,3.86,6.73,6.77,1.63,2.9,2.45,6.25,2.45,10.04s-.82,7.2-2.45,10.08c-1.63,2.88-3.88,5.14-6.73,6.77-2.86,1.63-6.08,2.45-9.68,2.45Zm-.36-4.54c2.69,0,5.09-.61,7.2-1.84,2.11-1.22,3.79-2.95,5.04-5.18,1.25-2.23,1.87-4.81,1.87-7.74s-.62-5.5-1.87-7.7c-1.25-2.21-2.93-3.94-5.04-5.18-2.11-1.25-4.51-1.87-7.2-1.87s-5.1.62-7.24,1.87c-2.14,1.25-3.82,2.98-5.04,5.18-1.22,2.21-1.84,4.78-1.84,7.7s.61,5.51,1.84,7.74c1.22,2.23,2.9,3.96,5.04,5.18,2.14,1.22,4.55,1.84,7.24,1.84Z"/>
        <path class="cls-9" d="m145.51,133.2v-34.7l1.3,1.37h-15.62v-4.46h33.77v4.46h-15.62l1.3-1.37v34.7h-5.11Z"/>
        <path class="cls-9" d="m187.34,133.27l-14.98-.07v-37.8h5.11v13.18l10.8.14c4.75.05,8.38,1.1,10.87,3.17,2.5,2.06,3.74,5.04,3.74,8.93s-1.34,7.13-4.03,9.29c-2.69,2.16-6.53,3.22-11.52,3.17Zm-.36-3.89c3.55.05,6.23-.66,8.03-2.12,1.8-1.46,2.7-3.61,2.7-6.44s-.89-4.91-2.66-6.23c-1.78-1.32-4.46-2-8.06-2.05l-9.5-.14v16.85l9.5.14Zm22.25,3.82v-37.8h5.11v37.8h-5.11Z"/>
        <path class="cls-9" d="m259.27,133.2l-12.31-50.4h5.47l11.45,47.38h-3.24l30.6-47.38h5.62l-32.4,50.4h-5.18Z"/>
        <path class="cls-9" d="m294.12,133.2l10.08-50.4h5.26l-10.08,50.4h-5.26Z"/>
        <path class="cls-9" d="m330.55,133.63c-2.45,0-4.86-.28-7.24-.83s-4.52-1.32-6.44-2.3c-1.92-.98-3.46-2.08-4.61-3.28l2.59-4.18c1.15,1.2,2.58,2.26,4.28,3.17,1.7.91,3.59,1.62,5.65,2.12,2.06.5,4.13.76,6.19.76,2.98,0,5.58-.38,7.81-1.15,2.23-.77,3.97-1.9,5.22-3.38,1.25-1.49,1.87-3.29,1.87-5.4,0-1.68-.48-3.04-1.44-4.07-.96-1.03-2.21-1.87-3.74-2.52-1.54-.65-3.24-1.24-5.11-1.76-1.87-.53-3.74-1.1-5.62-1.73-1.87-.62-3.59-1.39-5.15-2.3-1.56-.91-2.81-2.11-3.74-3.6-.94-1.49-1.4-3.36-1.4-5.62,0-3.17.86-5.89,2.59-8.17,1.73-2.28,4.1-4.02,7.13-5.22,3.02-1.2,6.5-1.8,10.44-1.8,2.98,0,5.84.36,8.6,1.08,2.76.72,5.1,1.8,7.02,3.24l-2.23,4.32c-1.82-1.34-3.91-2.36-6.26-3.06-2.35-.7-4.82-1.04-7.42-1.04-2.93,0-5.5.41-7.7,1.22-2.21.82-3.92,1.98-5.15,3.49-1.22,1.51-1.84,3.32-1.84,5.44,0,1.68.47,3.05,1.4,4.1.94,1.06,2.18,1.92,3.74,2.59,1.56.67,3.28,1.29,5.15,1.84,1.87.55,3.74,1.13,5.62,1.73,1.87.6,3.59,1.34,5.15,2.23,1.56.89,2.82,2.04,3.78,3.46.96,1.42,1.44,3.23,1.44,5.44,0,3.22-.89,5.96-2.66,8.24-1.78,2.28-4.21,4.01-7.31,5.18-3.1,1.18-6.64,1.76-10.62,1.76Z"/>
        <path class="cls-9" d="m352.08,133.2l33.12-50.4h5.26l12.96,50.4h-5.33l-11.81-47.45h2.16l-30.6,47.45h-5.76Zm11.74-13.46l2.45-4.32h29.3l.79,4.32h-32.54Z"/>
      </g>
    </g>
  </g>
</svg>