<?xml version="1.0" encoding="UTF-8"?>
<svg id="Layer_2" data-name="Layer 2" xmlns="http://www.w3.org/2000/svg" xmlns:xlink="http://www.w3.org/1999/xlink" viewBox="0 0 774.71 165.82">
  <defs>
    <style>
      .cls-1 {
        fill: url(#linear-gradient-2);
      }

      .cls-2 {
        fill: url(#linear-gradient-17);
      }

      .cls-3 {
        fill: url(#linear-gradient-15);
      }

      .cls-4 {
        fill: url(#linear-gradient-18);
      }

      .cls-5 {
        fill: url(#linear-gradient-28);
      }

      .cls-6 {
        fill: url(#linear-gradient-14);
      }

      .cls-7 {
        fill: url(#linear-gradient-20);
      }

      .cls-8 {
        fill: url(#linear-gradient-6);
      }

      .cls-9 {
        fill: url(#linear-gradient-11);
      }

      .cls-10 {
        fill: url(#linear-gradient-10);
      }

      .cls-11 {
        fill: url(#linear-gradient-16);
      }

      .cls-12 {
        fill: url(#linear-gradient-21);
      }

      .cls-13 {
        fill: url(#linear-gradient-25);
      }

      .cls-14 {
        fill: url(#linear-gradient-5);
      }

      .cls-15 {
        fill: url(#linear-gradient-7);
      }

      .cls-16 {
        fill: url(#linear-gradient-24);
      }

      .cls-17 {
        fill: url(#linear-gradient-9);
      }

      .cls-18 {
        fill: url(#linear-gradient-22);
      }

      .cls-19 {
        fill: url(#linear-gradient-3);
      }

      .cls-20 {
        fill: url(#linear-gradient);
      }

      .cls-21 {
        fill: url(#linear-gradient-27);
      }

      .cls-22 {
        fill: url(#linear-gradient-29);
      }

      .cls-23 {
        fill: url(#linear-gradient-23);
      }

      .cls-24 {
        fill: url(#linear-gradient-19);
      }

      .cls-25 {
        fill: url(#linear-gradient-4);
      }

      .cls-26 {
        fill: url(#linear-gradient-8);
      }

      .cls-27 {
        fill: url(#linear-gradient-12);
      }

      .cls-28 {
        fill: url(#linear-gradient-13);
      }

      .cls-29 {
        fill: url(#linear-gradient-26);
      }
    </style>
    <linearGradient id="linear-gradient" x1="-274.39" y1="36" x2="349.21" y2="36" gradientUnits="userSpaceOnUse">
      <stop offset="0" stop-color="#09b188"/>
      <stop offset=".12" stop-color="#079d78"/>
      <stop offset=".34" stop-color="#048261"/>
      <stop offset=".56" stop-color="#026e51"/>
      <stop offset=".77" stop-color="#016248"/>
      <stop offset="1" stop-color="#015f45"/>
    </linearGradient>
    <linearGradient id="linear-gradient-2" x1="-195.92" y1="42.29" x2="374.23" y2="42.29" xlink:href="#linear-gradient"/>
    <linearGradient id="linear-gradient-3" x1="-101.61" y1="42.3" x2="369.64" y2="42.3" xlink:href="#linear-gradient"/>
    <linearGradient id="linear-gradient-4" x1="158.5" y1="42.3" x2="234.15" y2="42.3" xlink:href="#linear-gradient"/>
    <linearGradient id="linear-gradient-5" x1="-49.03" y1="42.34" x2="402.83" y2="42.34" xlink:href="#linear-gradient"/>
    <linearGradient id="linear-gradient-6" x1="-38.83" y1="42.32" x2="507.04" y2="42.32" xlink:href="#linear-gradient"/>
    <linearGradient id="linear-gradient-7" x1="62.05" y1="42.3" x2="533.3" y2="42.3" xlink:href="#linear-gradient"/>
    <linearGradient id="linear-gradient-8" x1="57.3" y1="42.29" x2="627.45" y2="42.29" xlink:href="#linear-gradient"/>
    <linearGradient id="linear-gradient-9" x1="145.36" y1="42.29" x2="619.13" y2="42.29" xlink:href="#linear-gradient"/>
    <linearGradient id="linear-gradient-10" x1="119.54" y1="42.3" x2="746.25" y2="42.3" xlink:href="#linear-gradient"/>
    <linearGradient id="linear-gradient-11" x1="198.41" y1="42.29" x2="768.56" y2="42.29" xlink:href="#linear-gradient"/>
    <linearGradient id="linear-gradient-12" x1="116.01" y1="42.3" x2="960.35" y2="42.3" xlink:href="#linear-gradient"/>
    <linearGradient id="linear-gradient-13" x1="335.85" y1="42.3" x2="839.97" y2="42.3" xlink:href="#linear-gradient"/>
    <linearGradient id="linear-gradient-14" x1="350.84" y1="42.29" x2="920.99" y2="42.29" xlink:href="#linear-gradient"/>
    <linearGradient id="linear-gradient-15" x1="424.63" y1="42.3" x2="933.04" y2="42.3" xlink:href="#linear-gradient"/>
    <linearGradient id="linear-gradient-16" x1="464.46" y1="42.3" x2="964.44" y2="42.3" xlink:href="#linear-gradient"/>
    <linearGradient id="linear-gradient-17" x1="497.92" y1="42.3" x2="1014.92" y2="42.3" xlink:href="#linear-gradient"/>
    <linearGradient id="linear-gradient-18" x1="-219.54" y1="114.3" x2="280.44" y2="114.3" xlink:href="#linear-gradient"/>
    <linearGradient id="linear-gradient-19" x1="58.74" y1="133.56" x2="58.89" y2="133.56" xlink:href="#linear-gradient"/>
    <linearGradient id="linear-gradient-20" x1="-168.32" y1="114.29" x2="301.9" y2="114.29" xlink:href="#linear-gradient"/>
    <linearGradient id="linear-gradient-21" x1="-167.27" y1="121.1" x2="400.65" y2="121.1" xlink:href="#linear-gradient"/>
    <linearGradient id="linear-gradient-22" x1="-95.62" y1="114.3" x2="404.36" y2="114.3" xlink:href="#linear-gradient"/>
    <linearGradient id="linear-gradient-23" x1="174.91" y1="114.3" x2="250.57" y2="114.3" xlink:href="#linear-gradient"/>
    <linearGradient id="linear-gradient-24" x1="-32.62" y1="114.34" x2="419.24" y2="114.34" xlink:href="#linear-gradient"/>
    <linearGradient id="linear-gradient-25" x1="-88.18" y1="108" x2="650.6" y2="108" xlink:href="#linear-gradient"/>
    <linearGradient id="linear-gradient-26" x1="191.09" y1="108" x2="418.21" y2="108" xlink:href="#linear-gradient"/>
    <linearGradient id="linear-gradient-27" x1="330.47" y1="133.63" x2="330.62" y2="133.63" xlink:href="#linear-gradient"/>
    <linearGradient id="linear-gradient-28" x1="22.19" y1="108" x2="661.63" y2="108" xlink:href="#linear-gradient"/>
    <linearGradient id="linear-gradient-29" x1="7.27" y1="108" x2="767.37" y2="108" xlink:href="#linear-gradient"/>
  </defs>
  <polygon class="cls-20" points="13.83 37.94 45.36 37.94 45.36 61.2 50.62 61.2 50.62 10.8 45.36 10.8 45.36 33.26 13.83 33.26 13.83 10.8 8.5 10.8 8.5 61.2 13.83 61.2 13.83 37.94"/>
  <path class="cls-1" d="m91.87,59.06c2.93-1.66,5.22-3.94,6.88-6.84,1.65-2.9,2.48-6.18,2.48-9.97s-.82-7.11-2.48-9.97c-1.66-2.86-3.94-5.11-6.84-6.77-2.9-1.65-6.28-2.48-9.97-2.48s-6.98.82-9.86,2.45-5.16,3.89-6.84,6.77-2.52,6.31-2.52,10.01.84,7.01,2.52,9.94,3.96,5.22,6.84,6.88c2.88,1.65,6.16,2.48,9.86,2.48v-.02c3.69,0,7-.82,9.93-2.48Zm-22.1-9.06c-1.25-2.23-1.87-4.76-1.87-7.74s.62-5.57,1.87-7.78c1.25-2.21,2.93-3.93,5.04-5.15,2.11-1.23,4.51-1.84,7.2-1.84s5.09.62,7.2,1.84c2.11,1.23,3.78,2.94,5,5.15,1.23,2.21,1.84,4.85,1.84,7.78s-.62,5.51-1.84,7.74c-1.22,2.23-2.89,3.96-5,5.18-2.11,1.23-4.53,1.84-7.27,1.84h-.01c-2.68,0-5.07-.62-7.16-1.84-2.08-1.22-3.75-2.95-5-5.18Z"/>
  <path class="cls-19" d="m144,50.9c0-3.17-1.06-5.59-3.17-7.27-1.16-.92-2.69-1.58-4.57-2,1.07-.38,2.04-.88,2.91-1.49,2.35-1.65,3.53-3.92,3.53-7.09s-1.24-5.57-3.71-7.2c-2.48-1.63-5.85-2.45-10.12-2.45h-16.7v37.8h17.22c4.99,0,8.67-.9,11.05-2.7,2.37-1.8,3.56-4.43,3.56-7.6Zm-26.86-23.53h11.38c2.93,0,5.17.52,6.73,1.58,1.56,1.05,2.34,2.64,2.34,4.75s-.78,3.72-2.34,4.82c-1.56,1.11-3.8,1.66-6.73,1.66h-11.38v-12.81Zm19.33,28.25c-1.66,1.03-4.09,1.55-7.31,1.55h-12.03s0-13.17,0-13.17h12.53c3.22,0,5.57.52,7.06,1.58,1.48,1.06,2.23,2.74,2.23,5.04s-.82,3.97-2.48,5Z"/>
  <rect class="cls-25" x="192.82" y="23.4" width="5.11" height="37.8"/>
  <path class="cls-14" d="m182.44,58.11c2.69-2.16,4.03-5.4,4.03-9.29s-1.24-6.87-3.74-8.93c-2.49-2.07-6.12-3.12-10.87-3.17l-10.8-.14v-13.18h-5.11v37.8l14.98.07h-.01c4.99.06,8.83-1,11.52-3.16Zm-11.86-.72l-9.5-.14v-16.85l9.5.14c3.6.05,6.28.73,8.06,2.05,1.77,1.32,2.66,3.4,2.66,6.23s-.9,4.98-2.7,6.44c-1.8,1.46-4.48,2.17-8.03,2.12h.01Z"/>
  <path class="cls-8" d="m236.77,25.46c-2.76-1.61-5.96-2.41-9.47-2.41s-6.66.82-9.47,2.48c-2.8,1.65-5.01,3.92-6.62,6.8s-2.41,6.2-2.41,9.94.84,7.07,2.52,9.97c1.68,2.9,4,5.18,6.98,6.84,2.98,1.65,6.43,2.48,10.37,2.48v.02c3.04,0,5.81-.52,8.33-1.58s4.62-2.59,6.3-4.61l-2.88-3.31c-1.44,1.68-3.16,2.92-5.15,3.74-1.99.81-4.14,1.22-6.44,1.22-2.93,0-5.53-.62-7.81-1.84-2.28-1.22-4.06-2.93-5.33-5.11-1.06-1.83-1.68-3.91-1.85-6.23h31.75c0-.29.02-.57.04-.83.03-.27.04-.52.04-.76,0-3.79-.8-7.14-2.38-10.04-1.59-2.91-3.76-5.16-6.52-6.77Zm-21.26,8.82c1.15-2.16,2.76-3.84,4.82-5.04s4.34-1.8,6.98-1.8,4.96.6,6.98,1.8,3.61,2.86,4.79,5c.95,1.74,1.5,3.67,1.68,5.8h-26.89c.19-2.12.73-4.04,1.64-5.76Z"/>
  <path class="cls-15" d="m293.05,61.2c4.99,0,8.67-.9,11.05-2.7,2.37-1.8,3.56-4.43,3.56-7.6s-1.06-5.59-3.17-7.27c-1.16-.92-2.69-1.58-4.57-2,1.07-.38,2.04-.88,2.91-1.49,2.35-1.65,3.53-3.92,3.53-7.09s-1.24-5.57-3.71-7.2c-2.48-1.63-5.85-2.45-10.12-2.45h-16.7v37.8h17.22Zm-12.25-33.83h11.38c2.93,0,5.17.52,6.73,1.58,1.56,1.05,2.34,2.64,2.34,4.75s-.78,3.72-2.34,4.82c-1.56,1.11-3.8,1.66-6.73,1.66h-11.38v-12.81Zm-.01,16.63h12.53c3.22,0,5.57.52,7.06,1.58,1.48,1.06,2.23,2.74,2.23,5.04s-.82,3.97-2.48,5c-1.66,1.03-4.09,1.55-7.31,1.55h-12.03s0-13.17,0-13.17Z"/>
  <path class="cls-26" d="m325.3,59.08c2.88,1.65,6.16,2.48,9.86,2.48v-.02c3.69,0,7-.82,9.93-2.48s5.22-3.94,6.88-6.84c1.65-2.9,2.48-6.18,2.48-9.97s-.82-7.11-2.48-9.97c-1.66-2.86-3.94-5.11-6.84-6.77-2.9-1.65-6.28-2.48-9.97-2.48s-6.98.82-9.86,2.45-5.16,3.89-6.84,6.77-2.52,6.31-2.52,10.01.84,7.01,2.52,9.94,3.96,5.22,6.84,6.88Zm-2.31-24.6c1.25-2.21,2.93-3.93,5.04-5.15,2.11-1.23,4.51-1.84,7.2-1.84s5.09.62,7.2,1.84c2.11,1.23,3.78,2.94,5,5.15,1.23,2.21,1.84,4.85,1.84,7.78s-.62,5.51-1.84,7.74c-1.22,2.23-2.89,3.96-5,5.18-2.11,1.23-4.53,1.84-7.27,1.84h-.01c-2.68,0-5.07-.62-7.16-1.84-2.08-1.22-3.75-2.95-5-5.18s-1.87-4.76-1.87-7.74.62-5.57,1.87-7.78Z"/>
  <path class="cls-17" d="m381.53,56.22c-1.73.63-3.77.96-6.12,1.01-2.35,0-4.73-.34-7.13-1.04-2.4-.7-4.52-1.72-6.34-3.06l-1.66,3.82c2.07,1.59,4.44,2.76,7.13,3.53,2.69.77,5.4,1.15,8.14,1.15h.03c3.12,0,5.94-.48,8.46-1.44s4.52-2.3,6.01-4,2.23-3.68,2.23-5.94c0-2.88-1.22-5.16-3.64-6.84-1.31-.9-2.9-1.56-4.75-1.97.32-.1.65-.2.96-.33,1.92-.77,3.46-1.85,4.61-3.24,1.15-1.4,1.73-3.03,1.73-4.9,0-2.12-.72-3.93-2.16-5.44-1.44-1.51-3.38-2.67-5.8-3.49-2.42-.82-5.15-1.18-8.17-1.08-2.21,0-4.41.3-6.59.9-2.19.6-4.38,1.48-6.59,2.63l1.44,3.96c1.97-1.01,3.96-1.77,5.98-2.27,2.01-.51,3.96-.78,5.83-.83,2.06,0,3.91.24,5.54.72s2.91,1.2,3.85,2.16c.93.96,1.4,2.12,1.4,3.46,0,1.25-.4,2.33-1.19,3.24-.79.91-1.91,1.61-3.35,2.09-1.44.48-3.1.72-4.97.72h-7.2v3.74h7.56c3.17,0,5.66.56,7.49,1.69,1.83,1.13,2.74,2.7,2.74,4.72,0,1.39-.48,2.64-1.44,3.74-.96,1.1-2.3,1.97-4.03,2.59Z"/>
  <polygon class="cls-10" points="425.09 50.61 409.02 23.4 403.84 23.4 403.84 61.19 408.52 61.19 408.52 31.16 423.86 56.59 426.16 56.59 441.49 31.22 441.49 61.2 446.17 61.2 446.17 23.4 441.42 23.4 425.09 50.61"/>
  <path class="cls-9" d="m486.24,25.51c-2.9-1.65-6.28-2.48-9.97-2.48s-6.98.82-9.86,2.45-5.16,3.89-6.84,6.77-2.52,6.31-2.52,10.01.84,7.01,2.52,9.94,3.96,5.22,6.84,6.88c2.88,1.65,6.16,2.48,9.86,2.48v-.02c3.69,0,7-.82,9.93-2.48s5.22-3.94,6.88-6.84c1.65-2.9,2.48-6.18,2.48-9.97s-.82-7.11-2.48-9.97c-1.66-2.86-3.94-5.11-6.84-6.77Zm2.3,24.49c-1.22,2.23-2.89,3.96-5,5.18-2.11,1.23-4.53,1.84-7.27,1.84h-.01c-2.68,0-5.07-.62-7.16-1.84-2.08-1.22-3.75-2.95-5-5.18s-1.87-4.76-1.87-7.74.62-5.57,1.87-7.78c1.25-2.21,2.93-3.93,5.04-5.15,2.11-1.23,4.51-1.84,7.2-1.84s5.09.62,7.2,1.84c2.11,1.23,3.78,2.94,5,5.15,1.23,2.21,1.84,4.85,1.84,7.78s-.62,5.51-1.84,7.74Z"/>
  <path class="cls-27" d="m554.97,23.4h-5.54l-11.15,16.56h-8.22v-16.56h-5.11v16.56h-8.22l-11.08-16.56h-5.54l12.54,18.3-13.62,19.5h6.12l11.6-16.85h8.2v16.85h5.11v-16.85h8.21l11.67,16.85h6.12l-13.59-19.46,12.5-18.34Zm-13.24,19.44h-.01,0s0,0,0,0Z"/>
  <polygon class="cls-28" points="593.48 40.1 569.65 40.1 569.65 23.4 564.54 23.4 564.54 61.2 569.65 61.2 569.65 44.5 593.48 44.5 593.48 61.2 598.59 61.2 598.59 23.4 593.48 23.4 593.48 40.1"/>
  <path class="cls-6" d="m638.67,25.51c-2.9-1.65-6.28-2.48-9.97-2.48s-6.98.82-9.86,2.45-5.16,3.89-6.84,6.77-2.52,6.31-2.52,10.01.84,7.01,2.52,9.94c1.68,2.93,3.96,5.22,6.84,6.88,2.88,1.65,6.16,2.48,9.86,2.48v-.02c3.69,0,7-.82,9.93-2.48s5.22-3.94,6.88-6.84c1.65-2.9,2.48-6.18,2.48-9.97s-.82-7.11-2.48-9.97c-1.66-2.86-3.94-5.11-6.84-6.77Zm2.3,24.49c-1.22,2.23-2.89,3.96-5,5.18-2.11,1.23-4.53,1.84-7.27,1.84h-.01c-2.68,0-5.07-.62-7.16-1.84-2.08-1.22-3.75-2.95-5-5.18s-1.87-4.76-1.87-7.74.62-5.57,1.87-7.78c1.25-2.21,2.93-3.93,5.04-5.15,2.11-1.23,4.51-1.84,7.2-1.84s5.09.62,7.2,1.84c2.11,1.23,3.78,2.94,5,5.15,1.23,2.21,1.84,4.85,1.84,7.78s-.62,5.51-1.84,7.74Z"/>
  <path class="cls-3" d="m667.43,29.34c2.16-1.23,4.58-1.84,7.27-1.84,2.25,0,4.34.46,6.26,1.37,1.92.91,3.52,2.33,4.82,4.25l3.82-2.59c-1.49-2.5-3.53-4.37-6.12-5.62s-5.49-1.87-8.71-1.87c-3.74,0-7.09.82-10.04,2.45s-5.27,3.89-6.95,6.77-2.52,6.27-2.52,10.01.84,7.07,2.52,9.97c1.68,2.9,4,5.18,6.95,6.84,2.95,1.65,6.3,2.48,10.04,2.48h0c3.21.01,6.12-.63,8.71-1.9,2.59-1.27,4.63-3.13,6.12-5.58l-3.82-2.59c-1.29,1.88-2.9,3.27-4.82,4.18-1.92.91-4,1.37-6.26,1.37-2.69,0-5.11-.62-7.27-1.84-2.16-1.23-3.86-2.94-5.11-5.15-1.25-2.21-1.87-4.8-1.87-7.78s.62-5.57,1.87-7.78c1.25-2.21,2.95-3.93,5.11-5.15Z"/>
  <polygon class="cls-11" points="691.27 27.87 705.59 27.87 705.59 61.2 705.61 61.2 710.72 61.2 710.72 27.87 725.04 27.87 725.04 23.41 691.27 23.41 691.27 27.87"/>
  <polygon class="cls-2" points="762.83 23.4 737.56 53.42 737.56 23.4 732.45 23.4 732.45 61.2 737.06 61.2 762.26 31.1 762.26 61.2 767.37 61.2 767.37 23.4 762.83 23.4"/>
  <path class="cls-4" d="m39.96,95.4h-5.54l-13.31,16.56h-8.73v-16.56h-5.11v37.8h5.11v-16.85h8.61l14,16.85h6.05l-15.96-19.54,14.88-18.26Z"/>
  <polygon class="cls-24" points="58.82 133.56 58.82 133.56 58.81 133.56 58.82 133.56"/>
  <path class="cls-7" d="m61.41,95.03c-2.98,0-5.81.44-8.5,1.33-2.69.89-4.99,2.15-6.91,3.78l2.3,3.82c1.54-1.34,3.41-2.42,5.62-3.24,2.2-.81,4.53-1.22,6.98-1.22,3.55,0,6.23.86,8.03,2.59,1.8,1.73,2.7,4.2,2.7,7.42v2.31h-12.03c-3.6,0-6.46.5-8.6,1.48-2.14.99-3.67,2.28-4.61,3.89-.93,1.6-1.4,3.39-1.4,5.36,0,2.16.56,4.06,1.66,5.72,1.11,1.66,2.7,2.96,4.79,3.89,2.09.93,4.55,1.4,7.38,1.4,3.6,0,6.58-.74,8.95-2.23,1.74-1.09,3.1-2.46,4.08-4.1v5.96h4.9v-23.47c0-4.94-1.34-8.63-4-11.05-2.66-2.43-6.44-3.64-11.34-3.64Zm5.64,32.51c-2.09,1.32-4.42,1.98-7.45,1.98s-5.38-.64-7.06-1.94c-1.68-1.29-2.52-3.02-2.52-5.18,0-1.92.7-3.52,2.12-4.82,1.42-1.29,3.95-1.94,7.6-1.94h11.89v6.21-.03c-.97,2.49-2.49,4.4-4.58,5.72Z"/>
  <path class="cls-12" d="m119.54,97.44c-2.85-1.61-6.08-2.41-9.68-2.41-3.31,0-6.29.74-8.93,2.23-2.32,1.31-4.2,3.15-5.67,5.5v-7.36h-4.9v51.77h5.12v-21.16c1.46,2.23,3.3,4,5.53,5.28,2.64,1.51,5.59,2.27,8.86,2.27h0c3.6-.01,6.82-.83,9.68-2.46,2.85-1.63,5.1-3.89,6.73-6.77s2.45-6.29,2.45-10.08-.82-7.14-2.45-10.04c-1.63-2.91-3.87-5.16-6.73-6.77Zm2.21,24.56c-1.25,2.23-2.93,3.96-5.04,5.18-2.11,1.23-4.51,1.84-7.2,1.84s-5.1-.62-7.24-1.84c-2.14-1.22-3.82-2.95-5.04-5.18-1.23-2.23-1.84-4.82-1.84-7.74s.62-5.49,1.84-7.7c1.22-2.2,2.9-3.93,5.04-5.18s4.55-1.87,7.24-1.87,5.09.62,7.2,1.87c2.11,1.24,3.79,2.97,5.04,5.18,1.25,2.2,1.87,4.77,1.87,7.7s-.62,5.51-1.87,7.74Z"/>
  <polygon class="cls-18" points="131.19 99.87 145.51 99.87 145.51 133.2 145.53 133.2 150.64 133.2 150.64 99.87 164.96 99.87 164.96 95.41 131.19 95.41 131.19 99.87"/>
  <rect class="cls-23" x="209.23" y="95.4" width="5.11" height="37.8"/>
  <path class="cls-16" d="m199.14,111.89c-2.49-2.07-6.12-3.12-10.87-3.17l-10.8-.14v-13.18h-5.11v37.8l14.98.07h-.01c4.99.06,8.83-1,11.52-3.16s4.03-5.4,4.03-9.29-1.24-6.87-3.74-8.93Zm-4.13,15.37c-1.8,1.46-4.48,2.17-8.03,2.12h.01s-9.5-.13-9.5-.13v-16.85l9.5.14c3.6.05,6.28.73,8.06,2.05,1.77,1.32,2.66,3.4,2.66,6.23s-.9,4.98-2.7,6.44Z"/>
  <polygon class="cls-13" points="291.24 82.8 263 126.53 252.43 82.8 246.96 82.8 259.27 133.2 259.28 133.2 264.46 133.2 296.86 82.8 291.24 82.8"/>
  <polygon class="cls-29" points="294.12 133.2 299.38 133.2 309.46 82.8 304.2 82.8 294.12 133.2"/>
  <polygon class="cls-21" points="330.55 133.63 330.54 133.63 330.54 133.63 330.55 133.63"/>
  <path class="cls-5" d="m345.91,109.55c-1.56-.89-3.28-1.63-5.15-2.23-1.88-.6-3.75-1.18-5.62-1.73s-3.59-1.17-5.15-1.84c-1.56-.67-2.8-1.53-3.74-2.59-.93-1.05-1.4-2.42-1.4-4.1,0-2.12.62-3.93,1.84-5.44,1.23-1.51,2.94-2.67,5.15-3.49,2.2-.81,4.77-1.22,7.7-1.22,2.6,0,5.07.34,7.42,1.04,2.35.7,4.44,1.72,6.26,3.06l2.23-4.32c-1.92-1.44-4.26-2.52-7.02-3.24-2.76-.72-5.62-1.08-8.6-1.08-3.94,0-7.42.6-10.44,1.8-3.03,1.2-5.4,2.94-7.13,5.22-1.73,2.28-2.59,5-2.59,8.17,0,2.26.46,4.13,1.4,5.62.93,1.49,2.18,2.69,3.74,3.6,1.56.91,3.28,1.68,5.15,2.3,1.88.63,3.75,1.2,5.62,1.73,1.87.52,3.57,1.11,5.11,1.76,1.53.65,2.78,1.49,3.74,2.52.96,1.03,1.44,2.39,1.44,4.07,0,2.11-.62,3.91-1.87,5.4-1.25,1.48-2.99,2.61-5.22,3.38-2.23.77-4.83,1.15-7.81,1.15-2.06,0-4.13-.26-6.19-.76s-3.95-1.21-5.65-2.12c-1.7-.91-3.13-1.97-4.28-3.17l-2.59,4.18c1.15,1.2,2.69,2.3,4.61,3.28,1.92.98,4.06,1.75,6.44,2.3,2.38.55,4.79.83,7.23.83,3.98,0,7.52-.58,10.62-1.76,3.1-1.17,5.53-2.9,7.31-5.18,1.77-2.28,2.66-5.02,2.66-8.24,0-2.21-.48-4.02-1.44-5.44-.96-1.42-2.22-2.57-3.78-3.46Z"/>
  <path class="cls-22" d="m385.2,82.8l-33.12,50.4h5.76l8.68-13.46h28.22l3.35,13.46h5.33l-12.96-50.4h-5.26Zm-15.89,32.62l17.58-27.25,6.78,27.25h-24.36Z"/>
</svg>