<svg width="400" height="429" viewBox="0 0 400 429" fill="none" xmlns="http://www.w3.org/2000/svg">
<g filter="url(#filter0_dddd_451_49)">
<g clip-path="url(#clip0_451_49)">
<g filter="url(#filter1_b_451_49)">
<rect x="52" y="10" width="296" height="296" rx="24" fill="url(#paint0_linear_451_49)"/>
<rect x="53" y="11" width="294" height="294" rx="23" stroke="url(#paint1_linear_451_49)" stroke-width="2"/>
</g>
<path opacity="0.8" d="M203.538 199.608H199.337L199.283 201.517C199.192 203.535 198.983 205.127 198.656 206.29C198.31 207.509 197.765 208.445 197.019 209.1C196.292 209.736 195.282 210.073 193.991 210.109C193.318 210.109 192.836 210.027 192.546 209.864V206.727C192.746 206.8 193.009 206.836 193.337 206.836C194.228 206.836 194.819 206.254 195.11 205.09C195.382 204.054 195.528 202.49 195.546 200.399L195.628 196.389H207.384V210H203.538V199.608ZM217.799 210.355C215.671 210.355 213.88 209.7 212.425 208.391C210.971 207.081 210.243 205.345 210.243 203.181C210.243 201.162 210.898 199.471 212.207 198.107C213.516 196.725 215.226 196.034 217.335 196.034C219.299 196.034 220.872 196.734 222.054 198.135C223.236 199.535 223.827 201.235 223.827 203.235V204.245H214.062C214.262 205.154 214.762 205.854 215.562 206.345C216.38 206.836 217.399 207.081 218.617 207.081C220.126 207.081 221.581 206.681 222.981 205.881V208.963C221.763 209.891 220.036 210.355 217.799 210.355ZM214.062 201.79H220.036C219.999 201.008 219.717 200.362 219.19 199.853C218.681 199.326 218.008 199.062 217.171 199.062C216.317 199.062 215.608 199.317 215.044 199.826C214.48 200.317 214.153 200.971 214.062 201.79ZM233.408 210H229.562V199.608H225.307V196.389H237.718V199.608H233.408V210ZM197.728 248H193.882V234.389H197.728V239.435H203.32V234.389H207.166V248H203.32V242.654H197.728V248ZM223.887 245.027C224.214 245.027 224.478 244.972 224.678 244.863V247.673C224.187 248.055 223.496 248.245 222.605 248.245C221.059 248.245 220.032 247.664 219.522 246.5C218.322 247.736 216.758 248.355 214.831 248.355C213.34 248.355 212.13 247.936 211.203 247.1C210.276 246.263 209.812 245.163 209.812 243.799C209.812 242.345 210.339 241.235 211.394 240.472C212.449 239.708 213.712 239.326 215.185 239.326C216.731 239.326 218.04 239.608 219.113 240.172V239.762C219.113 238.053 217.913 237.198 215.513 237.198C214.04 237.198 212.667 237.58 211.394 238.344V235.125C212.776 234.398 214.458 234.034 216.44 234.034C218.404 234.034 219.968 234.507 221.132 235.453C222.332 236.398 222.932 237.708 222.932 239.381V243.99C222.932 244.681 223.25 245.027 223.887 245.027ZM219.113 243.99V242.626C218.313 242.099 217.367 241.835 216.276 241.835C215.458 241.835 214.803 241.99 214.312 242.299C213.84 242.608 213.603 243.045 213.603 243.608C213.603 244.19 213.822 244.636 214.258 244.945C214.694 245.236 215.285 245.381 216.031 245.381C217.377 245.381 218.404 244.918 219.113 243.99ZM242.637 234.034C244.492 234.034 246.02 234.725 247.22 236.107C248.438 237.453 249.047 239.153 249.047 241.208C249.047 243.227 248.438 244.927 247.22 246.309C246.02 247.673 244.492 248.355 242.637 248.355C240.728 248.355 239.237 247.682 238.164 246.336V253.455H234.318V234.389H238.164V236.053C239.182 234.707 240.673 234.034 242.637 234.034ZM241.546 237.389C240.819 237.389 240.155 237.58 239.555 237.962C238.955 238.344 238.491 238.835 238.164 239.435V242.981C238.491 243.581 238.955 244.072 239.555 244.454C240.155 244.818 240.819 245 241.546 245C242.637 245 243.519 244.636 244.192 243.908C244.883 243.163 245.229 242.263 245.229 241.208C245.229 240.135 244.883 239.226 244.192 238.48C243.519 237.753 242.637 237.389 241.546 237.389ZM269.548 248H265.756V234.389H269.548V248ZM258.691 248H251.872V234.389H255.718V238.371H258.5C260.21 238.371 261.574 238.808 262.592 239.681C263.61 240.553 264.119 241.717 264.119 243.172C264.119 244.554 263.647 245.709 262.701 246.636C261.737 247.545 260.401 248 258.691 248ZM255.718 241.235V245.027H257.9C258.646 245.027 259.228 244.863 259.646 244.536C260.064 244.209 260.273 243.745 260.273 243.145C260.273 242.545 260.064 242.081 259.646 241.754C259.228 241.408 258.646 241.235 257.9 241.235H255.718ZM277.161 248H273.315V234.389H277.161V239.435H282.753V234.389H286.599V248H282.753V242.654H277.161V248ZM294.209 248H290.363V234.389H294.209V239.353L298.901 234.389H303.62L297.701 240.526L304.547 248H299.583L294.209 242.135V248ZM312.309 248.355C310.181 248.355 308.39 247.7 306.935 246.391C305.481 245.081 304.753 243.345 304.753 241.181C304.753 239.162 305.408 237.471 306.717 236.107C308.026 234.725 309.736 234.034 311.845 234.034C313.809 234.034 315.382 234.734 316.564 236.135C317.746 237.535 318.337 239.235 318.337 241.235V242.245H308.572C308.772 243.154 309.272 243.854 310.072 244.345C310.891 244.836 311.909 245.081 313.127 245.081C314.637 245.081 316.091 244.681 317.492 243.881V246.963C316.273 247.891 314.546 248.355 312.309 248.355ZM308.572 239.79H314.546C314.509 239.008 314.227 238.362 313.7 237.853C313.191 237.326 312.518 237.062 311.682 237.062C310.827 237.062 310.118 237.317 309.554 237.826C308.99 238.317 308.663 238.971 308.572 239.79Z" fill="black"/>
<path d="M134.106 249H113.298L152.194 171.344H107.178V153.8H174.362V168.896L134.106 249Z" fill="black"/>
<line x1="265" y1="35.5" x2="323" y2="35.5" stroke="url(#paint2_linear_451_49)" stroke-width="3"/>
<line x1="323.5" y1="36" x2="323.5" y2="94" stroke="url(#paint3_linear_451_49)" stroke-width="3"/>
<line x1="324.061" y1="35.0607" x2="266.061" y2="93.0607" stroke="url(#paint4_linear_451_49)" stroke-width="3"/>
</g>
</g>
<defs>
<filter id="filter0_dddd_451_49" x="0" y="0" width="400" height="488" filterUnits="userSpaceOnUse" color-interpolation-filters="sRGB">
<feFlood flood-opacity="0" result="BackgroundImageFix"/>
<feColorMatrix in="SourceAlpha" type="matrix" values="0 0 0 0 0 0 0 0 0 0 0 0 0 0 0 0 0 0 127 0" result="hardAlpha"/>
<feOffset dy="8"/>
<feGaussianBlur stdDeviation="9"/>
<feColorMatrix type="matrix" values="0 0 0 0 0.596078 0 0 0 0 0.596078 0 0 0 0 0.596078 0 0 0 0.1 0"/>
<feBlend mode="normal" in2="BackgroundImageFix" result="effect1_dropShadow_451_49"/>
<feColorMatrix in="SourceAlpha" type="matrix" values="0 0 0 0 0 0 0 0 0 0 0 0 0 0 0 0 0 0 127 0" result="hardAlpha"/>
<feOffset dy="33"/>
<feGaussianBlur stdDeviation="16.5"/>
<feColorMatrix type="matrix" values="0 0 0 0 0.596078 0 0 0 0 0.596078 0 0 0 0 0.596078 0 0 0 0.09 0"/>
<feBlend mode="normal" in2="effect1_dropShadow_451_49" result="effect2_dropShadow_451_49"/>
<feColorMatrix in="SourceAlpha" type="matrix" values="0 0 0 0 0 0 0 0 0 0 0 0 0 0 0 0 0 0 127 0" result="hardAlpha"/>
<feOffset dy="73"/>
<feGaussianBlur stdDeviation="22"/>
<feColorMatrix type="matrix" values="0 0 0 0 0.596078 0 0 0 0 0.596078 0 0 0 0 0.596078 0 0 0 0.05 0"/>
<feBlend mode="normal" in2="effect2_dropShadow_451_49" result="effect3_dropShadow_451_49"/>
<feColorMatrix in="SourceAlpha" type="matrix" values="0 0 0 0 0 0 0 0 0 0 0 0 0 0 0 0 0 0 127 0" result="hardAlpha"/>
<feOffset dy="130"/>
<feGaussianBlur stdDeviation="26"/>
<feColorMatrix type="matrix" values="0 0 0 0 0.596078 0 0 0 0 0.596078 0 0 0 0 0.596078 0 0 0 0.01 0"/>
<feBlend mode="normal" in2="effect3_dropShadow_451_49" result="effect4_dropShadow_451_49"/>
<feBlend mode="normal" in="SourceGraphic" in2="effect4_dropShadow_451_49" result="shape"/>
</filter>
<filter id="filter1_b_451_49" x="22" y="-20" width="356" height="356" filterUnits="userSpaceOnUse" color-interpolation-filters="sRGB">
<feFlood flood-opacity="0" result="BackgroundImageFix"/>
<feGaussianBlur in="BackgroundImageFix" stdDeviation="15"/>
<feComposite in2="SourceAlpha" operator="in" result="effect1_backgroundBlur_451_49"/>
<feBlend mode="normal" in="SourceGraphic" in2="effect1_backgroundBlur_451_49" result="shape"/>
</filter>
<linearGradient id="paint0_linear_451_49" x1="61.7315" y1="286.132" x2="348" y2="9.99999" gradientUnits="userSpaceOnUse">
<stop stop-color="white"/>
<stop offset="1" stop-color="white" stop-opacity="0.3"/>
</linearGradient>
<linearGradient id="paint1_linear_451_49" x1="52" y1="75.6877" x2="296.91" y2="306" gradientUnits="userSpaceOnUse">
<stop stop-color="white"/>
<stop offset="1" stop-color="white" stop-opacity="0"/>
</linearGradient>
<linearGradient id="paint2_linear_451_49" x1="263" y1="34.9999" x2="328.5" y2="37" gradientUnits="userSpaceOnUse">
<stop stop-color="#404040"/>
<stop offset="1" stop-color="#999999"/>
</linearGradient>
<linearGradient id="paint3_linear_451_49" x1="322" y1="98" x2="324.5" y2="30" gradientUnits="userSpaceOnUse">
<stop stop-color="#404040"/>
<stop offset="1" stop-color="#999999"/>
</linearGradient>
<linearGradient id="paint4_linear_451_49" x1="265" y1="92" x2="327.5" y2="34" gradientUnits="userSpaceOnUse">
<stop stop-color="#404040"/>
<stop offset="1" stop-color="#999999"/>
</linearGradient>
<clipPath id="clip0_451_49">
<rect x="52" y="10" width="296" height="296" rx="24" fill="white"/>
</clipPath>
</defs>
</svg>
