<svg width="296" height="296" viewBox="0 0 296 296" fill="none" xmlns="http://www.w3.org/2000/svg">
<g clip-path="url(#clip0_472_89)">
<rect width="296" height="296" rx="24" fill="white"/>
<g filter="url(#filter0_b_472_89)">
<rect width="296" height="296" rx="24" fill="url(#paint0_linear_472_89)"/>
<rect x="1" y="1" width="294" height="294" rx="23" stroke="url(#paint1_linear_472_89)" stroke-width="2"/>
</g>
<path opacity="0.8" d="M173.719 229.38C174.483 229.398 175.129 229.507 175.656 229.707C176.183 229.907 176.565 230.162 176.802 230.471C177.056 230.78 177.22 231.126 177.293 231.508C177.384 231.89 177.384 232.271 177.293 232.653C177.22 233.035 177.084 233.399 176.883 233.744C176.52 234.217 175.811 234.481 174.756 234.535C173.719 234.572 173.128 234.363 172.983 233.908C173.092 233.708 173.174 233.544 173.228 233.417C173.283 233.29 173.356 233.099 173.447 232.844C173.556 232.571 173.592 232.362 173.556 232.217C173.538 232.053 173.447 231.962 173.283 231.944C172.774 231.908 172.255 232.253 171.728 232.981C171.219 233.708 170.919 234.635 170.828 235.763C170.755 236.745 170.983 237.49 171.51 238C172.055 238.509 172.774 238.745 173.665 238.709C175.72 238.581 177.256 237.49 178.275 235.436C178.347 235.326 178.475 235.308 178.656 235.381C178.857 235.454 179.047 235.572 179.229 235.736C179.411 235.881 179.484 235.99 179.448 236.063C177.593 239.609 174.856 241.318 171.237 241.191C169.801 241.136 168.609 240.618 167.664 239.636C166.718 238.636 166.264 237.427 166.3 236.008C166.336 234.172 167.046 232.608 168.428 231.317C169.828 230.007 171.592 229.362 173.719 229.38ZM188 229.325C189.037 229.344 189.728 229.671 190.073 230.307C190.437 230.944 190.482 231.826 190.21 232.953C190.137 233.281 189.946 233.917 189.637 234.863C189.346 235.808 189.155 236.508 189.064 236.963C188.955 237.472 188.937 237.89 189.009 238.218C189.082 238.545 189.237 238.709 189.473 238.709C189.964 238.709 190.51 238.391 191.11 237.754C191.728 237.118 192.255 236.345 192.692 235.436C192.783 235.326 192.919 235.308 193.101 235.381C193.301 235.436 193.483 235.545 193.646 235.708C193.828 235.872 193.901 235.999 193.865 236.09C193.555 236.69 193.21 237.254 192.828 237.781C192.464 238.309 192.019 238.845 191.492 239.391C190.964 239.936 190.355 240.373 189.664 240.7C188.991 241.027 188.291 241.2 187.564 241.218C185 241.291 184.036 240.082 184.672 237.59C185.127 235.845 185.463 234.472 185.682 233.472C185.791 233.108 185.8 232.826 185.709 232.626C185.636 232.408 185.427 232.326 185.081 232.381C184.572 232.453 183.927 232.808 183.145 233.444C182.945 234.063 182.317 236.499 181.263 240.755C181.044 241.1 180.299 241.273 179.026 241.273C177.753 241.273 177.035 241.045 176.871 240.591C177.471 237.954 178.508 234.263 179.981 229.516C180.326 229.244 181.017 229.144 182.054 229.216C183.09 229.289 183.763 229.553 184.072 230.007C184.018 230.153 183.945 230.38 183.854 230.689C183.763 230.998 183.69 231.226 183.636 231.371C185.418 229.989 186.873 229.307 188 229.325ZM200.037 229.407C200.892 229.426 201.628 229.589 202.247 229.898C202.883 230.189 203.329 230.571 203.583 231.044C203.838 231.499 203.983 232.008 204.02 232.571C204.074 233.135 203.938 233.69 203.611 234.235C203.138 235.199 202.31 235.908 201.128 236.363C199.965 236.799 198.619 236.899 197.091 236.663C197.219 238.027 198.292 238.727 200.31 238.763C200.91 238.781 201.501 238.709 202.083 238.545C202.683 238.363 203.329 238.009 204.02 237.481C204.711 236.954 205.274 236.272 205.711 235.436C205.802 235.326 205.938 235.308 206.12 235.381C206.32 235.436 206.511 235.545 206.693 235.708C206.875 235.872 206.947 235.99 206.911 236.063C205.875 237.936 204.702 239.282 203.392 240.1C202.083 240.9 200.565 241.291 198.837 241.273C196.619 241.255 195 240.718 193.982 239.663C192.963 238.609 192.527 237.29 192.673 235.708C192.854 233.817 193.627 232.29 194.991 231.126C196.373 229.944 198.055 229.371 200.037 229.407ZM199.655 231.999C199.164 231.926 198.683 232.171 198.21 232.735C197.755 233.299 197.428 234.026 197.228 234.917C197.955 234.935 198.564 234.754 199.055 234.372C199.546 233.99 199.865 233.544 200.01 233.035C200.192 232.399 200.074 232.053 199.655 231.999ZM212.217 248.119C211.345 248.101 210.663 247.828 210.172 247.301C209.699 246.792 209.49 246.164 209.544 245.419C209.617 244.673 209.935 243.973 210.499 243.319C210.717 243.082 210.981 242.846 211.29 242.609C211.599 242.391 211.954 242.182 212.354 241.982C212.754 241.782 213.09 241.618 213.363 241.491C213.636 241.364 213.981 241.218 214.4 241.055C214.836 240.891 215.091 240.791 215.163 240.755L215.327 239.991C214.691 240.045 214.172 239.927 213.772 239.636C213.39 239.327 213.209 238.818 213.227 238.109C211.663 240.218 209.908 241.273 207.962 241.273C205.544 241.273 204.635 239.891 205.235 237.127C205.616 235.417 206.253 232.981 207.144 229.816C207.235 229.507 207.935 229.335 209.244 229.298C210.608 229.28 211.363 229.444 211.508 229.789C211.526 229.826 211.526 229.871 211.508 229.926L209.626 236.881C209.535 237.263 209.472 237.572 209.435 237.809C209.417 238.045 209.444 238.236 209.517 238.381C209.59 238.527 209.735 238.6 209.953 238.6C210.408 238.581 210.899 238.19 211.426 237.427C211.972 236.663 212.436 235.79 212.818 234.808C213.054 234.208 213.318 233.335 213.609 232.19C213.9 231.044 214.118 230.253 214.263 229.816C214.372 229.489 215.063 229.316 216.336 229.298C217.664 229.298 218.4 229.471 218.546 229.816V229.953C218.437 230.353 218.173 231.226 217.755 232.571C217.355 233.899 217.073 234.926 216.909 235.654C216.655 236.708 216.545 237.345 216.582 237.563C216.636 237.909 216.882 238.081 217.318 238.081C217.864 238.081 218.082 238.336 217.973 238.845C217.918 239.082 217.882 239.236 217.864 239.309C218.537 238.4 219.346 237.099 220.291 235.408C220.382 235.317 220.519 235.308 220.701 235.381C220.901 235.436 221.082 235.545 221.246 235.708C221.428 235.872 221.492 236.008 221.437 236.117C220.746 237.372 220.11 238.4 219.528 239.2C218.964 240 218.227 240.9 217.318 241.9C217.064 243.028 216.818 243.928 216.582 244.601C216.364 245.292 216.064 245.928 215.682 246.51C215.318 247.11 214.854 247.528 214.291 247.765C213.727 248.019 213.036 248.137 212.217 248.119ZM212.927 245.719C213.436 245.719 213.963 244.846 214.509 243.1C214.436 243.155 214.3 243.237 214.1 243.346C213.918 243.455 213.79 243.528 213.718 243.564C213.645 243.619 213.536 243.691 213.39 243.782C213.245 243.873 213.136 243.955 213.063 244.028C212.99 244.1 212.899 244.182 212.79 244.273C212.699 244.382 212.618 244.501 212.545 244.628C212.363 244.937 212.308 245.192 212.381 245.392C212.454 245.61 212.636 245.719 212.927 245.719ZM231.002 241.109C227.565 240.982 226.156 238.7 226.774 234.263C227.393 229.844 228.511 226.571 230.129 224.443C231.348 222.788 232.866 221.952 234.685 221.933C236.067 221.915 237.14 222.243 237.903 222.915C238.685 223.57 239.104 224.352 239.158 225.261C239.213 226.17 238.994 227.107 238.503 228.071C238.031 229.035 237.34 229.798 236.43 230.362C237.394 230.526 238.058 231.08 238.422 232.026C238.785 232.953 238.849 233.99 238.613 235.135C238.376 236.281 237.94 237.299 237.303 238.19C238.922 238.227 240.186 237.309 241.095 235.436C241.167 235.345 241.304 235.326 241.504 235.381C241.704 235.436 241.895 235.545 242.077 235.708C242.259 235.872 242.322 235.999 242.268 236.09C241.758 237.018 241.213 237.763 240.631 238.327C240.049 238.872 239.494 239.218 238.967 239.363C238.458 239.509 237.922 239.609 237.358 239.663C236.794 239.7 236.285 239.673 235.83 239.582C234.412 240.673 232.803 241.182 231.002 241.109ZM231.439 230.635C231.584 230.562 231.848 230.435 232.23 230.253C232.63 230.071 232.939 229.935 233.157 229.844C233.375 229.735 233.63 229.58 233.921 229.38C234.212 229.18 234.457 228.98 234.657 228.78C235.094 228.325 235.412 227.807 235.612 227.225C235.812 226.625 235.821 226.116 235.639 225.698C235.458 225.261 235.076 225.052 234.494 225.07C233.275 225.107 232.257 226.961 231.439 230.635ZM231.711 238.681C232.057 238.7 232.384 238.563 232.693 238.272C232.493 237.854 232.53 237.436 232.803 237.018C233.075 236.599 233.448 236.399 233.921 236.417C234.376 235.49 234.576 234.644 234.521 233.881C234.485 233.117 234.13 232.726 233.457 232.708C233.021 232.69 232.539 232.817 232.012 233.09C231.484 233.344 231.093 233.608 230.839 233.881C230.111 237.027 230.402 238.627 231.711 238.681ZM179.748 273.408C179.838 273.263 180.066 273.308 180.429 273.545C180.811 273.781 180.966 273.963 180.893 274.09C179.002 277.509 176.902 279.236 174.592 279.273C174.047 279.273 173.565 279.182 173.147 279C172.746 278.818 172.419 278.591 172.165 278.318C171.91 278.027 171.683 277.645 171.483 277.172C171.301 276.681 171.164 276.236 171.073 275.836C170.983 275.418 170.883 274.899 170.773 274.281C170.101 274.899 169.71 275.545 169.601 276.218L169.082 278.782C169.028 279.055 168.464 279.236 167.391 279.327C166.064 279.436 165.273 279.282 165.018 278.864C164.945 278.755 164.927 278.636 164.963 278.509C165.618 275.599 166.446 272.354 167.446 268.771C168.446 265.189 169.282 262.47 169.955 260.615C170.082 260.288 170.783 260.161 172.055 260.234C173.328 260.306 174.056 260.515 174.238 260.861C174.256 260.915 174.256 260.979 174.238 261.052C172.983 264.616 171.946 267.88 171.128 270.844C172.692 268.826 174.165 267.444 175.547 266.698C175.856 266.534 176.229 266.625 176.665 266.971C177.12 267.298 177.429 267.68 177.593 268.117C177.756 268.535 177.738 268.871 177.538 269.126C175.865 270.453 174.738 271.481 174.156 272.208C174.156 273.481 174.292 274.554 174.565 275.427C174.838 276.3 175.274 276.745 175.874 276.763C177.22 276.818 178.511 275.699 179.748 273.408ZM187.147 267.325C188.765 267.344 189.983 267.807 190.802 268.717C191.638 269.626 192.011 270.753 191.92 272.099C191.847 273.445 191.393 274.799 190.556 276.163C191.229 276.254 191.911 276.063 192.602 275.59C193.293 275.118 193.866 274.399 194.32 273.436C194.411 273.326 194.548 273.308 194.73 273.381C194.93 273.436 195.121 273.545 195.302 273.708C195.484 273.872 195.548 273.999 195.493 274.09C195.039 274.963 194.53 275.672 193.966 276.218C193.42 276.763 192.884 277.127 192.356 277.309C191.829 277.491 191.284 277.618 190.72 277.691C190.156 277.745 189.647 277.718 189.192 277.609C187.847 278.718 186.21 279.273 184.283 279.273C182.519 279.273 181.2 278.782 180.327 277.8C179.455 276.818 179.264 275.281 179.755 273.19C180.209 271.281 181.109 269.826 182.455 268.826C183.819 267.807 185.383 267.307 187.147 267.325ZM186.547 269.862C185.619 269.88 184.864 270.962 184.283 273.108C184.137 273.636 184.028 274.063 183.955 274.39C183.901 274.718 183.864 275.09 183.846 275.509C183.828 275.927 183.901 276.245 184.064 276.463C184.246 276.663 184.528 276.763 184.91 276.763C185.274 276.763 185.601 276.618 185.892 276.327C185.674 275.909 185.683 275.481 185.919 275.045C186.174 274.59 186.528 274.354 186.983 274.336C187.401 273.208 187.592 272.181 187.556 271.253C187.519 270.308 187.183 269.844 186.547 269.862ZM211.7 273.408C211.773 273.317 211.9 273.308 212.082 273.381C212.282 273.436 212.473 273.545 212.655 273.708C212.837 273.872 212.9 273.999 212.846 274.09C211.864 275.872 210.873 277.182 209.873 278.018C208.872 278.836 207.754 279.245 206.517 279.245C204.735 279.245 204.035 277.354 204.417 273.572C203.926 274.845 203.408 275.918 202.862 276.791C202.317 277.645 201.826 278.2 201.389 278.454C200.917 278.745 200.417 278.882 199.889 278.864C199.38 278.827 198.971 278.609 198.662 278.209C197.989 277.354 197.707 275.754 197.816 273.408C197.216 274.936 196.652 276.681 196.125 278.645C196.034 278.955 195.489 279.155 194.488 279.245C193.325 279.336 192.624 279.173 192.388 278.755C192.315 278.645 192.306 278.518 192.361 278.373C192.597 277.663 192.852 276.972 193.125 276.3C193.379 275.609 193.597 275.045 193.779 274.608C193.961 274.154 194.225 273.572 194.57 272.863C194.934 272.135 195.179 271.644 195.307 271.39C195.434 271.135 195.734 270.562 196.207 269.671C196.68 268.78 196.98 268.217 197.107 267.98C197.252 267.707 197.671 267.516 198.362 267.407C199.071 267.298 199.735 267.316 200.353 267.462C200.971 267.607 201.244 267.844 201.171 268.171C200.88 269.426 200.671 270.808 200.544 272.317C200.435 273.826 200.489 274.745 200.707 275.072C200.908 274.999 201.371 274.208 202.099 272.699C202.844 271.172 203.544 269.617 204.199 268.035C204.326 267.726 204.744 267.526 205.454 267.435C206.163 267.344 206.827 267.389 207.445 267.571C208.081 267.735 208.372 267.971 208.318 268.28C208.1 269.644 207.927 270.771 207.799 271.663C207.672 272.554 207.572 273.426 207.499 274.281C207.445 275.118 207.463 275.745 207.554 276.163C207.663 276.581 207.845 276.791 208.1 276.791C208.663 276.809 209.209 276.609 209.736 276.19C210.282 275.754 210.936 274.827 211.7 273.408ZM218.676 267.407C219.822 267.225 221.067 267.271 222.413 267.544C223.777 267.816 224.84 268.344 225.604 269.126C225.732 269.417 225.568 269.844 225.113 270.408C224.659 270.972 224.304 271.217 224.049 271.144C222.904 270.235 221.54 269.826 219.958 269.917C219.14 269.953 218.367 270.29 217.639 270.926C216.93 271.563 216.403 272.354 216.057 273.299C215.439 274.972 215.366 276.027 215.839 276.463C216.13 276.736 216.466 276.736 216.848 276.463C217.248 276.172 217.63 275.699 217.994 275.045C218.376 274.39 218.712 273.754 219.003 273.135C219.294 272.517 219.549 271.908 219.767 271.308C220.222 271.017 220.913 270.981 221.84 271.199C222.786 271.399 223.349 271.672 223.531 272.017C223.168 273.181 222.922 274.036 222.795 274.581C222.431 276.036 222.577 276.745 223.231 276.709C223.668 276.691 224.24 276.363 224.95 275.727C225.659 275.072 226.223 274.317 226.641 273.463C226.732 273.354 226.868 273.336 227.05 273.408C227.25 273.463 227.441 273.572 227.623 273.736C227.805 273.881 227.868 273.999 227.814 274.09C226.959 275.672 225.95 276.927 224.786 277.854C223.64 278.764 222.422 279.218 221.131 279.218C220.422 279.218 219.912 278.927 219.603 278.345C219.294 277.763 219.194 276.972 219.303 275.972C218.776 276.936 218.158 277.718 217.448 278.318C216.757 278.9 215.857 279.2 214.748 279.218C214.275 279.218 213.83 279.155 213.411 279.027C212.993 278.918 212.593 278.718 212.211 278.427C211.829 278.118 211.557 277.663 211.393 277.063C211.229 276.445 211.202 275.709 211.311 274.854C211.584 272.854 212.466 271.172 213.957 269.808C215.466 268.444 217.039 267.644 218.676 267.407ZM235.992 279.218C234.574 279.327 233.664 278.964 233.264 278.127C232.864 277.291 232.864 276.127 233.264 274.636H230.7C230.609 275.018 230.437 275.663 230.182 276.572C229.946 277.482 229.764 278.209 229.637 278.755C229.564 279.082 228.918 279.273 227.7 279.327C226.354 279.382 225.554 279.218 225.3 278.836C225.245 278.745 225.236 278.654 225.272 278.564C225.6 277.363 226.063 275.581 226.663 273.217C227.282 270.835 227.754 269.044 228.082 267.844C228.136 267.626 228.545 267.471 229.309 267.38C230.073 267.271 230.8 267.28 231.491 267.407C232.201 267.516 232.519 267.716 232.446 268.007C232.319 268.498 232.128 269.208 231.873 270.135C231.619 271.044 231.437 271.717 231.328 272.154H233.837C233.983 271.608 234.174 270.817 234.41 269.78C234.665 268.726 234.819 268.089 234.874 267.871C234.928 267.653 235.337 267.498 236.101 267.407C236.883 267.298 237.629 267.307 238.338 267.435C239.065 267.544 239.393 267.744 239.32 268.035C239.065 268.98 238.72 270.217 238.283 271.744C237.865 273.272 237.61 274.199 237.52 274.527C237.138 275.963 237.238 276.691 237.82 276.709C238.274 276.727 238.811 276.418 239.429 275.781C240.065 275.145 240.602 274.363 241.038 273.436C241.129 273.326 241.266 273.308 241.447 273.381C241.647 273.454 241.829 273.572 241.993 273.736C242.175 273.899 242.248 274.017 242.211 274.09C240.52 277.327 238.447 279.036 235.992 279.218ZM248.084 267.435C249.248 267.253 250.494 267.289 251.821 267.544C253.149 267.798 254.267 268.326 255.176 269.126C255.286 269.38 255.113 269.799 254.658 270.381C254.222 270.962 253.876 271.217 253.622 271.144C253.094 270.708 252.431 270.39 251.63 270.19C250.848 269.971 250.085 269.88 249.339 269.917C248.539 269.953 247.793 270.29 247.102 270.926C246.43 271.544 245.893 272.335 245.493 273.299C245.148 274.136 244.966 274.863 244.948 275.481C244.929 276.081 245.048 276.436 245.302 276.545C245.611 276.745 246.03 276.645 246.557 276.245C247.102 275.845 247.612 275.163 248.084 274.199C248.485 273.417 248.903 272.454 249.339 271.308C249.667 270.999 250.348 270.962 251.385 271.199C252.421 271.417 252.994 271.699 253.103 272.044C252.776 273.081 252.431 274.317 252.067 275.754C251.721 277.172 251.485 278.109 251.358 278.564C252.267 278.182 253.049 277.609 253.703 276.845C254.358 276.081 255.104 274.936 255.94 273.408C256.013 273.317 256.149 273.308 256.349 273.381C256.549 273.436 256.731 273.545 256.895 273.708C257.077 273.872 257.14 274.008 257.086 274.117C256.013 276.045 255.022 277.482 254.113 278.427C253.222 279.355 252.121 280.073 250.812 280.582C250.139 282.637 249.585 284.019 249.148 284.728C248.112 286.292 246.539 287.083 244.429 287.101C243.284 287.101 242.374 286.81 241.702 286.228C241.029 285.646 240.756 284.865 240.883 283.883C240.956 283.392 241.083 282.946 241.265 282.546C241.465 282.164 241.738 281.828 242.084 281.537C242.447 281.264 242.793 281.028 243.12 280.828C243.447 280.628 243.884 280.446 244.429 280.282C244.975 280.137 245.429 280.018 245.793 279.927C246.175 279.855 246.684 279.755 247.321 279.627C247.83 278.209 248.194 277.172 248.412 276.518C247.339 278.3 245.911 279.2 244.129 279.218C242.784 279.236 241.82 278.782 241.238 277.854C240.656 276.909 240.483 275.781 240.72 274.472C240.974 273.163 241.547 271.953 242.438 270.844C243.147 269.899 244.02 269.135 245.057 268.553C246.093 267.953 247.102 267.58 248.084 267.435ZM246.775 281.673C246.139 281.837 245.611 282.073 245.193 282.382C244.775 282.691 244.502 283.01 244.375 283.337C244.157 283.919 244.247 284.292 244.648 284.455C245.084 284.655 245.511 284.483 245.93 283.937C246.093 283.719 246.23 283.483 246.339 283.228C246.448 282.919 246.593 282.401 246.775 281.673ZM263.248 267.407C264.103 267.426 264.839 267.589 265.458 267.898C266.094 268.189 266.54 268.571 266.794 269.044C267.049 269.499 267.194 270.008 267.231 270.571C267.285 271.135 267.149 271.69 266.822 272.235C266.349 273.199 265.521 273.908 264.339 274.363C263.176 274.799 261.83 274.899 260.302 274.663C260.43 276.027 261.503 276.727 263.521 276.763C264.121 276.781 264.712 276.709 265.294 276.545C265.894 276.363 266.54 276.009 267.231 275.481C267.922 274.954 268.485 274.272 268.922 273.436C269.013 273.326 269.149 273.308 269.331 273.381C269.531 273.436 269.722 273.545 269.904 273.708C270.086 273.872 270.158 273.99 270.122 274.063C269.086 275.936 267.913 277.282 266.603 278.1C265.294 278.9 263.776 279.291 262.048 279.273C259.83 279.255 258.211 278.718 257.193 277.663C256.174 276.609 255.738 275.29 255.883 273.708C256.065 271.817 256.838 270.29 258.202 269.126C259.584 267.944 261.266 267.371 263.248 267.407ZM262.866 269.999C262.375 269.926 261.893 270.171 261.421 270.735C260.966 271.299 260.639 272.026 260.439 272.917C261.166 272.935 261.775 272.754 262.266 272.372C262.757 271.99 263.075 271.544 263.221 271.035C263.403 270.399 263.285 270.053 262.866 269.999Z" fill="black"/>
<line x1="213" y1="25.5" x2="271" y2="25.5" stroke="url(#paint2_linear_472_89)" stroke-width="3"/>
<line x1="271.5" y1="26" x2="271.5" y2="84" stroke="url(#paint3_linear_472_89)" stroke-width="3"/>
<line x1="272.061" y1="25.0607" x2="214.061" y2="83.0607" stroke="url(#paint4_linear_472_89)" stroke-width="3"/>
<path d="M58.5637 266.662C58.664 266.461 58.664 266.01 58.5637 265.308C58.4635 264.707 58.2629 264.306 57.9622 264.105C57.7617 264.005 57.3105 263.855 56.6087 263.654C55.9069 263.554 55.5059 263.504 55.4056 263.504C55.3054 263.504 55.1049 263.404 54.8041 263.203C54.5033 263.103 54.3028 262.952 54.2025 262.752C54.002 262.652 53.5509 262.351 52.8491 261.85C52.1473 261.348 51.6961 260.997 51.4956 260.797C51.3954 260.797 51.0445 260.747 50.4429 260.647C49.9416 260.446 49.3902 260.296 48.7887 260.195C48.1871 259.995 47.6357 259.844 47.1344 259.744C46.6332 259.544 46.3324 259.393 46.2321 259.293C44.8285 258.792 43.6756 258.14 42.7733 257.338C41.9712 256.536 40.9686 255.734 39.7656 254.932H39.4648C38.9635 254.932 38.6126 255.333 38.4121 256.135C38.2116 256.837 38.0612 257.288 37.9609 257.488C37.0586 257.288 36.5072 256.937 36.3067 256.436C36.2064 255.834 35.8555 255.333 35.254 254.932L34.9532 255.233L34.6525 255.533C34.4519 255.734 34.3517 256.185 34.3517 256.887C34.3517 257.589 34.4519 258.04 34.6525 258.24C34.4519 258.24 34.1512 258.19 33.7502 258.09C33.4494 257.889 33.2489 257.689 33.1486 257.488C32.9481 256.987 32.9481 256.486 33.1486 255.985C33.4494 255.483 33.2489 255.132 32.5471 254.932C32.4468 254.932 32.3466 254.982 32.2463 255.082C32.2463 255.082 32.1962 255.082 32.0959 255.082C31.9957 255.183 31.8453 255.233 31.6448 255.233V259.293C30.943 259.494 30.3414 259.895 29.8401 260.496C29.3389 261.098 28.7373 261.449 28.0355 261.549H24.2759C24.2759 261.749 24.1756 261.95 23.9751 262.15C23.8749 262.451 23.7746 262.652 23.6743 262.752H22.6216C21.9198 262.752 21.1178 262.702 20.2155 262.602C19.3132 262.501 18.6615 262.351 18.2605 262.15C18.1602 262.05 17.9597 261.749 17.6589 261.248C17.4584 260.747 17.2579 260.396 17.0574 260.195C16.1551 258.692 15.6538 257.037 15.5535 255.233C15.5535 253.428 15.5535 251.724 15.5535 250.12C15.5535 248.916 15.6538 247.513 15.8543 245.909C16.1551 244.204 16.506 242.5 16.907 240.796C17.4083 238.991 17.9096 237.287 18.4109 235.683C19.0124 233.978 19.6139 232.575 20.2155 231.472C20.7168 230.569 21.4687 229.918 22.4713 229.517C23.4738 229.116 24.2258 228.464 24.727 227.562C24.9276 227.462 25.1782 226.96 25.479 226.058C25.88 225.156 26.1306 224.604 26.2309 224.404C26.3311 224.404 26.5317 224.153 26.8324 223.652C26.9327 223.752 27.0329 223.802 27.1332 223.802C27.3337 223.802 27.434 223.752 27.434 223.652C27.6345 223.552 27.8851 223.351 28.1859 223.05C28.4867 222.649 28.6371 222.399 28.6371 222.298C28.8376 222.098 28.8877 221.897 28.7874 221.697C28.6872 221.496 28.6371 221.296 28.6371 221.095C28.7373 220.995 28.8877 220.845 29.0882 220.644C29.389 220.343 29.6396 220.143 29.8401 220.043C29.9404 220.444 29.9905 220.744 29.9905 220.945C30.0908 221.045 30.3915 221.095 30.8928 221.095C31.1936 221.095 31.4944 220.845 31.7951 220.343C32.1962 219.842 32.5471 219.291 32.8478 218.689C33.1486 218.088 33.3993 217.536 33.5998 217.035C33.8003 216.433 33.9005 216.032 33.9005 215.832C34.3016 215.832 34.8028 215.832 35.4044 215.832C36.1062 215.731 36.7579 215.631 37.3594 215.531C37.9609 215.33 38.4622 215.08 38.8632 214.779C39.3645 214.378 39.6653 213.877 39.7656 213.275H42.9236C42.9236 213.175 42.9738 212.974 43.074 212.674C43.2745 212.373 43.4751 212.122 43.6756 211.922C43.8761 211.922 44.2771 211.972 44.8787 212.072C45.5805 212.072 46.0316 212.022 46.2321 211.922C46.2321 211.922 46.583 211.671 47.2848 211.17C47.9866 210.568 48.7385 209.967 49.5406 209.365C50.3427 208.764 51.0946 208.212 51.7964 207.711C52.4982 207.109 52.8992 206.809 52.9995 206.809C52.9995 206.608 52.9493 206.357 52.8491 206.057C52.7488 205.656 52.7989 205.405 52.9995 205.305C52.9995 205.205 53.2501 205.004 53.7514 204.703C54.2527 204.402 54.6036 204.202 54.8041 204.102C54.9043 204.001 55.0046 203.801 55.1049 203.5C55.2051 203.199 55.3054 202.999 55.4056 202.899C55.5059 202.698 55.7064 202.447 56.0072 202.147C56.4082 201.846 56.6588 201.645 56.7591 201.545C56.9596 201.144 57.2604 200.442 57.6614 199.44C58.1627 198.437 58.4635 197.836 58.5637 197.635C58.5637 197.535 58.6138 197.234 58.7141 196.733C58.8144 196.232 58.8645 195.68 58.8645 195.079C58.9647 194.477 59.065 193.926 59.1653 193.424C59.2655 192.823 59.3156 192.472 59.3156 192.372C59.3156 192.271 59.4159 192.071 59.6164 191.77C59.8169 191.469 59.9172 191.269 59.9172 191.169C60.1177 190.868 60.3182 190.467 60.5187 189.965C60.7192 189.464 60.8195 189.163 60.8195 189.063C60.7192 189.063 60.619 189.013 60.5187 188.913C60.3182 188.712 60.1177 188.612 59.9172 188.612C59.5162 188.411 58.664 188.161 57.3606 187.86C56.0573 187.459 55.2051 187.208 54.8041 187.108V185.454C54.6036 185.454 54.1524 185.554 53.4506 185.755C52.8491 185.955 52.448 186.055 52.2475 186.055C52.047 185.855 51.6961 185.454 51.1948 184.852C50.7938 184.251 50.5432 183.9 50.4429 183.8C49.9416 183.599 48.9892 183.298 47.5856 182.897C46.2823 182.396 45.4301 182.095 45.029 181.995H43.2244C41.0188 181.995 38.6627 182.346 36.1563 183.048C33.7502 183.75 31.8954 185.103 30.5921 187.108V187.86C30.5921 188.762 30.7926 189.414 31.1936 189.815L33.9005 191.169C35.3041 191.971 36.6075 192.973 37.8106 194.176C39.0136 195.279 40.1165 196.432 41.119 197.635C41.119 197.735 41.119 197.936 41.119 198.237C41.2193 198.437 41.2694 198.588 41.2694 198.688C41.2694 198.989 41.0188 199.64 40.5175 200.643C40.0162 201.645 39.6653 202.147 39.4648 202.147C38.9635 202.147 38.6126 201.846 38.4121 201.244C38.2116 200.543 38.0612 199.941 37.9609 199.44C36.9584 200.041 35.7052 200.342 34.2013 200.342C34.2013 199.64 34.5021 199.289 35.1036 199.289C35.7052 199.289 36.0059 198.989 36.0059 198.387V197.635C35.1036 198.136 34.2514 198.487 33.4494 198.688C32.7476 198.888 31.8954 198.989 30.8928 198.989H29.389C29.389 198.086 29.0882 197.635 28.4867 197.635C27.8851 197.535 27.3337 197.284 26.8324 196.883C25.7296 196.181 24.9777 195.279 24.5767 194.176C24.2759 192.973 23.7245 191.971 22.9224 191.169C22.7219 190.968 22.2206 190.768 21.4186 190.567C20.7168 190.266 19.9648 190.016 19.1628 189.815C18.461 189.615 17.8093 189.414 17.2078 189.214C16.6062 189.013 16.3055 188.813 16.3055 188.612V176.732C16.0047 176.631 15.7541 176.381 15.5535 175.98C15.4533 175.579 15.4032 175.278 15.4032 175.077C16.506 175.077 17.308 174.726 17.8093 174.025C18.4109 173.223 18.9623 172.421 19.4636 171.618C19.7643 171.618 20.2155 171.618 20.817 171.618C21.4186 171.518 22.0702 171.418 22.772 171.318C23.5741 171.217 24.2759 171.117 24.8774 171.017C25.479 170.917 25.9301 170.816 26.2309 170.716C26.3311 170.716 26.5818 170.566 26.9828 170.265C27.4841 169.864 27.835 169.663 28.0355 169.663C29.0381 169.162 29.79 168.912 30.2913 168.912C30.7926 168.912 31.3941 168.511 32.0959 167.708H37.6602C37.6602 166.906 37.7103 166.455 37.8106 166.355C38.0111 166.154 37.8106 165.703 37.209 165.002H37.5098H37.9609C39.8658 165.603 41.6203 166.355 43.2244 167.257C44.9288 168.059 46.182 169.513 46.9841 171.618H47.4352C47.9365 171.618 48.2373 171.268 48.3375 170.566C48.4378 169.764 48.8388 169.363 49.5406 169.363C49.6409 169.363 49.7912 169.413 49.9918 169.513C50.1923 169.613 50.3427 169.663 50.4429 169.663C50.5432 169.663 50.9442 169.764 51.646 169.964C52.3478 170.064 52.7989 170.165 52.9995 170.265C53.2 170.265 53.5509 170.265 54.0522 170.265C54.5534 170.265 55.0547 170.265 55.556 170.265C56.1575 170.265 56.6588 170.365 57.0599 170.566C57.5611 170.766 57.8619 171.117 57.9622 171.618C58.0624 171.819 58.1627 172.421 58.2629 173.423C58.4635 174.426 58.5637 175.077 58.5637 175.378C59.466 175.679 60.619 176.381 62.0226 177.484C63.5264 178.586 64.3786 179.639 64.5791 180.642C64.5791 180.842 64.529 181.243 64.4287 181.845C64.3285 182.446 64.2784 182.847 64.2784 183.048C64.8799 183.048 65.3812 182.948 65.7822 182.747C66.1832 182.546 66.6344 182.446 67.1357 182.446C67.2359 182.446 67.3362 182.496 67.4364 182.597C67.5367 182.597 67.637 182.597 67.7372 182.597C68.038 182.697 68.3889 182.847 68.7899 183.048C69.2912 183.148 69.592 183.198 69.6922 183.198C69.7925 183.298 69.7925 183.649 69.6922 184.251C69.592 184.852 69.592 185.203 69.6922 185.304C69.7925 185.504 70.0932 185.955 70.5945 186.657C71.1961 187.259 71.547 187.71 71.6472 188.01C71.948 188.612 72.0984 189.514 72.0984 190.717C72.1986 191.82 72.2488 192.773 72.2488 193.575C72.2488 194.778 72.1485 195.981 71.948 197.184C71.7475 198.387 71.6472 199.64 71.6472 200.944C71.6472 202.147 71.6472 203.25 71.6472 204.252C71.6472 205.154 71.8477 206.157 72.2488 207.26C72.0483 207.46 71.4968 207.861 70.5945 208.463C69.7925 208.964 69.2912 209.265 69.0907 209.365C68.9904 209.465 68.5393 209.215 67.7372 208.613C66.9352 208.012 66.4339 207.711 66.2334 207.711C66.2334 207.811 66.2835 208.062 66.3837 208.463C66.484 208.864 66.5843 209.315 66.6845 209.816C66.7848 210.217 66.885 210.669 66.9853 211.17C67.0855 211.571 67.1357 211.821 67.1357 211.922C67.1357 212.122 67.2359 212.373 67.4364 212.674C67.637 212.974 67.7372 213.175 67.7372 213.275V214.478C67.7372 215.28 67.5868 215.932 67.2861 216.433C67.0855 216.935 66.6344 217.185 65.9326 217.185C65.1305 217.185 64.6293 216.884 64.4287 216.283C64.3285 215.581 64.0277 215.23 63.5264 215.23H63.376C63.376 216.133 63.1755 216.935 62.7745 217.636C62.3735 218.238 61.9223 218.839 61.421 219.441C61.02 220.043 60.5688 220.694 60.0676 221.396C59.6665 221.998 59.4159 222.749 59.3156 223.652C59.3156 223.451 59.2154 223.1 59.0149 222.599C58.8144 222.098 58.664 221.797 58.5637 221.697C58.5637 221.697 58.4635 221.647 58.2629 221.546C57.7617 221.546 57.3606 221.647 57.0599 221.847C56.7591 222.048 56.2077 222.148 55.4056 222.148V225.607C55.4056 225.707 55.2552 225.857 54.9545 226.058C54.6537 226.158 54.4031 226.208 54.2025 226.208C54.002 226.309 53.5509 226.359 52.8491 226.359C52.1473 226.258 51.6961 226.208 51.4956 226.208L50.4429 227.111C50.2424 227.111 50.0419 227.01 49.8414 226.81C49.6409 226.609 49.5406 226.409 49.5406 226.208C49.7411 226.008 49.8915 225.807 49.9918 225.607C50.092 225.406 50.2424 225.206 50.4429 225.005V224.704V224.404C50.0419 224.404 49.7411 224.153 49.5406 223.652C49.5406 223.652 49.4403 223.602 49.2398 223.501C49.1396 223.501 49.0393 223.552 48.9391 223.652C48.8388 223.852 48.6383 224.103 48.3375 224.404C48.0367 224.604 47.8362 224.805 47.736 225.005V225.306V225.607C47.736 225.707 47.8362 225.958 48.0367 226.359C48.2373 226.76 48.3375 227.01 48.3375 227.111C47.4352 227.812 46.583 228.414 45.781 228.915C45.0792 229.417 44.4275 229.868 43.826 230.269C43.3247 230.67 43.0239 230.87 42.9236 230.87L43.6756 231.472L42.1717 234.329C41.871 234.53 41.3697 235.131 40.6679 236.134C39.9661 237.036 39.5149 237.638 39.3144 237.938C39.5149 238.339 40.0162 238.39 40.8183 238.089C41.6203 237.688 42.1717 237.487 42.4725 237.487H42.9236C43.1242 237.387 43.2745 237.186 43.3748 236.886C43.4751 236.485 43.5753 236.234 43.6756 236.134C43.6756 236.033 43.826 236.084 44.1267 236.284C44.4275 236.384 44.628 236.435 44.7283 236.435L45.029 235.382H45.4802C45.8812 235.382 46.1319 235.432 46.2321 235.532C46.3324 235.632 46.3324 235.582 46.2321 235.382C46.2321 235.181 46.2321 235.131 46.2321 235.231C46.6332 236.033 47.2848 236.435 48.1871 236.435C49.1897 236.435 49.9416 236.535 50.4429 236.735C50.5432 236.936 50.6936 237.136 50.8941 237.337L51.4956 237.938C52.3979 238.74 53.3504 239.141 54.3529 239.141C55.4558 239.041 56.5084 238.991 57.511 238.991C57.511 239.192 57.5611 239.442 57.6614 239.743V240.345C57.6614 240.445 57.7115 240.545 57.8118 240.645C57.6113 240.846 57.11 241.096 56.3079 241.397C55.5059 241.598 55.0046 241.798 54.8041 241.999V249.067C54.8041 249.568 55.0046 249.819 55.4056 249.819C55.6061 249.819 55.7565 249.368 55.8568 248.465C55.957 247.463 56.1074 246.41 56.3079 245.307C56.5084 244.204 56.7591 243.252 57.0599 242.45C57.4609 241.548 58.0123 241.147 58.7141 241.247L60.5187 243.803C60.5187 244.104 60.5689 244.505 60.6691 245.006C60.7694 245.508 61.0701 245.758 61.5714 245.758C62.0727 245.758 62.4737 245.658 62.7745 245.458C63.0753 245.257 63.4262 245.157 63.8272 245.157C64.529 245.157 64.9802 245.357 65.1807 245.758C65.4814 246.059 65.7321 246.46 65.9326 246.961H69.0907C68.8902 246.961 68.5393 246.811 68.038 246.51C67.5367 246.21 67.2359 245.959 67.1357 245.758C67.1357 245.758 67.0855 245.658 66.9853 245.458L67.1357 245.157C67.2359 245.057 67.3362 244.906 67.4364 244.706C67.5367 244.505 67.637 244.405 67.7372 244.405C68.1382 244.605 68.84 244.856 69.8426 245.157C70.8452 245.458 71.4467 245.658 71.6472 245.758C71.8477 245.859 72.4994 245.909 73.6022 245.909C74.8053 245.809 75.5071 245.758 75.7076 245.758C75.8079 245.859 76.0084 245.959 76.3092 246.059C76.6099 246.159 76.8606 246.26 77.0611 246.36C77.0611 246.56 77.1112 246.961 77.2115 247.563C77.412 248.064 77.5624 248.365 77.6626 248.465C77.8632 248.666 78.1639 248.616 78.5649 248.315C78.966 248.014 79.2166 247.864 79.3169 247.864C79.3169 247.663 79.367 247.613 79.4673 247.713C79.5675 247.814 79.5675 247.864 79.4673 247.864C79.4673 247.663 79.367 247.413 79.1665 247.112C78.966 246.711 78.8657 246.46 78.8657 246.36C78.8657 246.36 78.8156 246.26 78.7153 246.059V245.758H79.4673C79.768 245.859 80.1189 246.009 80.52 246.21C81.0212 246.31 81.322 246.36 81.4223 246.36L81.5727 246.661C81.5727 247.864 81.2218 248.716 80.52 249.217C79.9184 249.719 79.367 250.32 78.8657 251.022V251.774C78.6652 252.576 78.3644 253.127 77.9634 253.428C77.5624 253.629 77.1112 253.729 76.6099 253.729C76.2089 253.729 75.8079 253.729 75.4069 253.729C75.0058 253.629 74.6549 253.578 74.3542 253.578L75.7076 255.533C75.8079 255.634 75.7578 255.784 75.5572 255.985C75.457 256.085 75.3066 256.135 75.1061 256.135C74.4043 256.135 73.9531 255.934 73.7526 255.533C73.5521 255.132 73.4017 254.731 73.3015 254.33C73.3015 253.829 73.2513 253.378 73.1511 252.977C73.0508 252.576 72.7501 252.375 72.2488 252.375C71.948 252.375 71.8477 252.726 71.948 253.428C72.0483 254.13 71.9981 254.832 71.7976 255.533C71.6974 256.135 71.2963 256.536 70.5945 256.737C69.993 256.937 68.84 256.536 67.1357 255.533V251.473C67.0354 251.473 66.9352 251.423 66.8349 251.323L66.5341 251.022C66.4339 251.222 66.2835 251.473 66.083 251.774C65.9827 252.075 65.9326 252.275 65.9326 252.375C65.8323 252.776 65.8323 253.679 65.9326 255.082C66.1331 256.486 66.2334 257.438 66.2334 257.94L66.5341 258.24C66.6344 258.04 66.7346 257.789 66.8349 257.488C67.0354 257.188 67.1357 256.937 67.1357 256.737C67.637 257.138 68.0881 257.639 68.4891 258.24C68.8902 258.742 69.0907 259.243 69.0907 259.744C69.0907 260.246 68.9904 260.596 68.7899 260.797C68.5894 260.897 68.4891 261.248 68.4891 261.85C68.4891 262.251 68.4891 262.351 68.4891 262.15C68.5894 261.95 68.6897 261.649 68.7899 261.248C68.8902 260.747 69.0406 260.296 69.2411 259.895C69.4416 259.494 69.7423 259.293 70.1434 259.293L71.948 258.24C72.349 257.94 72.7501 257.689 73.1511 257.488C73.9531 257.087 74.3542 256.987 74.3542 257.188L73.1511 264.857C71.0457 264.857 69.3413 265.258 68.038 266.06C66.8349 266.963 65.331 267.414 63.5264 267.414C62.5239 267.414 61.6717 267.364 60.9699 267.263C60.3683 267.263 59.5663 267.063 58.5637 266.662ZM46.6833 257.488C46.6833 258.391 47.1344 258.892 48.0367 258.992C48.9391 258.992 49.7912 258.992 50.5933 258.992C50.5933 258.19 50.092 257.739 49.0894 257.639C48.1871 257.539 47.3851 257.488 46.6833 257.488ZM36.6075 252.977C36.7077 253.177 36.9082 253.528 37.209 254.03C37.5098 254.531 37.7604 254.832 37.9609 254.932C38.0612 254.832 38.1615 254.631 38.2617 254.33C38.4622 253.929 38.5625 253.679 38.5625 253.578V253.278V252.977C38.5625 252.776 38.4622 252.526 38.2617 252.225C38.1615 251.924 38.0612 251.774 37.9609 251.774H37.8106C37.7103 251.774 37.61 251.724 37.5098 251.623L37.209 251.774C36.808 251.774 36.6075 251.974 36.6075 252.375C36.6075 252.375 36.5573 252.476 36.4571 252.676L36.6075 252.977ZM56.6087 250.571C56.6087 251.072 56.709 251.373 56.9095 251.473C57.2102 251.473 57.5611 251.523 57.9622 251.623C58.3632 251.724 58.7141 251.974 59.0149 252.375C59.4159 252.676 59.7167 253.328 59.9172 254.33C59.9172 254.13 60.0174 253.779 60.2179 253.278C60.4185 252.776 60.619 252.476 60.8195 252.375C60.8195 252.275 60.9197 252.325 61.1203 252.526C61.3208 252.626 61.4712 252.676 61.5714 252.676C61.5714 253.177 61.5714 253.629 61.5714 254.03C61.5714 254.33 61.9724 254.481 62.7745 254.481C62.7745 253.779 62.7244 252.776 62.6241 251.473C62.5239 250.17 62.0727 249.368 61.2706 249.067C61.1704 249.067 60.9699 249.117 60.6691 249.217C60.3683 249.318 60.1177 249.368 59.9172 249.368V246.961L56.7591 250.42L56.6087 250.571ZM27.434 252.977C27.1332 252.977 26.9828 253.228 26.9828 253.729C26.9828 254.13 27.1332 254.33 27.434 254.33C27.7347 254.33 27.8851 254.13 27.8851 253.729C27.8851 253.228 27.7347 252.977 27.434 252.977ZM35.254 253.578C35.4545 253.378 35.3543 253.278 34.9532 253.278C34.5522 253.278 34.4519 253.378 34.6525 253.578C34.7527 253.879 34.853 254.03 34.9532 254.03C35.1537 254.03 35.254 253.879 35.254 253.578ZM68.4891 252.977L69.0907 252.375H68.4891V252.977ZM51.4956 251.774L52.2475 251.022L51.4956 250.42V251.774ZM63.8272 250.42L64.5791 249.819H63.8272V250.42ZM63.376 248.465C63.0753 248.465 62.9249 248.716 62.9249 249.217C62.9249 249.618 63.0753 249.819 63.376 249.819C63.5766 249.819 63.6768 249.618 63.6768 249.217C63.6768 248.716 63.5766 248.465 63.376 248.465ZM62.7745 247.864C62.3735 247.864 62.173 248.064 62.173 248.465C62.173 248.866 62.3735 249.067 62.7745 249.067C63.0753 249.067 63.2257 248.866 63.2257 248.465C63.2257 248.064 63.0753 247.864 62.7745 247.864ZM62.0226 246.961C61.8221 246.961 61.7218 247.112 61.7218 247.413C61.7218 247.713 61.8221 247.864 62.0226 247.864C62.4236 247.262 62.4236 246.961 62.0226 246.961ZM32.3967 238.239C32.3967 239.041 32.5471 239.843 32.8478 240.645C33.2489 241.347 33.8504 241.698 34.6525 241.698H34.9532C35.0535 241.698 35.1537 241.648 35.254 241.548C35.3543 241.447 35.4545 241.297 35.5548 241.096C35.7553 240.896 36.1062 240.445 36.6075 239.743L36.7579 239.292C36.7579 239.192 36.7077 239.091 36.6075 238.991C35.9057 238.791 35.2039 238.64 34.5021 238.54C33.9005 238.339 33.1987 238.239 32.3967 238.239ZM48.3375 237.938C48.3375 237.938 48.2874 238.189 48.1871 238.69C48.0869 239.091 47.9866 239.593 47.8864 240.194C47.7861 240.695 47.6858 241.247 47.5856 241.848C47.4853 242.45 47.3851 242.901 47.2848 243.202V243.803V244.405C47.3851 244.405 47.5856 244.656 47.8864 245.157C48.1871 245.558 48.4879 245.909 48.7887 246.21C49.1897 246.51 49.4905 246.51 49.691 246.21C49.8915 245.909 49.9918 244.906 49.9918 243.202C49.9918 243.102 50.092 242.951 50.2925 242.751L50.5933 242.45C50.5933 242.35 50.5432 242.099 50.4429 241.698C50.4429 241.197 50.3928 240.695 50.2925 240.194C50.1923 239.693 50.092 239.242 49.9918 238.841C49.9918 238.339 49.9918 238.039 49.9918 237.938H48.3375ZM45.781 239.141C45.1794 239.141 44.7784 239.392 44.5779 239.893C44.3774 240.395 44.2771 240.846 44.2771 241.247C44.9789 241.247 45.3799 241.046 45.4802 240.645C45.6807 240.144 45.781 239.643 45.781 239.141ZM37.209 239.442C37.61 238.941 37.8106 238.54 37.8106 238.239C37.9108 237.938 37.9609 237.537 37.9609 237.036C37.9609 236.836 37.9609 236.535 37.9609 236.134C37.9609 235.733 37.7103 235.432 37.209 235.231L36.6075 236.134L37.209 239.442ZM20.817 235.231H21.1178C21.1178 235.031 21.1679 234.63 21.2682 234.028C21.3684 233.327 21.6692 232.875 22.1705 232.675L21.8697 232.374L21.5689 232.073L21.1178 231.923C21.1178 231.923 21.0175 231.973 20.817 232.073V235.231ZM37.9609 234.028C38.4622 233.828 38.7129 233.377 38.7129 232.675H37.9609V234.028ZM25.479 232.675C25.0779 232.675 24.8774 232.926 24.8774 233.427C24.8774 233.828 25.0779 234.028 25.479 234.028C25.88 234.028 26.0805 233.828 26.0805 233.427C26.0805 232.926 25.88 232.675 25.479 232.675ZM23.6743 230.118C23.2733 230.118 23.0728 230.369 23.0728 230.87C23.0728 231.271 23.2733 231.472 23.6743 231.472C23.9751 231.472 24.1255 231.271 24.1255 230.87C24.1255 230.369 23.9751 230.118 23.6743 230.118ZM26.2309 229.517H26.8324L26.2309 228.915V229.517ZM37.9609 228.163C37.5599 228.163 37.3594 228.414 37.3594 228.915C37.3594 229.316 37.5599 229.517 37.9609 229.517C38.2617 229.517 38.4121 229.316 38.4121 228.915C38.4121 228.414 38.2617 228.163 37.9609 228.163ZM34.2013 221.697C34.2013 221.797 34.3016 221.947 34.5021 222.148L34.6525 222.298C34.6525 222.499 34.6525 222.9 34.6525 223.501C34.6525 224.103 34.6525 224.755 34.6525 225.456C34.7527 226.158 34.8028 226.81 34.8028 227.411C34.8028 227.913 34.8028 228.264 34.8028 228.464C35.1036 228.464 35.254 228.364 35.254 228.163C35.4545 228.063 35.6049 227.762 35.7052 227.261C35.8054 226.76 35.9057 226.409 36.0059 226.208L36.6075 225.908C37.0085 225.707 37.209 225.607 37.209 225.607V224.404C37.209 224.203 37.3093 223.752 37.5098 223.05C37.8106 222.248 37.9609 221.797 37.9609 221.697C37.9609 221.296 37.7604 221.045 37.3594 220.945C37.0586 220.744 36.7077 220.644 36.3067 220.644C35.9057 220.544 35.5046 220.393 35.1036 220.193C34.8028 219.992 34.6525 219.641 34.6525 219.14C34.4519 219.24 34.2514 219.541 34.0509 220.043C33.9507 220.544 33.9005 220.895 33.9005 221.095L34.2013 221.697ZM26.8324 226.208C27.5342 226.409 28.1859 226.609 28.7874 226.81C29.389 227.01 30.0406 227.111 30.7424 227.111C30.7424 226.409 30.5419 226.008 30.1409 225.908C29.7399 225.707 29.2386 225.607 28.6371 225.607C28.4365 225.607 28.0856 225.607 27.5844 225.607C27.1833 225.607 26.9327 225.807 26.8324 226.208ZM36.6075 216.433C36.2064 216.433 36.0059 216.634 36.0059 217.035V217.336V217.636L36.6075 217.035V216.884V216.433ZM59.3156 215.832L59.9172 217.636L60.3683 217.937L60.8195 217.636C60.8195 217.536 60.8696 217.386 60.9699 217.185C61.1704 216.784 61.2706 216.534 61.2706 216.433L61.7218 214.027C61.7218 213.626 61.3709 213.726 60.6691 214.328C60.0676 214.829 59.5663 215.08 59.1653 215.08L59.3156 215.832ZM50.1421 215.23C50.1421 215.731 50.3928 216.133 50.8941 216.433V215.23H50.1421ZM65.6318 203.199C65.4313 203.199 65.1807 203.45 64.8799 203.951C64.6794 204.352 64.4789 204.803 64.2784 205.305C64.1781 205.806 64.0778 206.307 63.9776 206.809C63.9776 207.21 64.0778 207.41 64.2784 207.41C64.4789 207.41 64.6794 207.21 64.8799 206.809C65.1807 206.307 65.3812 205.806 65.4814 205.305C65.6819 204.803 65.7822 204.352 65.7822 203.951C65.8825 203.45 65.8323 203.199 65.6318 203.199ZM28.6371 186.055C28.3363 186.055 28.1859 186.256 28.1859 186.657C28.1859 186.958 28.3363 187.108 28.6371 187.108C29.0381 187.108 29.2386 186.958 29.2386 186.657C29.2386 186.256 29.0381 186.055 28.6371 186.055ZM36.4571 169.062C36.4571 169.663 36.6576 170.065 37.0586 170.265C37.5599 170.365 38.0612 170.415 38.5625 170.415V168.16C38.362 168.16 38.0111 168.26 37.5098 168.46C37.0085 168.561 36.7077 168.661 36.6075 168.761L36.4571 169.062ZM116.471 259.594C115.369 259.594 114.216 259.945 113.013 260.647C111.91 261.348 110.757 261.549 109.554 261.248C109.052 261.148 108.852 260.797 108.952 260.195C109.052 259.494 109.103 258.792 109.103 258.09C109.103 257.288 108.952 256.586 108.651 255.985C108.451 255.283 107.849 254.932 106.847 254.932H106.546C105.744 255.433 105.243 256.285 105.042 257.488C104.942 258.692 104.892 259.393 104.892 259.594C104.29 259.293 103.839 259.193 103.538 259.293C103.238 259.293 102.937 259.443 102.636 259.744C102.435 259.945 102.235 260.145 102.034 260.346C101.834 260.546 101.533 260.596 101.132 260.496C100.13 260.496 99.2774 259.995 98.5756 258.992C97.974 257.99 97.4728 256.887 97.0717 255.684C96.771 254.38 96.5203 253.077 96.3198 251.774C96.2195 250.47 96.1694 249.518 96.1694 248.916C96.3699 248.114 96.6206 247.312 96.9213 246.51C97.3224 245.708 97.573 244.856 97.6733 243.954L103.238 244.255C103.639 244.756 104.19 245.307 104.892 245.909C105.594 246.41 106.345 246.711 107.148 246.811C108.25 246.811 109.353 246.51 110.456 245.909C111.559 245.207 112.662 244.906 113.764 245.006C114.567 245.006 115.018 245.257 115.118 245.758C115.318 246.26 115.82 246.51 116.622 246.51C117.424 246.51 118.025 246.41 118.426 246.21C118.827 245.909 119.279 245.357 119.78 244.555C119.178 244.555 118.777 244.305 118.577 243.803C118.477 243.603 118.727 243.202 119.329 242.6C119.93 241.999 120.281 241.598 120.381 241.397C120.381 240.194 120.281 238.64 120.081 236.735C119.98 234.73 119.83 232.675 119.63 230.569C119.529 228.464 119.479 226.459 119.479 224.554C119.479 222.549 119.63 220.995 119.93 219.892C119.93 219.692 119.98 219.291 120.081 218.689C120.281 217.987 120.482 217.235 120.682 216.433C120.883 215.531 121.033 214.679 121.133 213.877C121.334 213.075 121.484 212.473 121.585 212.072C121.785 210.869 121.735 209.866 121.434 209.064C121.234 208.262 121.133 207.41 121.133 206.508C121.133 206.307 121.183 205.756 121.284 204.854C121.384 203.851 121.484 203.049 121.585 202.447C121.885 200.442 122.186 198.437 122.487 196.432C122.888 194.327 122.988 192.271 122.788 190.266C122.788 190.166 122.587 189.865 122.186 189.364C121.785 188.863 121.484 188.612 121.284 188.612C121.484 188.311 121.635 187.76 121.735 186.958C121.835 186.055 121.935 185.454 122.036 185.153H121.735H121.434H121.284C121.183 185.354 121.033 185.554 120.833 185.755C120.632 185.955 120.532 186.106 120.532 186.206C120.031 186.406 119.429 186.757 118.727 187.259C118.126 187.66 117.725 187.96 117.524 188.161C117.424 188.161 117.123 188.261 116.622 188.462C116.221 188.562 115.77 188.712 115.268 188.913C114.767 189.013 114.316 189.163 113.915 189.364C113.514 189.464 113.313 189.564 113.313 189.665C112.311 190.066 111.208 190.717 110.005 191.62C108.902 192.422 107.699 193.224 106.396 194.026C105.193 194.728 103.939 195.329 102.636 195.831C101.433 196.232 100.23 196.232 99.0267 195.831C99.4278 194.627 99.5782 193.575 99.4779 192.672C99.4779 191.77 99.3275 190.918 99.0267 190.116C98.726 189.314 98.3249 188.462 97.8237 187.559C97.3224 186.657 96.771 185.604 96.1694 184.401C96.1694 184.301 96.1694 184.1 96.1694 183.8C96.2697 183.399 96.3198 183.148 96.3198 183.048C96.4201 182.747 96.5704 182.346 96.771 181.845C97.0717 181.343 97.573 181.293 98.2748 181.694C98.3751 181.795 98.5255 182.045 98.726 182.446C98.9265 182.847 99.127 183.148 99.3275 183.349H99.4779C99.7787 183.449 100.23 183.349 100.831 183.048C101.433 182.647 102.034 182.196 102.636 181.694C103.338 181.193 103.939 180.692 104.441 180.19C104.942 179.589 105.193 179.138 105.193 178.837C105.493 178.235 105.543 177.734 105.343 177.333C105.243 176.832 105.293 176.23 105.493 175.528L107.298 175.98C107.899 174.175 108.401 173.072 108.802 172.671C109.203 172.17 109.604 171.969 110.005 172.07C110.406 172.17 110.857 172.32 111.358 172.521C111.96 172.721 112.712 172.471 113.614 171.769C114.015 171.468 114.266 171.217 114.366 171.017C114.466 170.716 114.516 170.516 114.516 170.415C114.617 170.215 114.717 170.115 114.817 170.115C115.018 170.115 115.419 170.215 116.02 170.415C116.522 170.415 116.923 170.566 117.223 170.867C117.023 170.766 116.622 170.917 116.02 171.318C115.519 171.719 115.218 172.02 115.118 172.22C114.917 172.32 114.817 172.721 114.817 173.423C114.817 174.025 114.767 174.476 114.667 174.777C115.268 174.977 115.72 174.877 116.02 174.476C116.321 173.975 116.672 173.473 117.073 172.972C117.474 172.37 117.975 171.919 118.577 171.618C119.178 171.217 120.031 171.217 121.133 171.618L122.487 166.806C122.587 166.606 122.838 166.505 123.239 166.505C123.64 166.405 123.941 166.455 124.141 166.656C125.444 167.358 126.898 168.46 128.502 169.964C130.207 171.468 131.309 172.671 131.811 173.573C131.911 173.774 132.162 174.075 132.563 174.476C132.964 174.877 133.264 175.178 133.465 175.378C134.367 176.481 134.818 178.035 134.818 180.04C134.818 182.045 134.668 184.1 134.367 186.206C134.167 188.211 134.016 190.116 133.916 191.92C133.816 193.625 134.117 194.778 134.818 195.379C134.818 195.78 134.768 196.432 134.668 197.334C134.568 198.136 134.417 199.039 134.217 200.041C134.117 200.944 133.966 201.846 133.766 202.748C133.565 203.55 133.415 204.152 133.315 204.553L133.014 205.455C132.813 206.057 132.763 206.357 132.863 206.357C132.964 206.558 133.315 206.809 133.916 207.109C134.518 207.41 134.869 207.661 134.969 207.861C135.169 208.663 135.119 209.866 134.818 211.471C134.618 213.075 134.317 214.779 133.916 216.584C133.515 218.388 133.114 220.143 132.713 221.847C132.312 223.451 132.061 224.704 131.961 225.607C132.061 225.707 132.212 226.208 132.412 227.111C132.613 227.913 132.713 228.364 132.713 228.464C132.613 229.767 132.513 230.72 132.412 231.321C132.312 231.923 132.262 232.474 132.262 232.976C132.262 233.477 132.312 234.078 132.412 234.78C132.513 235.382 132.763 236.334 133.164 237.638V237.938C133.164 238.039 133.114 238.089 133.014 238.089C133.014 238.089 133.014 238.139 133.014 238.239V238.54C132.914 238.54 132.763 238.59 132.563 238.69C132.362 238.69 132.212 238.69 132.111 238.69L131.961 238.991V239.442L133.315 239.141C133.014 239.442 132.713 240.144 132.412 241.247C132.111 242.35 132.061 243.102 132.262 243.503C132.362 244.104 132.713 244.555 133.315 244.856C134.016 245.057 134.818 245.257 135.721 245.458C136.623 245.558 137.575 245.658 138.578 245.758C139.581 245.758 140.433 245.809 141.135 245.909C141.636 246.009 141.987 246.009 142.187 245.909C142.488 245.708 142.889 245.257 143.39 244.555L143.24 246.661C143.441 246.56 143.791 246.46 144.293 246.36C144.894 246.159 145.295 246.059 145.496 246.059C145.496 246.159 145.546 246.21 145.646 246.21H145.947C146.248 246.21 146.448 246.31 146.548 246.51C146.649 246.711 146.949 246.911 147.451 247.112C147.651 247.112 147.952 247.012 148.353 246.811C148.754 246.611 148.955 246.36 148.955 246.059V245.758C148.754 245.658 148.403 245.458 147.902 245.157C147.501 244.856 147.2 244.706 147 244.706C147.1 244.706 147.2 244.555 147.3 244.255C147.501 243.954 147.651 243.803 147.752 243.803V243.653C147.752 243.653 147.852 243.703 148.052 243.803H148.353C150.258 244.605 151.762 245.057 152.865 245.157C154.068 245.257 154.92 245.508 155.421 245.909C156.023 246.31 156.374 247.112 156.474 248.315C156.574 249.418 156.524 251.373 156.324 254.18C156.324 254.782 156.273 255.834 156.173 257.338C156.073 258.742 155.722 259.844 155.12 260.647L154.519 259.744L154.82 254.33C154.619 254.33 154.369 254.38 154.068 254.481C153.867 254.481 153.667 254.481 153.466 254.481C153.266 254.481 153.115 254.38 153.015 254.18C152.915 253.979 152.915 253.629 153.015 253.127C152.514 253.528 152.063 254.13 151.662 254.932C151.361 255.634 151.01 256.386 150.609 257.188C150.208 257.99 149.857 258.692 149.556 259.293C149.255 259.895 148.955 260.246 148.654 260.346C148.654 260.246 148.554 260.145 148.353 260.045C148.153 259.844 148.052 259.694 148.052 259.594H147.601L147.3 259.293C147.1 259.494 146.799 259.744 146.398 260.045C145.997 260.246 145.746 260.446 145.646 260.647V258.692C144.944 259.093 144.343 259.544 143.842 260.045C143.441 260.546 142.989 261.148 142.488 261.85C142.288 261.649 142.087 261.348 141.887 260.947C141.686 260.546 141.435 260.195 141.135 259.895C141.335 260.396 141.285 260.747 140.984 260.947C140.683 261.048 140.383 261.098 140.082 261.098C139.681 261.098 139.43 260.997 139.33 260.797C139.23 260.496 139.129 260.195 139.029 259.895C139.029 259.594 138.979 259.343 138.879 259.143C138.779 258.842 138.528 258.692 138.127 258.692H137.676C137.575 258.692 137.475 258.742 137.375 258.842C137.475 259.945 137.124 260.897 136.322 261.699C135.62 262.501 134.818 263.003 133.916 263.203V261.549C133.415 261.549 133.014 261.699 132.713 262C132.513 262.201 132.262 262.501 131.961 262.902C131.66 263.303 131.309 263.654 130.908 263.955C130.608 264.256 130.156 264.406 129.555 264.406H129.405L128.653 263.805C128.151 263.805 127.75 263.955 127.45 264.256C127.049 263.353 126.647 262.752 126.246 262.451C125.946 262.251 125.394 262.1 124.592 262C123.289 261.699 122.236 262.351 121.434 263.955C121.334 263.754 121.133 263.454 120.833 263.053C120.532 262.752 120.281 262.551 120.081 262.451H119.329C118.928 262.451 118.727 262.401 118.727 262.301C118.426 261.9 118.226 261.549 118.126 261.248C118.025 260.947 117.925 260.697 117.825 260.496C117.825 260.195 117.725 259.995 117.524 259.895C117.424 259.694 117.073 259.594 116.471 259.594ZM131.209 259.744C130.808 259.945 130.608 260.246 130.608 260.647C130.608 260.947 130.558 261.248 130.457 261.549L131.209 261.85V259.744ZM134.217 258.692C134.016 258.591 133.916 258.692 133.916 258.992C133.916 259.293 134.016 259.443 134.217 259.443C134.718 259.443 134.718 259.193 134.217 258.692ZM132.111 257.789C131.71 257.789 131.51 258.04 131.51 258.541C131.51 259.042 131.71 259.293 132.111 259.293C132.412 259.393 132.563 259.193 132.563 258.692C132.563 258.19 132.412 257.889 132.111 257.789ZM137.676 254.03C137.174 254.33 136.874 254.832 136.773 255.533C136.673 256.235 136.623 256.686 136.623 256.887L137.525 256.737L137.676 254.03ZM127.75 255.082C127.75 255.183 127.8 255.283 127.901 255.383L128.201 255.684C128.201 255.684 128.252 255.584 128.352 255.383L128.201 255.082C128.201 254.681 128.051 254.481 127.75 254.481C127.75 254.481 127.7 254.531 127.6 254.631L127.75 255.082ZM131.51 255.834H132.262L132.412 255.233L131.51 255.834ZM130.608 252.375C130.207 252.476 130.006 252.776 130.006 253.278C130.006 253.679 130.207 253.829 130.608 253.729C130.908 253.829 131.059 253.679 131.059 253.278C131.059 252.776 130.908 252.476 130.608 252.375ZM135.27 251.473C134.768 251.874 134.518 252.375 134.518 252.977V253.578C134.818 253.378 134.969 253.127 134.969 252.827C135.069 252.526 135.119 252.275 135.119 252.075C135.219 251.974 135.27 251.774 135.27 251.473ZM113.013 176.581C113.013 176.782 112.912 177.333 112.712 178.235C112.612 179.037 112.812 179.589 113.313 179.89C113.915 179.789 114.316 179.639 114.516 179.439C114.817 179.138 115.068 178.787 115.268 178.386C115.469 177.885 115.318 177.534 114.817 177.333C114.416 177.032 114.015 176.832 113.614 176.732C113.514 176.732 113.414 176.732 113.313 176.732C113.213 176.631 113.113 176.581 113.013 176.581ZM112.712 174.927C112.511 174.827 112.311 175.027 112.11 175.528C112.01 175.93 112.11 176.23 112.411 176.431C112.712 176.531 112.862 176.331 112.862 175.829C112.962 175.328 112.912 175.027 112.712 174.927Z" fill="#FA8FD7"/>
</g>
<defs>
<filter id="filter0_b_472_89" x="-30" y="-30" width="356" height="356" filterUnits="userSpaceOnUse" color-interpolation-filters="sRGB">
<feFlood flood-opacity="0" result="BackgroundImageFix"/>
<feGaussianBlur in="BackgroundImageFix" stdDeviation="15"/>
<feComposite in2="SourceAlpha" operator="in" result="effect1_backgroundBlur_472_89"/>
<feBlend mode="normal" in="SourceGraphic" in2="effect1_backgroundBlur_472_89" result="shape"/>
</filter>
<linearGradient id="paint0_linear_472_89" x1="9.73151" y1="276.132" x2="296" y2="-7.16293e-06" gradientUnits="userSpaceOnUse">
<stop stop-color="white"/>
<stop offset="1" stop-color="white" stop-opacity="0.3"/>
</linearGradient>
<linearGradient id="paint1_linear_472_89" x1="-1.85534e-06" y1="65.6877" x2="244.91" y2="296" gradientUnits="userSpaceOnUse">
<stop stop-color="#F6F6F6"/>
<stop offset="1" stop-color="white" stop-opacity="0"/>
</linearGradient>
<linearGradient id="paint2_linear_472_89" x1="211" y1="24.9999" x2="276.5" y2="27" gradientUnits="userSpaceOnUse">
<stop stop-color="#404040"/>
<stop offset="1" stop-color="#999999"/>
</linearGradient>
<linearGradient id="paint3_linear_472_89" x1="270" y1="88" x2="272.5" y2="20" gradientUnits="userSpaceOnUse">
<stop stop-color="#404040"/>
<stop offset="1" stop-color="#999999"/>
</linearGradient>
<linearGradient id="paint4_linear_472_89" x1="213" y1="82" x2="275.5" y2="24" gradientUnits="userSpaceOnUse">
<stop stop-color="#404040"/>
<stop offset="1" stop-color="#999999"/>
</linearGradient>
<clipPath id="clip0_472_89">
<rect width="296" height="296" rx="24" fill="white"/>
</clipPath>
</defs>
</svg>
