<svg width="296" height="296" viewBox="0 0 296 296" fill="none" xmlns="http://www.w3.org/2000/svg">
<g clip-path="url(#clip0_472_70)">
<rect width="296" height="296" rx="24" fill="white"/>
<g filter="url(#filter0_b_472_70)">
<rect width="296" height="296" rx="24" fill="url(#paint0_linear_472_70)"/>
<rect x="1" y="1" width="294" height="294" rx="23" stroke="url(#paint1_linear_472_70)" stroke-width="2"/>
</g>
<path opacity="0.8" d="M152.171 238.216H153.228V236.119H154.268V229.794H162.877V239.477H161.65V231.022H155.512V236.289H154.455V238.403H153.398V239.477H152.171V238.216ZM169.73 231.891H170.787V230.851H171.844V229.794H177.283V230.851H178.34V231.891H179.397V235.249H170.975V237.176H172.032V238.216H177.112V237.176H178.152V236.119H179.397V237.346H178.34V238.403H177.283V239.477H171.844V238.403H170.787V237.346H169.73V231.891ZM178.152 234.005V232.078H177.112V231.022H172.032V232.078H170.975V234.005H178.152ZM190.989 231.022H186.778V229.794H196.445V231.022H192.234V239.477H190.989V231.022ZM153.211 253.794H154.455V258.005H160.593V253.794H161.82V263.477H160.593V259.249H154.455V263.477H153.211V253.794ZM169.73 258.005H170.787V256.948H177.112V255.022H170.975V256.078H169.73V254.851H170.787V253.794H177.283V254.851H178.34V262.216H179.397V263.477H178.152V262.403H176.243V263.477H170.787V262.403H169.73V258.005ZM176.055 262.216V261.176H177.112V258.192H170.975V262.216H176.055ZM195.303 253.794H196.547V254.851H197.416V253.794H202.855V254.851H203.912V255.891H204.969V260.289H203.912V261.346H202.855V262.403H197.416V261.346H196.547V264.534H195.303V253.794ZM197.604 260.119V261.176H202.684V260.119H203.724V256.078H202.684V255.022H197.604V256.078H196.547V260.119H197.604ZM211.839 253.794H213.067V256.948H219.391V258.005H220.431V262.403H219.391V263.477H211.839V253.794ZM221.301 253.794H222.545V263.477H221.301V253.794ZM219.204 262.216V258.192H213.067V262.216H219.204ZM229.927 253.794H231.172V258.005H237.309V253.794H238.536V263.477H237.309V259.249H231.172V263.477H229.927V253.794ZM246.447 253.794H247.691V258.005H251.715V256.948H252.771V255.891H253.828V253.794H255.056V256.078H253.999V257.135H252.959V258.192H251.902V259.062H252.959V260.119H253.999V261.176H255.056V262.216H256.113V263.477H254.868V262.403H253.828V261.346H252.771V260.289H251.715V259.249H247.691V263.477H246.447V253.794ZM263.495 255.891H264.552V254.851H265.609V253.794H271.047V254.851H272.104V255.891H273.161V259.249H264.739V261.176H265.796V262.216H270.877V261.176H271.916V260.119H273.161V261.346H272.104V262.403H271.047V263.477H265.609V262.403H264.552V261.346H263.495V255.891ZM271.916 258.005V256.078H270.877V255.022H265.796V256.078H264.739V258.005H271.916Z" fill="#FC3D12"/>
<path d="M64.9179 211.232L7.25391 205.112H65.8699L64.9179 211.232ZM66.5499 198.176L8.88591 192.056H67.2299L66.5499 198.176ZM67.9099 185.12L10.5179 179H68.5899L67.9099 185.12ZM66.4139 257.472L63.1499 263.456L7.66191 257.472H66.4139ZM29.5579 218.168H88.3099L85.0459 224.152L29.5579 218.168ZM15.0059 244.28H73.7579L70.4939 250.264L15.0059 244.28ZM77.7019 237.072L22.3499 231.224H80.9659L77.7019 237.072ZM133.598 196L96.7419 264H67.5019L101.366 203.072H70.2219L72.6699 179H136.59L133.598 196Z" fill="#4185F3"/>
<line x1="213" y1="25.5" x2="271" y2="25.5" stroke="url(#paint2_linear_472_70)" stroke-width="3"/>
<line x1="271.5" y1="26" x2="271.5" y2="84" stroke="url(#paint3_linear_472_70)" stroke-width="3"/>
<line x1="272.061" y1="25.0607" x2="214.061" y2="83.0607" stroke="url(#paint4_linear_472_70)" stroke-width="3"/>
</g>
<defs>
<filter id="filter0_b_472_70" x="-30" y="-30" width="356" height="356" filterUnits="userSpaceOnUse" color-interpolation-filters="sRGB">
<feFlood flood-opacity="0" result="BackgroundImageFix"/>
<feGaussianBlur in="BackgroundImageFix" stdDeviation="15"/>
<feComposite in2="SourceAlpha" operator="in" result="effect1_backgroundBlur_472_70"/>
<feBlend mode="normal" in="SourceGraphic" in2="effect1_backgroundBlur_472_70" result="shape"/>
</filter>
<linearGradient id="paint0_linear_472_70" x1="9.73151" y1="276.132" x2="296" y2="-7.16293e-06" gradientUnits="userSpaceOnUse">
<stop stop-color="white"/>
<stop offset="1" stop-color="white" stop-opacity="0.3"/>
</linearGradient>
<linearGradient id="paint1_linear_472_70" x1="-1.85534e-06" y1="65.6877" x2="244.91" y2="296" gradientUnits="userSpaceOnUse">
<stop stop-color="white"/>
<stop offset="1" stop-color="white" stop-opacity="0"/>
</linearGradient>
<linearGradient id="paint2_linear_472_70" x1="211" y1="24.9999" x2="276.5" y2="27" gradientUnits="userSpaceOnUse">
<stop stop-color="#404040"/>
<stop offset="1" stop-color="#999999"/>
</linearGradient>
<linearGradient id="paint3_linear_472_70" x1="270" y1="88" x2="272.5" y2="20" gradientUnits="userSpaceOnUse">
<stop stop-color="#404040"/>
<stop offset="1" stop-color="#999999"/>
</linearGradient>
<linearGradient id="paint4_linear_472_70" x1="213" y1="82" x2="275.5" y2="24" gradientUnits="userSpaceOnUse">
<stop stop-color="#404040"/>
<stop offset="1" stop-color="#999999"/>
</linearGradient>
<clipPath id="clip0_472_70">
<rect width="296" height="296" rx="24" fill="white"/>
</clipPath>
</defs>
</svg>
