<svg width="400" height="429" viewBox="0 0 400 429" fill="none" xmlns="http://www.w3.org/2000/svg">
<g filter="url(#filter0_dddd_472_89)">
<g clip-path="url(#clip0_472_89)">
<g filter="url(#filter1_b_472_89)">
<rect x="52" y="10" width="296" height="296" rx="24" fill="url(#paint0_linear_472_89)"/>
<rect x="53" y="11" width="294" height="294" rx="23" stroke="url(#paint1_linear_472_89)" stroke-width="2"/>
</g>
<path opacity="0.8" d="M225.719 239.38C226.483 239.398 227.129 239.507 227.656 239.707C228.183 239.907 228.565 240.162 228.802 240.471C229.056 240.78 229.22 241.126 229.293 241.508C229.384 241.89 229.384 242.271 229.293 242.653C229.22 243.035 229.084 243.399 228.883 243.744C228.52 244.217 227.811 244.481 226.756 244.535C225.719 244.572 225.128 244.363 224.983 243.908C225.092 243.708 225.174 243.544 225.228 243.417C225.283 243.29 225.356 243.099 225.447 242.844C225.556 242.571 225.592 242.362 225.556 242.217C225.538 242.053 225.447 241.962 225.283 241.944C224.774 241.908 224.255 242.253 223.728 242.981C223.219 243.708 222.919 244.635 222.828 245.763C222.755 246.745 222.983 247.49 223.51 248C224.055 248.509 224.774 248.745 225.665 248.709C227.72 248.581 229.256 247.49 230.275 245.436C230.347 245.326 230.475 245.308 230.656 245.381C230.857 245.454 231.047 245.572 231.229 245.736C231.411 245.881 231.484 245.99 231.448 246.063C229.593 249.609 226.856 251.318 223.237 251.191C221.801 251.136 220.609 250.618 219.664 249.636C218.718 248.636 218.264 247.427 218.3 246.008C218.336 244.172 219.046 242.608 220.428 241.317C221.828 240.007 223.592 239.362 225.719 239.38ZM240 239.325C241.037 239.344 241.728 239.671 242.073 240.307C242.437 240.944 242.482 241.826 242.21 242.953C242.137 243.281 241.946 243.917 241.637 244.863C241.346 245.808 241.155 246.508 241.064 246.963C240.955 247.472 240.937 247.89 241.009 248.218C241.082 248.545 241.237 248.709 241.473 248.709C241.964 248.709 242.51 248.391 243.11 247.754C243.728 247.118 244.255 246.345 244.692 245.436C244.783 245.326 244.919 245.308 245.101 245.381C245.301 245.436 245.483 245.545 245.646 245.708C245.828 245.872 245.901 245.999 245.865 246.09C245.555 246.69 245.21 247.254 244.828 247.781C244.464 248.309 244.019 248.845 243.492 249.391C242.964 249.936 242.355 250.373 241.664 250.7C240.991 251.027 240.291 251.2 239.564 251.218C237 251.291 236.036 250.082 236.672 247.59C237.127 245.845 237.463 244.472 237.682 243.472C237.791 243.108 237.8 242.826 237.709 242.626C237.636 242.408 237.427 242.326 237.081 242.381C236.572 242.453 235.927 242.808 235.145 243.444C234.945 244.063 234.317 246.499 233.263 250.755C233.044 251.1 232.299 251.273 231.026 251.273C229.753 251.273 229.035 251.045 228.871 250.591C229.471 247.954 230.508 244.263 231.981 239.516C232.326 239.244 233.017 239.144 234.054 239.216C235.09 239.289 235.763 239.553 236.072 240.007C236.018 240.153 235.945 240.38 235.854 240.689C235.763 240.998 235.69 241.226 235.636 241.371C237.418 239.989 238.873 239.307 240 239.325ZM252.037 239.407C252.892 239.426 253.628 239.589 254.247 239.898C254.883 240.189 255.329 240.571 255.583 241.044C255.838 241.499 255.983 242.008 256.02 242.571C256.074 243.135 255.938 243.69 255.611 244.235C255.138 245.199 254.31 245.908 253.128 246.363C251.965 246.799 250.619 246.899 249.091 246.663C249.219 248.027 250.292 248.727 252.31 248.763C252.91 248.781 253.501 248.709 254.083 248.545C254.683 248.363 255.329 248.009 256.02 247.481C256.711 246.954 257.274 246.272 257.711 245.436C257.802 245.326 257.938 245.308 258.12 245.381C258.32 245.436 258.511 245.545 258.693 245.708C258.875 245.872 258.947 245.99 258.911 246.063C257.875 247.936 256.702 249.282 255.392 250.1C254.083 250.9 252.565 251.291 250.837 251.273C248.619 251.255 247 250.718 245.982 249.663C244.963 248.609 244.527 247.29 244.673 245.708C244.854 243.817 245.627 242.29 246.991 241.126C248.373 239.944 250.055 239.371 252.037 239.407ZM251.655 241.999C251.164 241.926 250.683 242.171 250.21 242.735C249.755 243.299 249.428 244.026 249.228 244.917C249.955 244.935 250.564 244.754 251.055 244.372C251.546 243.99 251.865 243.544 252.01 243.035C252.192 242.399 252.074 242.053 251.655 241.999ZM264.217 258.119C263.345 258.101 262.663 257.828 262.172 257.301C261.699 256.792 261.49 256.164 261.544 255.419C261.617 254.673 261.935 253.973 262.499 253.319C262.717 253.082 262.981 252.846 263.29 252.609C263.599 252.391 263.954 252.182 264.354 251.982C264.754 251.782 265.09 251.618 265.363 251.491C265.636 251.364 265.981 251.218 266.4 251.055C266.836 250.891 267.091 250.791 267.163 250.755L267.327 249.991C266.691 250.045 266.172 249.927 265.772 249.636C265.39 249.327 265.209 248.818 265.227 248.109C263.663 250.218 261.908 251.273 259.962 251.273C257.544 251.273 256.635 249.891 257.235 247.127C257.616 245.417 258.253 242.981 259.144 239.816C259.235 239.507 259.935 239.335 261.244 239.298C262.608 239.28 263.363 239.444 263.508 239.789C263.526 239.826 263.526 239.871 263.508 239.926L261.626 246.881C261.535 247.263 261.472 247.572 261.435 247.809C261.417 248.045 261.444 248.236 261.517 248.381C261.59 248.527 261.735 248.6 261.953 248.6C262.408 248.581 262.899 248.19 263.426 247.427C263.972 246.663 264.436 245.79 264.818 244.808C265.054 244.208 265.318 243.335 265.609 242.19C265.9 241.044 266.118 240.253 266.263 239.816C266.372 239.489 267.063 239.316 268.336 239.298C269.664 239.298 270.4 239.471 270.546 239.816V239.953C270.437 240.353 270.173 241.226 269.755 242.571C269.355 243.899 269.073 244.926 268.909 245.654C268.655 246.708 268.545 247.345 268.582 247.563C268.636 247.909 268.882 248.081 269.318 248.081C269.864 248.081 270.082 248.336 269.973 248.845C269.918 249.082 269.882 249.236 269.864 249.309C270.537 248.4 271.346 247.099 272.291 245.408C272.382 245.317 272.519 245.308 272.701 245.381C272.901 245.436 273.082 245.545 273.246 245.708C273.428 245.872 273.492 246.008 273.437 246.117C272.746 247.372 272.11 248.4 271.528 249.2C270.964 250 270.227 250.9 269.318 251.9C269.064 253.028 268.818 253.928 268.582 254.601C268.364 255.292 268.064 255.928 267.682 256.51C267.318 257.11 266.854 257.528 266.291 257.765C265.727 258.019 265.036 258.137 264.217 258.119ZM264.927 255.719C265.436 255.719 265.963 254.846 266.509 253.1C266.436 253.155 266.3 253.237 266.1 253.346C265.918 253.455 265.79 253.528 265.718 253.564C265.645 253.619 265.536 253.691 265.39 253.782C265.245 253.873 265.136 253.955 265.063 254.028C264.99 254.1 264.899 254.182 264.79 254.273C264.699 254.382 264.618 254.501 264.545 254.628C264.363 254.937 264.308 255.192 264.381 255.392C264.454 255.61 264.636 255.719 264.927 255.719ZM283.002 251.109C279.565 250.982 278.156 248.7 278.774 244.263C279.393 239.844 280.511 236.571 282.129 234.443C283.348 232.788 284.866 231.952 286.685 231.933C288.067 231.915 289.14 232.243 289.903 232.915C290.685 233.57 291.104 234.352 291.158 235.261C291.213 236.17 290.994 237.107 290.503 238.071C290.031 239.035 289.34 239.798 288.43 240.362C289.394 240.526 290.058 241.08 290.422 242.026C290.785 242.953 290.849 243.99 290.613 245.135C290.376 246.281 289.94 247.299 289.303 248.19C290.922 248.227 292.186 247.309 293.095 245.436C293.167 245.345 293.304 245.326 293.504 245.381C293.704 245.436 293.895 245.545 294.077 245.708C294.259 245.872 294.322 245.999 294.268 246.09C293.758 247.018 293.213 247.763 292.631 248.327C292.049 248.872 291.494 249.218 290.967 249.363C290.458 249.509 289.922 249.609 289.358 249.663C288.794 249.7 288.285 249.673 287.83 249.582C286.412 250.673 284.803 251.182 283.002 251.109ZM283.439 240.635C283.584 240.562 283.848 240.435 284.23 240.253C284.63 240.071 284.939 239.935 285.157 239.844C285.375 239.735 285.63 239.58 285.921 239.38C286.212 239.18 286.457 238.98 286.657 238.78C287.094 238.325 287.412 237.807 287.612 237.225C287.812 236.625 287.821 236.116 287.639 235.698C287.458 235.261 287.076 235.052 286.494 235.07C285.275 235.107 284.257 236.961 283.439 240.635ZM283.711 248.681C284.057 248.7 284.384 248.563 284.693 248.272C284.493 247.854 284.53 247.436 284.803 247.018C285.075 246.599 285.448 246.399 285.921 246.417C286.376 245.49 286.576 244.644 286.521 243.881C286.485 243.117 286.13 242.726 285.457 242.708C285.021 242.69 284.539 242.817 284.012 243.09C283.484 243.344 283.093 243.608 282.839 243.881C282.111 247.027 282.402 248.627 283.711 248.681ZM231.748 283.408C231.838 283.263 232.066 283.308 232.429 283.545C232.811 283.781 232.966 283.963 232.893 284.09C231.002 287.509 228.902 289.236 226.592 289.273C226.047 289.273 225.565 289.182 225.147 289C224.746 288.818 224.419 288.591 224.165 288.318C223.91 288.027 223.683 287.645 223.483 287.172C223.301 286.681 223.164 286.236 223.073 285.836C222.983 285.418 222.883 284.899 222.773 284.281C222.101 284.899 221.71 285.545 221.601 286.218L221.082 288.782C221.028 289.055 220.464 289.236 219.391 289.327C218.064 289.436 217.273 289.282 217.018 288.864C216.945 288.755 216.927 288.636 216.963 288.509C217.618 285.599 218.446 282.354 219.446 278.771C220.446 275.189 221.282 272.47 221.955 270.615C222.082 270.288 222.783 270.161 224.055 270.234C225.328 270.306 226.056 270.515 226.238 270.861C226.256 270.915 226.256 270.979 226.238 271.052C224.983 274.616 223.946 277.88 223.128 280.844C224.692 278.826 226.165 277.444 227.547 276.698C227.856 276.534 228.229 276.625 228.665 276.971C229.12 277.298 229.429 277.68 229.593 278.117C229.756 278.535 229.738 278.871 229.538 279.126C227.865 280.453 226.738 281.481 226.156 282.208C226.156 283.481 226.292 284.554 226.565 285.427C226.838 286.3 227.274 286.745 227.874 286.763C229.22 286.818 230.511 285.699 231.748 283.408ZM239.147 277.325C240.765 277.344 241.983 277.807 242.802 278.717C243.638 279.626 244.011 280.753 243.92 282.099C243.847 283.445 243.393 284.799 242.556 286.163C243.229 286.254 243.911 286.063 244.602 285.59C245.293 285.118 245.866 284.399 246.32 283.436C246.411 283.326 246.548 283.308 246.73 283.381C246.93 283.436 247.121 283.545 247.302 283.708C247.484 283.872 247.548 283.999 247.493 284.09C247.039 284.963 246.53 285.672 245.966 286.218C245.42 286.763 244.884 287.127 244.356 287.309C243.829 287.491 243.284 287.618 242.72 287.691C242.156 287.745 241.647 287.718 241.192 287.609C239.847 288.718 238.21 289.273 236.283 289.273C234.519 289.273 233.2 288.782 232.327 287.8C231.455 286.818 231.264 285.281 231.755 283.19C232.209 281.281 233.109 279.826 234.455 278.826C235.819 277.807 237.383 277.307 239.147 277.325ZM238.547 279.862C237.619 279.88 236.864 280.962 236.283 283.108C236.137 283.636 236.028 284.063 235.955 284.39C235.901 284.718 235.864 285.09 235.846 285.509C235.828 285.927 235.901 286.245 236.064 286.463C236.246 286.663 236.528 286.763 236.91 286.763C237.274 286.763 237.601 286.618 237.892 286.327C237.674 285.909 237.683 285.481 237.919 285.045C238.174 284.59 238.528 284.354 238.983 284.336C239.401 283.208 239.592 282.181 239.556 281.253C239.519 280.308 239.183 279.844 238.547 279.862ZM263.7 283.408C263.773 283.317 263.9 283.308 264.082 283.381C264.282 283.436 264.473 283.545 264.655 283.708C264.837 283.872 264.9 283.999 264.846 284.09C263.864 285.872 262.873 287.182 261.873 288.018C260.872 288.836 259.754 289.245 258.517 289.245C256.735 289.245 256.035 287.354 256.417 283.572C255.926 284.845 255.408 285.918 254.862 286.791C254.317 287.645 253.826 288.2 253.389 288.454C252.917 288.745 252.417 288.882 251.889 288.864C251.38 288.827 250.971 288.609 250.662 288.209C249.989 287.354 249.707 285.754 249.816 283.408C249.216 284.936 248.652 286.681 248.125 288.645C248.034 288.955 247.489 289.155 246.488 289.245C245.325 289.336 244.624 289.173 244.388 288.755C244.315 288.645 244.306 288.518 244.361 288.373C244.597 287.663 244.852 286.972 245.125 286.3C245.379 285.609 245.597 285.045 245.779 284.608C245.961 284.154 246.225 283.572 246.57 282.863C246.934 282.135 247.179 281.644 247.307 281.39C247.434 281.135 247.734 280.562 248.207 279.671C248.68 278.78 248.98 278.217 249.107 277.98C249.252 277.707 249.671 277.516 250.362 277.407C251.071 277.298 251.735 277.316 252.353 277.462C252.971 277.607 253.244 277.844 253.171 278.171C252.88 279.426 252.671 280.808 252.544 282.317C252.435 283.826 252.489 284.745 252.707 285.072C252.908 284.999 253.371 284.208 254.099 282.699C254.844 281.172 255.544 279.617 256.199 278.035C256.326 277.726 256.744 277.526 257.454 277.435C258.163 277.344 258.827 277.389 259.445 277.571C260.081 277.735 260.372 277.971 260.318 278.28C260.1 279.644 259.927 280.771 259.799 281.663C259.672 282.554 259.572 283.426 259.499 284.281C259.445 285.118 259.463 285.745 259.554 286.163C259.663 286.581 259.845 286.791 260.1 286.791C260.663 286.809 261.209 286.609 261.736 286.19C262.282 285.754 262.936 284.827 263.7 283.408ZM270.676 277.407C271.822 277.225 273.067 277.271 274.413 277.544C275.777 277.816 276.84 278.344 277.604 279.126C277.732 279.417 277.568 279.844 277.113 280.408C276.659 280.972 276.304 281.217 276.049 281.144C274.904 280.235 273.54 279.826 271.958 279.917C271.14 279.953 270.367 280.29 269.639 280.926C268.93 281.563 268.403 282.354 268.057 283.299C267.439 284.972 267.366 286.027 267.839 286.463C268.13 286.736 268.466 286.736 268.848 286.463C269.248 286.172 269.63 285.699 269.994 285.045C270.376 284.39 270.712 283.754 271.003 283.135C271.294 282.517 271.549 281.908 271.767 281.308C272.222 281.017 272.913 280.981 273.84 281.199C274.786 281.399 275.349 281.672 275.531 282.017C275.168 283.181 274.922 284.036 274.795 284.581C274.431 286.036 274.577 286.745 275.231 286.709C275.668 286.691 276.24 286.363 276.95 285.727C277.659 285.072 278.223 284.317 278.641 283.463C278.732 283.354 278.868 283.336 279.05 283.408C279.25 283.463 279.441 283.572 279.623 283.736C279.805 283.881 279.868 283.999 279.814 284.09C278.959 285.672 277.95 286.927 276.786 287.854C275.64 288.764 274.422 289.218 273.131 289.218C272.422 289.218 271.912 288.927 271.603 288.345C271.294 287.763 271.194 286.972 271.303 285.972C270.776 286.936 270.158 287.718 269.448 288.318C268.757 288.9 267.857 289.2 266.748 289.218C266.275 289.218 265.83 289.155 265.411 289.027C264.993 288.918 264.593 288.718 264.211 288.427C263.829 288.118 263.557 287.663 263.393 287.063C263.229 286.445 263.202 285.709 263.311 284.854C263.584 282.854 264.466 281.172 265.957 279.808C267.466 278.444 269.039 277.644 270.676 277.407ZM287.992 289.218C286.574 289.327 285.664 288.964 285.264 288.127C284.864 287.291 284.864 286.127 285.264 284.636H282.7C282.609 285.018 282.437 285.663 282.182 286.572C281.946 287.482 281.764 288.209 281.637 288.755C281.564 289.082 280.918 289.273 279.7 289.327C278.354 289.382 277.554 289.218 277.3 288.836C277.245 288.745 277.236 288.654 277.272 288.564C277.6 287.363 278.063 285.581 278.663 283.217C279.282 280.835 279.754 279.044 280.082 277.844C280.136 277.626 280.545 277.471 281.309 277.38C282.073 277.271 282.8 277.28 283.491 277.407C284.201 277.516 284.519 277.716 284.446 278.007C284.319 278.498 284.128 279.208 283.873 280.135C283.619 281.044 283.437 281.717 283.328 282.154H285.837C285.983 281.608 286.174 280.817 286.41 279.78C286.665 278.726 286.819 278.089 286.874 277.871C286.928 277.653 287.337 277.498 288.101 277.407C288.883 277.298 289.629 277.307 290.338 277.435C291.065 277.544 291.393 277.744 291.32 278.035C291.065 278.98 290.72 280.217 290.283 281.744C289.865 283.272 289.61 284.199 289.52 284.527C289.138 285.963 289.238 286.691 289.82 286.709C290.274 286.727 290.811 286.418 291.429 285.781C292.065 285.145 292.602 284.363 293.038 283.436C293.129 283.326 293.266 283.308 293.447 283.381C293.647 283.454 293.829 283.572 293.993 283.736C294.175 283.899 294.248 284.017 294.211 284.09C292.52 287.327 290.447 289.036 287.992 289.218ZM300.084 277.435C301.248 277.253 302.494 277.289 303.821 277.544C305.149 277.798 306.267 278.326 307.176 279.126C307.286 279.38 307.113 279.799 306.658 280.381C306.222 280.962 305.876 281.217 305.622 281.144C305.094 280.708 304.431 280.39 303.63 280.19C302.848 279.971 302.085 279.88 301.339 279.917C300.539 279.953 299.793 280.29 299.102 280.926C298.43 281.544 297.893 282.335 297.493 283.299C297.148 284.136 296.966 284.863 296.948 285.481C296.929 286.081 297.048 286.436 297.302 286.545C297.611 286.745 298.03 286.645 298.557 286.245C299.102 285.845 299.612 285.163 300.084 284.199C300.485 283.417 300.903 282.454 301.339 281.308C301.667 280.999 302.348 280.962 303.385 281.199C304.421 281.417 304.994 281.699 305.103 282.044C304.776 283.081 304.431 284.317 304.067 285.754C303.721 287.172 303.485 288.109 303.358 288.564C304.267 288.182 305.049 287.609 305.703 286.845C306.358 286.081 307.104 284.936 307.94 283.408C308.013 283.317 308.149 283.308 308.349 283.381C308.549 283.436 308.731 283.545 308.895 283.708C309.077 283.872 309.14 284.008 309.086 284.117C308.013 286.045 307.022 287.482 306.113 288.427C305.222 289.355 304.121 290.073 302.812 290.582C302.139 292.637 301.585 294.019 301.148 294.728C300.112 296.292 298.539 297.083 296.429 297.101C295.284 297.101 294.374 296.81 293.702 296.228C293.029 295.646 292.756 294.865 292.883 293.883C292.956 293.392 293.083 292.946 293.265 292.546C293.465 292.164 293.738 291.828 294.084 291.537C294.447 291.264 294.793 291.028 295.12 290.828C295.447 290.628 295.884 290.446 296.429 290.282C296.975 290.137 297.429 290.018 297.793 289.927C298.175 289.855 298.684 289.755 299.321 289.627C299.83 288.209 300.194 287.172 300.412 286.518C299.339 288.3 297.911 289.2 296.129 289.218C294.784 289.236 293.82 288.782 293.238 287.854C292.656 286.909 292.483 285.781 292.72 284.472C292.974 283.163 293.547 281.953 294.438 280.844C295.147 279.899 296.02 279.135 297.057 278.553C298.093 277.953 299.102 277.58 300.084 277.435ZM298.775 291.673C298.139 291.837 297.611 292.073 297.193 292.382C296.775 292.691 296.502 293.01 296.375 293.337C296.157 293.919 296.247 294.292 296.648 294.455C297.084 294.655 297.511 294.483 297.93 293.937C298.093 293.719 298.23 293.483 298.339 293.228C298.448 292.919 298.593 292.401 298.775 291.673ZM315.248 277.407C316.103 277.426 316.839 277.589 317.458 277.898C318.094 278.189 318.54 278.571 318.794 279.044C319.049 279.499 319.194 280.008 319.231 280.571C319.285 281.135 319.149 281.69 318.822 282.235C318.349 283.199 317.521 283.908 316.339 284.363C315.176 284.799 313.83 284.899 312.302 284.663C312.43 286.027 313.503 286.727 315.521 286.763C316.121 286.781 316.712 286.709 317.294 286.545C317.894 286.363 318.54 286.009 319.231 285.481C319.922 284.954 320.485 284.272 320.922 283.436C321.013 283.326 321.149 283.308 321.331 283.381C321.531 283.436 321.722 283.545 321.904 283.708C322.086 283.872 322.158 283.99 322.122 284.063C321.086 285.936 319.913 287.282 318.603 288.1C317.294 288.9 315.776 289.291 314.048 289.273C311.83 289.255 310.211 288.718 309.193 287.663C308.174 286.609 307.738 285.29 307.883 283.708C308.065 281.817 308.838 280.29 310.202 279.126C311.584 277.944 313.266 277.371 315.248 277.407ZM314.866 279.999C314.375 279.926 313.893 280.171 313.421 280.735C312.966 281.299 312.639 282.026 312.439 282.917C313.166 282.935 313.775 282.754 314.266 282.372C314.757 281.99 315.075 281.544 315.221 281.035C315.403 280.399 315.285 280.053 314.866 279.999Z" fill="black"/>
<line x1="265" y1="35.5" x2="323" y2="35.5" stroke="url(#paint2_linear_472_89)" stroke-width="3"/>
<line x1="323.5" y1="36" x2="323.5" y2="94" stroke="url(#paint3_linear_472_89)" stroke-width="3"/>
<line x1="324.061" y1="35.0607" x2="266.061" y2="93.0607" stroke="url(#paint4_linear_472_89)" stroke-width="3"/>
<path d="M110.564 276.662C110.664 276.461 110.664 276.01 110.564 275.308C110.463 274.707 110.263 274.306 109.962 274.105C109.762 274.005 109.311 273.855 108.609 273.654C107.907 273.554 107.506 273.504 107.406 273.504C107.305 273.504 107.105 273.404 106.804 273.203C106.503 273.103 106.303 272.952 106.203 272.752C106.002 272.652 105.551 272.351 104.849 271.85C104.147 271.348 103.696 270.997 103.496 270.797C103.395 270.797 103.044 270.747 102.443 270.647C101.942 270.446 101.39 270.296 100.789 270.195C100.187 269.995 99.6357 269.844 99.1344 269.744C98.6332 269.544 98.3324 269.393 98.2321 269.293C96.8285 268.792 95.6756 268.14 94.7733 267.338C93.9712 266.536 92.9686 265.734 91.7656 264.932H91.4648C90.9635 264.932 90.6126 265.333 90.4121 266.135C90.2116 266.837 90.0612 267.288 89.9609 267.488C89.0586 267.288 88.5072 266.937 88.3067 266.436C88.2064 265.834 87.8555 265.333 87.254 264.932L86.9532 265.233L86.6525 265.533C86.4519 265.734 86.3517 266.185 86.3517 266.887C86.3517 267.589 86.4519 268.04 86.6525 268.24C86.4519 268.24 86.1512 268.19 85.7502 268.09C85.4494 267.889 85.2489 267.689 85.1486 267.488C84.9481 266.987 84.9481 266.486 85.1486 265.985C85.4494 265.483 85.2489 265.132 84.5471 264.932C84.4468 264.932 84.3466 264.982 84.2463 265.082C84.2463 265.082 84.1962 265.082 84.0959 265.082C83.9957 265.183 83.8453 265.233 83.6448 265.233V269.293C82.943 269.494 82.3414 269.895 81.8401 270.496C81.3389 271.098 80.7373 271.449 80.0355 271.549H76.2759C76.2759 271.749 76.1756 271.95 75.9751 272.15C75.8749 272.451 75.7746 272.652 75.6743 272.752H74.6216C73.9198 272.752 73.1178 272.702 72.2155 272.602C71.3132 272.501 70.6615 272.351 70.2605 272.15C70.1602 272.05 69.9597 271.749 69.6589 271.248C69.4584 270.747 69.2579 270.396 69.0574 270.195C68.1551 268.692 67.6538 267.037 67.5535 265.233C67.5535 263.428 67.5535 261.724 67.5535 260.12C67.5535 258.916 67.6538 257.513 67.8543 255.909C68.1551 254.204 68.506 252.5 68.907 250.796C69.4083 248.991 69.9096 247.287 70.4109 245.683C71.0124 243.978 71.6139 242.575 72.2155 241.472C72.7168 240.569 73.4687 239.918 74.4713 239.517C75.4738 239.116 76.2258 238.464 76.727 237.562C76.9276 237.462 77.1782 236.96 77.479 236.058C77.88 235.156 78.1306 234.604 78.2309 234.404C78.3311 234.404 78.5317 234.153 78.8324 233.652C78.9327 233.752 79.0329 233.802 79.1332 233.802C79.3337 233.802 79.434 233.752 79.434 233.652C79.6345 233.552 79.8851 233.351 80.1859 233.05C80.4867 232.649 80.6371 232.399 80.6371 232.298C80.8376 232.098 80.8877 231.897 80.7874 231.697C80.6872 231.496 80.6371 231.296 80.6371 231.095C80.7373 230.995 80.8877 230.845 81.0882 230.644C81.389 230.343 81.6396 230.143 81.8401 230.043C81.9404 230.444 81.9905 230.744 81.9905 230.945C82.0908 231.045 82.3915 231.095 82.8928 231.095C83.1936 231.095 83.4944 230.845 83.7951 230.343C84.1962 229.842 84.5471 229.291 84.8478 228.689C85.1486 228.088 85.3993 227.536 85.5998 227.035C85.8003 226.433 85.9005 226.032 85.9005 225.832C86.3016 225.832 86.8028 225.832 87.4044 225.832C88.1062 225.731 88.7579 225.631 89.3594 225.531C89.9609 225.33 90.4622 225.08 90.8632 224.779C91.3645 224.378 91.6653 223.877 91.7656 223.275H94.9236C94.9236 223.175 94.9738 222.974 95.074 222.674C95.2745 222.373 95.4751 222.122 95.6756 221.922C95.8761 221.922 96.2771 221.972 96.8787 222.072C97.5805 222.072 98.0316 222.022 98.2321 221.922C98.2321 221.922 98.583 221.671 99.2848 221.17C99.9866 220.568 100.739 219.967 101.541 219.365C102.343 218.764 103.095 218.212 103.796 217.711C104.498 217.109 104.899 216.809 104.999 216.809C104.999 216.608 104.949 216.357 104.849 216.057C104.749 215.656 104.799 215.405 104.999 215.305C104.999 215.205 105.25 215.004 105.751 214.703C106.253 214.402 106.604 214.202 106.804 214.102C106.904 214.001 107.005 213.801 107.105 213.5C107.205 213.199 107.305 212.999 107.406 212.899C107.506 212.698 107.706 212.447 108.007 212.147C108.408 211.846 108.659 211.645 108.759 211.545C108.96 211.144 109.26 210.442 109.661 209.44C110.163 208.437 110.463 207.836 110.564 207.635C110.564 207.535 110.614 207.234 110.714 206.733C110.814 206.232 110.864 205.68 110.864 205.079C110.965 204.477 111.065 203.926 111.165 203.424C111.266 202.823 111.316 202.472 111.316 202.372C111.316 202.271 111.416 202.071 111.616 201.77C111.817 201.469 111.917 201.269 111.917 201.169C112.118 200.868 112.318 200.467 112.519 199.965C112.719 199.464 112.819 199.163 112.819 199.063C112.719 199.063 112.619 199.013 112.519 198.913C112.318 198.712 112.118 198.612 111.917 198.612C111.516 198.411 110.664 198.161 109.361 197.86C108.057 197.459 107.205 197.208 106.804 197.108V195.454C106.604 195.454 106.152 195.554 105.451 195.755C104.849 195.955 104.448 196.055 104.248 196.055C104.047 195.855 103.696 195.454 103.195 194.852C102.794 194.251 102.543 193.9 102.443 193.8C101.942 193.599 100.989 193.298 99.5856 192.897C98.2823 192.396 97.4301 192.095 97.029 191.995H95.2244C93.0188 191.995 90.6627 192.346 88.1563 193.048C85.7502 193.75 83.8954 195.103 82.5921 197.108V197.86C82.5921 198.762 82.7926 199.414 83.1936 199.815L85.9005 201.169C87.3041 201.971 88.6075 202.973 89.8106 204.176C91.0136 205.279 92.1165 206.432 93.119 207.635C93.119 207.735 93.119 207.936 93.119 208.237C93.2193 208.437 93.2694 208.588 93.2694 208.688C93.2694 208.989 93.0188 209.64 92.5175 210.643C92.0162 211.645 91.6653 212.147 91.4648 212.147C90.9635 212.147 90.6126 211.846 90.4121 211.244C90.2116 210.543 90.0612 209.941 89.9609 209.44C88.9584 210.041 87.7052 210.342 86.2013 210.342C86.2013 209.64 86.5021 209.289 87.1036 209.289C87.7052 209.289 88.0059 208.989 88.0059 208.387V207.635C87.1036 208.136 86.2514 208.487 85.4494 208.688C84.7476 208.888 83.8954 208.989 82.8928 208.989H81.389C81.389 208.086 81.0882 207.635 80.4867 207.635C79.8851 207.535 79.3337 207.284 78.8324 206.883C77.7296 206.181 76.9777 205.279 76.5767 204.176C76.2759 202.973 75.7245 201.971 74.9224 201.169C74.7219 200.968 74.2206 200.768 73.4186 200.567C72.7168 200.266 71.9648 200.016 71.1628 199.815C70.461 199.615 69.8093 199.414 69.2078 199.214C68.6062 199.013 68.3055 198.813 68.3055 198.612V186.732C68.0047 186.631 67.7541 186.381 67.5535 185.98C67.4533 185.579 67.4032 185.278 67.4032 185.077C68.506 185.077 69.308 184.726 69.8093 184.025C70.4109 183.223 70.9623 182.421 71.4636 181.618C71.7643 181.618 72.2155 181.618 72.817 181.618C73.4186 181.518 74.0702 181.418 74.772 181.318C75.5741 181.217 76.2759 181.117 76.8774 181.017C77.479 180.917 77.9301 180.816 78.2309 180.716C78.3311 180.716 78.5818 180.566 78.9828 180.265C79.4841 179.864 79.835 179.663 80.0355 179.663C81.0381 179.162 81.79 178.912 82.2913 178.912C82.7926 178.912 83.3941 178.511 84.0959 177.708H89.6602C89.6602 176.906 89.7103 176.455 89.8106 176.355C90.0111 176.154 89.8106 175.703 89.209 175.002H89.5098H89.9609C91.8658 175.603 93.6203 176.355 95.2244 177.257C96.9288 178.059 98.182 179.513 98.9841 181.618H99.4352C99.9365 181.618 100.237 181.268 100.338 180.566C100.438 179.764 100.839 179.363 101.541 179.363C101.641 179.363 101.791 179.413 101.992 179.513C102.192 179.613 102.343 179.663 102.443 179.663C102.543 179.663 102.944 179.764 103.646 179.964C104.348 180.064 104.799 180.165 104.999 180.265C105.2 180.265 105.551 180.265 106.052 180.265C106.553 180.265 107.055 180.265 107.556 180.265C108.158 180.265 108.659 180.365 109.06 180.566C109.561 180.766 109.862 181.117 109.962 181.618C110.062 181.819 110.163 182.421 110.263 183.423C110.463 184.426 110.564 185.077 110.564 185.378C111.466 185.679 112.619 186.381 114.023 187.484C115.526 188.586 116.379 189.639 116.579 190.642C116.579 190.842 116.529 191.243 116.429 191.845C116.328 192.446 116.278 192.847 116.278 193.048C116.88 193.048 117.381 192.948 117.782 192.747C118.183 192.546 118.634 192.446 119.136 192.446C119.236 192.446 119.336 192.496 119.436 192.597C119.537 192.597 119.637 192.597 119.737 192.597C120.038 192.697 120.389 192.847 120.79 193.048C121.291 193.148 121.592 193.198 121.692 193.198C121.792 193.298 121.792 193.649 121.692 194.251C121.592 194.852 121.592 195.203 121.692 195.304C121.792 195.504 122.093 195.955 122.595 196.657C123.196 197.259 123.547 197.71 123.647 198.01C123.948 198.612 124.098 199.514 124.098 200.717C124.199 201.82 124.249 202.773 124.249 203.575C124.249 204.778 124.149 205.981 123.948 207.184C123.747 208.387 123.647 209.64 123.647 210.944C123.647 212.147 123.647 213.25 123.647 214.252C123.647 215.154 123.848 216.157 124.249 217.26C124.048 217.46 123.497 217.861 122.595 218.463C121.792 218.964 121.291 219.265 121.091 219.365C120.99 219.465 120.539 219.215 119.737 218.613C118.935 218.012 118.434 217.711 118.233 217.711C118.233 217.811 118.283 218.062 118.384 218.463C118.484 218.864 118.584 219.315 118.685 219.816C118.785 220.217 118.885 220.669 118.985 221.17C119.086 221.571 119.136 221.821 119.136 221.922C119.136 222.122 119.236 222.373 119.436 222.674C119.637 222.974 119.737 223.175 119.737 223.275V224.478C119.737 225.28 119.587 225.932 119.286 226.433C119.086 226.935 118.634 227.185 117.933 227.185C117.131 227.185 116.629 226.884 116.429 226.283C116.328 225.581 116.028 225.23 115.526 225.23H115.376C115.376 226.133 115.176 226.935 114.775 227.636C114.373 228.238 113.922 228.839 113.421 229.441C113.02 230.043 112.569 230.694 112.068 231.396C111.667 231.998 111.416 232.749 111.316 233.652C111.316 233.451 111.215 233.1 111.015 232.599C110.814 232.098 110.664 231.797 110.564 231.697C110.564 231.697 110.463 231.647 110.263 231.546C109.762 231.546 109.361 231.647 109.06 231.847C108.759 232.048 108.208 232.148 107.406 232.148V235.607C107.406 235.707 107.255 235.857 106.954 236.058C106.654 236.158 106.403 236.208 106.203 236.208C106.002 236.309 105.551 236.359 104.849 236.359C104.147 236.258 103.696 236.208 103.496 236.208L102.443 237.111C102.242 237.111 102.042 237.01 101.841 236.81C101.641 236.609 101.541 236.409 101.541 236.208C101.741 236.008 101.892 235.807 101.992 235.607C102.092 235.406 102.242 235.206 102.443 235.005V234.704V234.404C102.042 234.404 101.741 234.153 101.541 233.652C101.541 233.652 101.44 233.602 101.24 233.501C101.14 233.501 101.039 233.552 100.939 233.652C100.839 233.852 100.638 234.103 100.338 234.404C100.037 234.604 99.8362 234.805 99.736 235.005V235.306V235.607C99.736 235.707 99.8362 235.958 100.037 236.359C100.237 236.76 100.338 237.01 100.338 237.111C99.4352 237.812 98.583 238.414 97.781 238.915C97.0792 239.417 96.4275 239.868 95.826 240.269C95.3247 240.67 95.0239 240.87 94.9236 240.87L95.6756 241.472L94.1717 244.329C93.871 244.53 93.3697 245.131 92.6679 246.134C91.9661 247.036 91.5149 247.638 91.3144 247.938C91.5149 248.339 92.0162 248.39 92.8183 248.089C93.6203 247.688 94.1717 247.487 94.4725 247.487H94.9236C95.1242 247.387 95.2745 247.186 95.3748 246.886C95.4751 246.485 95.5753 246.234 95.6756 246.134C95.6756 246.033 95.826 246.084 96.1267 246.284C96.4275 246.384 96.628 246.435 96.7283 246.435L97.029 245.382H97.4802C97.8812 245.382 98.1319 245.432 98.2321 245.532C98.3324 245.632 98.3324 245.582 98.2321 245.382C98.2321 245.181 98.2321 245.131 98.2321 245.231C98.6332 246.033 99.2848 246.435 100.187 246.435C101.19 246.435 101.942 246.535 102.443 246.735C102.543 246.936 102.694 247.136 102.894 247.337L103.496 247.938C104.398 248.74 105.35 249.141 106.353 249.141C107.456 249.041 108.508 248.991 109.511 248.991C109.511 249.192 109.561 249.442 109.661 249.743V250.345C109.661 250.445 109.712 250.545 109.812 250.645C109.611 250.846 109.11 251.096 108.308 251.397C107.506 251.598 107.005 251.798 106.804 251.999V259.067C106.804 259.568 107.005 259.819 107.406 259.819C107.606 259.819 107.757 259.368 107.857 258.465C107.957 257.463 108.107 256.41 108.308 255.307C108.508 254.204 108.759 253.252 109.06 252.45C109.461 251.548 110.012 251.147 110.714 251.247L112.519 253.803C112.519 254.104 112.569 254.505 112.669 255.006C112.769 255.508 113.07 255.758 113.571 255.758C114.073 255.758 114.474 255.658 114.775 255.458C115.075 255.257 115.426 255.157 115.827 255.157C116.529 255.157 116.98 255.357 117.181 255.758C117.481 256.059 117.732 256.46 117.933 256.961H121.091C120.89 256.961 120.539 256.811 120.038 256.51C119.537 256.21 119.236 255.959 119.136 255.758C119.136 255.758 119.086 255.658 118.985 255.458L119.136 255.157C119.236 255.057 119.336 254.906 119.436 254.706C119.537 254.505 119.637 254.405 119.737 254.405C120.138 254.605 120.84 254.856 121.843 255.157C122.845 255.458 123.447 255.658 123.647 255.758C123.848 255.859 124.499 255.909 125.602 255.909C126.805 255.809 127.507 255.758 127.708 255.758C127.808 255.859 128.008 255.959 128.309 256.059C128.61 256.159 128.861 256.26 129.061 256.36C129.061 256.56 129.111 256.961 129.211 257.563C129.412 258.064 129.562 258.365 129.663 258.465C129.863 258.666 130.164 258.616 130.565 258.315C130.966 258.014 131.217 257.864 131.317 257.864C131.317 257.663 131.367 257.613 131.467 257.713C131.568 257.814 131.568 257.864 131.467 257.864C131.467 257.663 131.367 257.413 131.166 257.112C130.966 256.711 130.866 256.46 130.866 256.36C130.866 256.36 130.816 256.26 130.715 256.059V255.758H131.467C131.768 255.859 132.119 256.009 132.52 256.21C133.021 256.31 133.322 256.36 133.422 256.36L133.573 256.661C133.573 257.864 133.222 258.716 132.52 259.217C131.918 259.719 131.367 260.32 130.866 261.022V261.774C130.665 262.576 130.364 263.127 129.963 263.428C129.562 263.629 129.111 263.729 128.61 263.729C128.209 263.729 127.808 263.729 127.407 263.729C127.006 263.629 126.655 263.578 126.354 263.578L127.708 265.533C127.808 265.634 127.758 265.784 127.557 265.985C127.457 266.085 127.307 266.135 127.106 266.135C126.404 266.135 125.953 265.934 125.753 265.533C125.552 265.132 125.402 264.731 125.301 264.33C125.301 263.829 125.251 263.378 125.151 262.977C125.051 262.576 124.75 262.375 124.249 262.375C123.948 262.375 123.848 262.726 123.948 263.428C124.048 264.13 123.998 264.832 123.798 265.533C123.697 266.135 123.296 266.536 122.595 266.737C121.993 266.937 120.84 266.536 119.136 265.533V261.473C119.035 261.473 118.935 261.423 118.835 261.323L118.534 261.022C118.434 261.222 118.283 261.473 118.083 261.774C117.983 262.075 117.933 262.275 117.933 262.375C117.832 262.776 117.832 263.679 117.933 265.082C118.133 266.486 118.233 267.438 118.233 267.94L118.534 268.24C118.634 268.04 118.735 267.789 118.835 267.488C119.035 267.188 119.136 266.937 119.136 266.737C119.637 267.138 120.088 267.639 120.489 268.24C120.89 268.742 121.091 269.243 121.091 269.744C121.091 270.246 120.99 270.596 120.79 270.797C120.589 270.897 120.489 271.248 120.489 271.85C120.489 272.251 120.489 272.351 120.489 272.15C120.589 271.95 120.69 271.649 120.79 271.248C120.89 270.747 121.041 270.296 121.241 269.895C121.442 269.494 121.742 269.293 122.143 269.293L123.948 268.24C124.349 267.94 124.75 267.689 125.151 267.488C125.953 267.087 126.354 266.987 126.354 267.188L125.151 274.857C123.046 274.857 121.341 275.258 120.038 276.06C118.835 276.963 117.331 277.414 115.526 277.414C114.524 277.414 113.672 277.364 112.97 277.263C112.368 277.263 111.566 277.063 110.564 276.662ZM98.6833 267.488C98.6833 268.391 99.1344 268.892 100.037 268.992C100.939 268.992 101.791 268.992 102.593 268.992C102.593 268.19 102.092 267.739 101.089 267.639C100.187 267.539 99.3851 267.488 98.6833 267.488ZM88.6075 262.977C88.7077 263.177 88.9082 263.528 89.209 264.03C89.5098 264.531 89.7604 264.832 89.9609 264.932C90.0612 264.832 90.1615 264.631 90.2617 264.33C90.4622 263.929 90.5625 263.679 90.5625 263.578V263.278V262.977C90.5625 262.776 90.4622 262.526 90.2617 262.225C90.1615 261.924 90.0612 261.774 89.9609 261.774H89.8106C89.7103 261.774 89.61 261.724 89.5098 261.623L89.209 261.774C88.808 261.774 88.6075 261.974 88.6075 262.375C88.6075 262.375 88.5573 262.476 88.4571 262.676L88.6075 262.977ZM108.609 260.571C108.609 261.072 108.709 261.373 108.909 261.473C109.21 261.473 109.561 261.523 109.962 261.623C110.363 261.724 110.714 261.974 111.015 262.375C111.416 262.676 111.717 263.328 111.917 264.33C111.917 264.13 112.017 263.779 112.218 263.278C112.418 262.776 112.619 262.476 112.819 262.375C112.819 262.275 112.92 262.325 113.12 262.526C113.321 262.626 113.471 262.676 113.571 262.676C113.571 263.177 113.571 263.629 113.571 264.03C113.571 264.33 113.972 264.481 114.775 264.481C114.775 263.779 114.724 262.776 114.624 261.473C114.524 260.17 114.073 259.368 113.271 259.067C113.17 259.067 112.97 259.117 112.669 259.217C112.368 259.318 112.118 259.368 111.917 259.368V256.961L108.759 260.42L108.609 260.571ZM79.434 262.977C79.1332 262.977 78.9828 263.228 78.9828 263.729C78.9828 264.13 79.1332 264.33 79.434 264.33C79.7347 264.33 79.8851 264.13 79.8851 263.729C79.8851 263.228 79.7347 262.977 79.434 262.977ZM87.254 263.578C87.4545 263.378 87.3543 263.278 86.9532 263.278C86.5522 263.278 86.4519 263.378 86.6525 263.578C86.7527 263.879 86.853 264.03 86.9532 264.03C87.1537 264.03 87.254 263.879 87.254 263.578ZM120.489 262.977L121.091 262.375H120.489V262.977ZM103.496 261.774L104.248 261.022L103.496 260.42V261.774ZM115.827 260.42L116.579 259.819H115.827V260.42ZM115.376 258.465C115.075 258.465 114.925 258.716 114.925 259.217C114.925 259.618 115.075 259.819 115.376 259.819C115.577 259.819 115.677 259.618 115.677 259.217C115.677 258.716 115.577 258.465 115.376 258.465ZM114.775 257.864C114.373 257.864 114.173 258.064 114.173 258.465C114.173 258.866 114.373 259.067 114.775 259.067C115.075 259.067 115.226 258.866 115.226 258.465C115.226 258.064 115.075 257.864 114.775 257.864ZM114.023 256.961C113.822 256.961 113.722 257.112 113.722 257.413C113.722 257.713 113.822 257.864 114.023 257.864C114.424 257.262 114.424 256.961 114.023 256.961ZM84.3967 248.239C84.3967 249.041 84.5471 249.843 84.8478 250.645C85.2489 251.347 85.8504 251.698 86.6525 251.698H86.9532C87.0535 251.698 87.1537 251.648 87.254 251.548C87.3543 251.447 87.4545 251.297 87.5548 251.096C87.7553 250.896 88.1062 250.445 88.6075 249.743L88.7579 249.292C88.7579 249.192 88.7077 249.091 88.6075 248.991C87.9057 248.791 87.2039 248.64 86.5021 248.54C85.9005 248.339 85.1987 248.239 84.3967 248.239ZM100.338 247.938C100.338 247.938 100.287 248.189 100.187 248.69C100.087 249.091 99.9866 249.593 99.8864 250.194C99.7861 250.695 99.6858 251.247 99.5856 251.848C99.4853 252.45 99.3851 252.901 99.2848 253.202V253.803V254.405C99.3851 254.405 99.5856 254.656 99.8864 255.157C100.187 255.558 100.488 255.909 100.789 256.21C101.19 256.51 101.49 256.51 101.691 256.21C101.892 255.909 101.992 254.906 101.992 253.202C101.992 253.102 102.092 252.951 102.293 252.751L102.593 252.45C102.593 252.35 102.543 252.099 102.443 251.698C102.443 251.197 102.393 250.695 102.293 250.194C102.192 249.693 102.092 249.242 101.992 248.841C101.992 248.339 101.992 248.039 101.992 247.938H100.338ZM97.781 249.141C97.1794 249.141 96.7784 249.392 96.5779 249.893C96.3774 250.395 96.2771 250.846 96.2771 251.247C96.9789 251.247 97.3799 251.046 97.4802 250.645C97.6807 250.144 97.781 249.643 97.781 249.141ZM89.209 249.442C89.61 248.941 89.8106 248.54 89.8106 248.239C89.9108 247.938 89.9609 247.537 89.9609 247.036C89.9609 246.836 89.9609 246.535 89.9609 246.134C89.9609 245.733 89.7103 245.432 89.209 245.231L88.6075 246.134L89.209 249.442ZM72.817 245.231H73.1178C73.1178 245.031 73.1679 244.63 73.2682 244.028C73.3684 243.327 73.6692 242.875 74.1705 242.675L73.8697 242.374L73.5689 242.073L73.1178 241.923C73.1178 241.923 73.0175 241.973 72.817 242.073V245.231ZM89.9609 244.028C90.4622 243.828 90.7129 243.377 90.7129 242.675H89.9609V244.028ZM77.479 242.675C77.0779 242.675 76.8774 242.926 76.8774 243.427C76.8774 243.828 77.0779 244.028 77.479 244.028C77.88 244.028 78.0805 243.828 78.0805 243.427C78.0805 242.926 77.88 242.675 77.479 242.675ZM75.6743 240.118C75.2733 240.118 75.0728 240.369 75.0728 240.87C75.0728 241.271 75.2733 241.472 75.6743 241.472C75.9751 241.472 76.1255 241.271 76.1255 240.87C76.1255 240.369 75.9751 240.118 75.6743 240.118ZM78.2309 239.517H78.8324L78.2309 238.915V239.517ZM89.9609 238.163C89.5599 238.163 89.3594 238.414 89.3594 238.915C89.3594 239.316 89.5599 239.517 89.9609 239.517C90.2617 239.517 90.4121 239.316 90.4121 238.915C90.4121 238.414 90.2617 238.163 89.9609 238.163ZM86.2013 231.697C86.2013 231.797 86.3016 231.947 86.5021 232.148L86.6525 232.298C86.6525 232.499 86.6525 232.9 86.6525 233.501C86.6525 234.103 86.6525 234.755 86.6525 235.456C86.7527 236.158 86.8028 236.81 86.8028 237.411C86.8028 237.913 86.8028 238.264 86.8028 238.464C87.1036 238.464 87.254 238.364 87.254 238.163C87.4545 238.063 87.6049 237.762 87.7052 237.261C87.8054 236.76 87.9057 236.409 88.0059 236.208L88.6075 235.908C89.0085 235.707 89.209 235.607 89.209 235.607V234.404C89.209 234.203 89.3093 233.752 89.5098 233.05C89.8106 232.248 89.9609 231.797 89.9609 231.697C89.9609 231.296 89.7604 231.045 89.3594 230.945C89.0586 230.744 88.7077 230.644 88.3067 230.644C87.9057 230.544 87.5046 230.393 87.1036 230.193C86.8028 229.992 86.6525 229.641 86.6525 229.14C86.4519 229.24 86.2514 229.541 86.0509 230.043C85.9507 230.544 85.9005 230.895 85.9005 231.095L86.2013 231.697ZM78.8324 236.208C79.5342 236.409 80.1859 236.609 80.7874 236.81C81.389 237.01 82.0406 237.111 82.7424 237.111C82.7424 236.409 82.5419 236.008 82.1409 235.908C81.7399 235.707 81.2386 235.607 80.6371 235.607C80.4365 235.607 80.0856 235.607 79.5844 235.607C79.1833 235.607 78.9327 235.807 78.8324 236.208ZM88.6075 226.433C88.2064 226.433 88.0059 226.634 88.0059 227.035V227.336V227.636L88.6075 227.035V226.884V226.433ZM111.316 225.832L111.917 227.636L112.368 227.937L112.819 227.636C112.819 227.536 112.87 227.386 112.97 227.185C113.17 226.784 113.271 226.534 113.271 226.433L113.722 224.027C113.722 223.626 113.371 223.726 112.669 224.328C112.068 224.829 111.566 225.08 111.165 225.08L111.316 225.832ZM102.142 225.23C102.142 225.731 102.393 226.133 102.894 226.433V225.23H102.142ZM117.632 213.199C117.431 213.199 117.181 213.45 116.88 213.951C116.679 214.352 116.479 214.803 116.278 215.305C116.178 215.806 116.078 216.307 115.978 216.809C115.978 217.21 116.078 217.41 116.278 217.41C116.479 217.41 116.679 217.21 116.88 216.809C117.181 216.307 117.381 215.806 117.481 215.305C117.682 214.803 117.782 214.352 117.782 213.951C117.882 213.45 117.832 213.199 117.632 213.199ZM80.6371 196.055C80.3363 196.055 80.1859 196.256 80.1859 196.657C80.1859 196.958 80.3363 197.108 80.6371 197.108C81.0381 197.108 81.2386 196.958 81.2386 196.657C81.2386 196.256 81.0381 196.055 80.6371 196.055ZM88.4571 179.062C88.4571 179.663 88.6576 180.065 89.0586 180.265C89.5599 180.365 90.0612 180.415 90.5625 180.415V178.16C90.362 178.16 90.0111 178.26 89.5098 178.46C89.0085 178.561 88.7077 178.661 88.6075 178.761L88.4571 179.062ZM168.471 269.594C167.369 269.594 166.216 269.945 165.013 270.647C163.91 271.348 162.757 271.549 161.554 271.248C161.052 271.148 160.852 270.797 160.952 270.195C161.052 269.494 161.103 268.792 161.103 268.09C161.103 267.288 160.952 266.586 160.651 265.985C160.451 265.283 159.849 264.932 158.847 264.932H158.546C157.744 265.433 157.243 266.285 157.042 267.488C156.942 268.692 156.892 269.393 156.892 269.594C156.29 269.293 155.839 269.193 155.538 269.293C155.238 269.293 154.937 269.443 154.636 269.744C154.435 269.945 154.235 270.145 154.034 270.346C153.834 270.546 153.533 270.596 153.132 270.496C152.13 270.496 151.277 269.995 150.576 268.992C149.974 267.99 149.473 266.887 149.072 265.684C148.771 264.38 148.52 263.077 148.32 261.774C148.22 260.47 148.169 259.518 148.169 258.916C148.37 258.114 148.621 257.312 148.921 256.51C149.322 255.708 149.573 254.856 149.673 253.954L155.238 254.255C155.639 254.756 156.19 255.307 156.892 255.909C157.594 256.41 158.345 256.711 159.148 256.811C160.25 256.811 161.353 256.51 162.456 255.909C163.559 255.207 164.662 254.906 165.764 255.006C166.567 255.006 167.018 255.257 167.118 255.758C167.318 256.26 167.82 256.51 168.622 256.51C169.424 256.51 170.025 256.41 170.426 256.21C170.827 255.909 171.279 255.357 171.78 254.555C171.178 254.555 170.777 254.305 170.577 253.803C170.477 253.603 170.727 253.202 171.329 252.6C171.93 251.999 172.281 251.598 172.381 251.397C172.381 250.194 172.281 248.64 172.081 246.735C171.98 244.73 171.83 242.675 171.63 240.569C171.529 238.464 171.479 236.459 171.479 234.554C171.479 232.549 171.63 230.995 171.93 229.892C171.93 229.692 171.98 229.291 172.081 228.689C172.281 227.987 172.482 227.235 172.682 226.433C172.883 225.531 173.033 224.679 173.133 223.877C173.334 223.075 173.484 222.473 173.585 222.072C173.785 220.869 173.735 219.866 173.434 219.064C173.234 218.262 173.133 217.41 173.133 216.508C173.133 216.307 173.183 215.756 173.284 214.854C173.384 213.851 173.484 213.049 173.585 212.447C173.885 210.442 174.186 208.437 174.487 206.432C174.888 204.327 174.988 202.271 174.788 200.266C174.788 200.166 174.587 199.865 174.186 199.364C173.785 198.863 173.484 198.612 173.284 198.612C173.484 198.311 173.635 197.76 173.735 196.958C173.835 196.055 173.935 195.454 174.036 195.153H173.735H173.434H173.284C173.183 195.354 173.033 195.554 172.833 195.755C172.632 195.955 172.532 196.106 172.532 196.206C172.031 196.406 171.429 196.757 170.727 197.259C170.126 197.66 169.725 197.96 169.524 198.161C169.424 198.161 169.123 198.261 168.622 198.462C168.221 198.562 167.77 198.712 167.268 198.913C166.767 199.013 166.316 199.163 165.915 199.364C165.514 199.464 165.313 199.564 165.313 199.665C164.311 200.066 163.208 200.717 162.005 201.62C160.902 202.422 159.699 203.224 158.396 204.026C157.193 204.728 155.939 205.329 154.636 205.831C153.433 206.232 152.23 206.232 151.027 205.831C151.428 204.627 151.578 203.575 151.478 202.672C151.478 201.77 151.328 200.918 151.027 200.116C150.726 199.314 150.325 198.462 149.824 197.559C149.322 196.657 148.771 195.604 148.169 194.401C148.169 194.301 148.169 194.1 148.169 193.8C148.27 193.399 148.32 193.148 148.32 193.048C148.42 192.747 148.57 192.346 148.771 191.845C149.072 191.343 149.573 191.293 150.275 191.694C150.375 191.795 150.525 192.045 150.726 192.446C150.926 192.847 151.127 193.148 151.328 193.349H151.478C151.779 193.449 152.23 193.349 152.831 193.048C153.433 192.647 154.034 192.196 154.636 191.694C155.338 191.193 155.939 190.692 156.441 190.19C156.942 189.589 157.193 189.138 157.193 188.837C157.493 188.235 157.543 187.734 157.343 187.333C157.243 186.832 157.293 186.23 157.493 185.528L159.298 185.98C159.899 184.175 160.401 183.072 160.802 182.671C161.203 182.17 161.604 181.969 162.005 182.07C162.406 182.17 162.857 182.32 163.358 182.521C163.96 182.721 164.712 182.471 165.614 181.769C166.015 181.468 166.266 181.217 166.366 181.017C166.466 180.716 166.516 180.516 166.516 180.415C166.617 180.215 166.717 180.115 166.817 180.115C167.018 180.115 167.419 180.215 168.02 180.415C168.522 180.415 168.923 180.566 169.223 180.867C169.023 180.766 168.622 180.917 168.02 181.318C167.519 181.719 167.218 182.02 167.118 182.22C166.917 182.32 166.817 182.721 166.817 183.423C166.817 184.025 166.767 184.476 166.667 184.777C167.268 184.977 167.72 184.877 168.02 184.476C168.321 183.975 168.672 183.473 169.073 182.972C169.474 182.37 169.975 181.919 170.577 181.618C171.178 181.217 172.031 181.217 173.133 181.618L174.487 176.806C174.587 176.606 174.838 176.505 175.239 176.505C175.64 176.405 175.941 176.455 176.141 176.656C177.444 177.358 178.898 178.46 180.502 179.964C182.207 181.468 183.309 182.671 183.811 183.573C183.911 183.774 184.162 184.075 184.563 184.476C184.964 184.877 185.264 185.178 185.465 185.378C186.367 186.481 186.818 188.035 186.818 190.04C186.818 192.045 186.668 194.1 186.367 196.206C186.167 198.211 186.016 200.116 185.916 201.92C185.816 203.625 186.117 204.778 186.818 205.379C186.818 205.78 186.768 206.432 186.668 207.334C186.568 208.136 186.417 209.039 186.217 210.041C186.117 210.944 185.966 211.846 185.766 212.748C185.565 213.55 185.415 214.152 185.315 214.553L185.014 215.455C184.813 216.057 184.763 216.357 184.863 216.357C184.964 216.558 185.315 216.809 185.916 217.109C186.518 217.41 186.869 217.661 186.969 217.861C187.169 218.663 187.119 219.866 186.818 221.471C186.618 223.075 186.317 224.779 185.916 226.584C185.515 228.388 185.114 230.143 184.713 231.847C184.312 233.451 184.061 234.704 183.961 235.607C184.061 235.707 184.212 236.208 184.412 237.111C184.613 237.913 184.713 238.364 184.713 238.464C184.613 239.767 184.513 240.72 184.412 241.321C184.312 241.923 184.262 242.474 184.262 242.976C184.262 243.477 184.312 244.078 184.412 244.78C184.513 245.382 184.763 246.334 185.164 247.638V247.938C185.164 248.039 185.114 248.089 185.014 248.089C185.014 248.089 185.014 248.139 185.014 248.239V248.54C184.914 248.54 184.763 248.59 184.563 248.69C184.362 248.69 184.212 248.69 184.111 248.69L183.961 248.991V249.442L185.315 249.141C185.014 249.442 184.713 250.144 184.412 251.247C184.111 252.35 184.061 253.102 184.262 253.503C184.362 254.104 184.713 254.555 185.315 254.856C186.016 255.057 186.818 255.257 187.721 255.458C188.623 255.558 189.575 255.658 190.578 255.758C191.581 255.758 192.433 255.809 193.135 255.909C193.636 256.009 193.987 256.009 194.187 255.909C194.488 255.708 194.889 255.257 195.39 254.555L195.24 256.661C195.441 256.56 195.791 256.46 196.293 256.36C196.894 256.159 197.295 256.059 197.496 256.059C197.496 256.159 197.546 256.21 197.646 256.21H197.947C198.248 256.21 198.448 256.31 198.548 256.51C198.649 256.711 198.949 256.911 199.451 257.112C199.651 257.112 199.952 257.012 200.353 256.811C200.754 256.611 200.955 256.36 200.955 256.059V255.758C200.754 255.658 200.403 255.458 199.902 255.157C199.501 254.856 199.2 254.706 199 254.706C199.1 254.706 199.2 254.555 199.3 254.255C199.501 253.954 199.651 253.803 199.752 253.803V253.653C199.752 253.653 199.852 253.703 200.052 253.803H200.353C202.258 254.605 203.762 255.057 204.865 255.157C206.068 255.257 206.92 255.508 207.421 255.909C208.023 256.31 208.374 257.112 208.474 258.315C208.574 259.418 208.524 261.373 208.324 264.18C208.324 264.782 208.273 265.834 208.173 267.338C208.073 268.742 207.722 269.844 207.12 270.647L206.519 269.744L206.82 264.33C206.619 264.33 206.369 264.38 206.068 264.481C205.867 264.481 205.667 264.481 205.466 264.481C205.266 264.481 205.115 264.38 205.015 264.18C204.915 263.979 204.915 263.629 205.015 263.127C204.514 263.528 204.063 264.13 203.662 264.932C203.361 265.634 203.01 266.386 202.609 267.188C202.208 267.99 201.857 268.692 201.556 269.293C201.255 269.895 200.955 270.246 200.654 270.346C200.654 270.246 200.554 270.145 200.353 270.045C200.153 269.844 200.052 269.694 200.052 269.594H199.601L199.3 269.293C199.1 269.494 198.799 269.744 198.398 270.045C197.997 270.246 197.746 270.446 197.646 270.647V268.692C196.944 269.093 196.343 269.544 195.842 270.045C195.441 270.546 194.989 271.148 194.488 271.85C194.288 271.649 194.087 271.348 193.887 270.947C193.686 270.546 193.435 270.195 193.135 269.895C193.335 270.396 193.285 270.747 192.984 270.947C192.683 271.048 192.383 271.098 192.082 271.098C191.681 271.098 191.43 270.997 191.33 270.797C191.23 270.496 191.129 270.195 191.029 269.895C191.029 269.594 190.979 269.343 190.879 269.143C190.779 268.842 190.528 268.692 190.127 268.692H189.676C189.575 268.692 189.475 268.742 189.375 268.842C189.475 269.945 189.124 270.897 188.322 271.699C187.62 272.501 186.818 273.003 185.916 273.203V271.549C185.415 271.549 185.014 271.699 184.713 272C184.513 272.201 184.262 272.501 183.961 272.902C183.66 273.303 183.309 273.654 182.908 273.955C182.608 274.256 182.156 274.406 181.555 274.406H181.405L180.653 273.805C180.151 273.805 179.75 273.955 179.45 274.256C179.049 273.353 178.647 272.752 178.246 272.451C177.946 272.251 177.394 272.1 176.592 272C175.289 271.699 174.236 272.351 173.434 273.955C173.334 273.754 173.133 273.454 172.833 273.053C172.532 272.752 172.281 272.551 172.081 272.451H171.329C170.928 272.451 170.727 272.401 170.727 272.301C170.426 271.9 170.226 271.549 170.126 271.248C170.025 270.947 169.925 270.697 169.825 270.496C169.825 270.195 169.725 269.995 169.524 269.895C169.424 269.694 169.073 269.594 168.471 269.594ZM183.209 269.744C182.808 269.945 182.608 270.246 182.608 270.647C182.608 270.947 182.558 271.248 182.457 271.549L183.209 271.85V269.744ZM186.217 268.692C186.016 268.591 185.916 268.692 185.916 268.992C185.916 269.293 186.016 269.443 186.217 269.443C186.718 269.443 186.718 269.193 186.217 268.692ZM184.111 267.789C183.71 267.789 183.51 268.04 183.51 268.541C183.51 269.042 183.71 269.293 184.111 269.293C184.412 269.393 184.563 269.193 184.563 268.692C184.563 268.19 184.412 267.889 184.111 267.789ZM189.676 264.03C189.174 264.33 188.874 264.832 188.773 265.533C188.673 266.235 188.623 266.686 188.623 266.887L189.525 266.737L189.676 264.03ZM179.75 265.082C179.75 265.183 179.8 265.283 179.901 265.383L180.201 265.684C180.201 265.684 180.252 265.584 180.352 265.383L180.201 265.082C180.201 264.681 180.051 264.481 179.75 264.481C179.75 264.481 179.7 264.531 179.6 264.631L179.75 265.082ZM183.51 265.834H184.262L184.412 265.233L183.51 265.834ZM182.608 262.375C182.207 262.476 182.006 262.776 182.006 263.278C182.006 263.679 182.207 263.829 182.608 263.729C182.908 263.829 183.059 263.679 183.059 263.278C183.059 262.776 182.908 262.476 182.608 262.375ZM187.27 261.473C186.768 261.874 186.518 262.375 186.518 262.977V263.578C186.818 263.378 186.969 263.127 186.969 262.827C187.069 262.526 187.119 262.275 187.119 262.075C187.219 261.974 187.27 261.774 187.27 261.473ZM165.013 186.581C165.013 186.782 164.912 187.333 164.712 188.235C164.612 189.037 164.812 189.589 165.313 189.89C165.915 189.789 166.316 189.639 166.516 189.439C166.817 189.138 167.068 188.787 167.268 188.386C167.469 187.885 167.318 187.534 166.817 187.333C166.416 187.032 166.015 186.832 165.614 186.732C165.514 186.732 165.414 186.732 165.313 186.732C165.213 186.631 165.113 186.581 165.013 186.581ZM164.712 184.927C164.511 184.827 164.311 185.027 164.11 185.528C164.01 185.93 164.11 186.23 164.411 186.431C164.712 186.531 164.862 186.331 164.862 185.829C164.962 185.328 164.912 185.027 164.712 184.927Z" fill="#FA8FD7"/>
</g>
</g>
<defs>
<filter id="filter0_dddd_472_89" x="0" y="0" width="400" height="488" filterUnits="userSpaceOnUse" color-interpolation-filters="sRGB">
<feFlood flood-opacity="0" result="BackgroundImageFix"/>
<feColorMatrix in="SourceAlpha" type="matrix" values="0 0 0 0 0 0 0 0 0 0 0 0 0 0 0 0 0 0 127 0" result="hardAlpha"/>
<feOffset dy="8"/>
<feGaussianBlur stdDeviation="9"/>
<feColorMatrix type="matrix" values="0 0 0 0 0.596078 0 0 0 0 0.596078 0 0 0 0 0.596078 0 0 0 0.1 0"/>
<feBlend mode="normal" in2="BackgroundImageFix" result="effect1_dropShadow_472_89"/>
<feColorMatrix in="SourceAlpha" type="matrix" values="0 0 0 0 0 0 0 0 0 0 0 0 0 0 0 0 0 0 127 0" result="hardAlpha"/>
<feOffset dy="33"/>
<feGaussianBlur stdDeviation="16.5"/>
<feColorMatrix type="matrix" values="0 0 0 0 0.596078 0 0 0 0 0.596078 0 0 0 0 0.596078 0 0 0 0.09 0"/>
<feBlend mode="normal" in2="effect1_dropShadow_472_89" result="effect2_dropShadow_472_89"/>
<feColorMatrix in="SourceAlpha" type="matrix" values="0 0 0 0 0 0 0 0 0 0 0 0 0 0 0 0 0 0 127 0" result="hardAlpha"/>
<feOffset dy="73"/>
<feGaussianBlur stdDeviation="22"/>
<feColorMatrix type="matrix" values="0 0 0 0 0.596078 0 0 0 0 0.596078 0 0 0 0 0.596078 0 0 0 0.05 0"/>
<feBlend mode="normal" in2="effect2_dropShadow_472_89" result="effect3_dropShadow_472_89"/>
<feColorMatrix in="SourceAlpha" type="matrix" values="0 0 0 0 0 0 0 0 0 0 0 0 0 0 0 0 0 0 127 0" result="hardAlpha"/>
<feOffset dy="130"/>
<feGaussianBlur stdDeviation="26"/>
<feColorMatrix type="matrix" values="0 0 0 0 0.596078 0 0 0 0 0.596078 0 0 0 0 0.596078 0 0 0 0.01 0"/>
<feBlend mode="normal" in2="effect3_dropShadow_472_89" result="effect4_dropShadow_472_89"/>
<feBlend mode="normal" in="SourceGraphic" in2="effect4_dropShadow_472_89" result="shape"/>
</filter>
<filter id="filter1_b_472_89" x="22" y="-20" width="356" height="356" filterUnits="userSpaceOnUse" color-interpolation-filters="sRGB">
<feFlood flood-opacity="0" result="BackgroundImageFix"/>
<feGaussianBlur in="BackgroundImageFix" stdDeviation="15"/>
<feComposite in2="SourceAlpha" operator="in" result="effect1_backgroundBlur_472_89"/>
<feBlend mode="normal" in="SourceGraphic" in2="effect1_backgroundBlur_472_89" result="shape"/>
</filter>
<linearGradient id="paint0_linear_472_89" x1="61.7315" y1="286.132" x2="348" y2="9.99999" gradientUnits="userSpaceOnUse">
<stop stop-color="white"/>
<stop offset="1" stop-color="white" stop-opacity="0.3"/>
</linearGradient>
<linearGradient id="paint1_linear_472_89" x1="52" y1="75.6877" x2="296.91" y2="306" gradientUnits="userSpaceOnUse">
<stop stop-color="#F6F6F6"/>
<stop offset="1" stop-color="white" stop-opacity="0"/>
</linearGradient>
<linearGradient id="paint2_linear_472_89" x1="263" y1="34.9999" x2="328.5" y2="37" gradientUnits="userSpaceOnUse">
<stop stop-color="#404040"/>
<stop offset="1" stop-color="#999999"/>
</linearGradient>
<linearGradient id="paint3_linear_472_89" x1="322" y1="98" x2="324.5" y2="30" gradientUnits="userSpaceOnUse">
<stop stop-color="#404040"/>
<stop offset="1" stop-color="#999999"/>
</linearGradient>
<linearGradient id="paint4_linear_472_89" x1="265" y1="92" x2="327.5" y2="34" gradientUnits="userSpaceOnUse">
<stop stop-color="#404040"/>
<stop offset="1" stop-color="#999999"/>
</linearGradient>
<clipPath id="clip0_472_89">
<rect x="52" y="10" width="296" height="296" rx="24" fill="white"/>
</clipPath>
</defs>
</svg>
