<svg width="296" height="296" viewBox="0 0 296 296" fill="none" xmlns="http://www.w3.org/2000/svg">
<g clip-path="url(#clip0_451_64)">
<g filter="url(#filter0_b_451_64)">
<rect width="296" height="296" rx="24" fill="url(#paint0_linear_451_64)"/>
<rect x="1" y="1" width="294" height="294" rx="23" stroke="url(#paint1_linear_451_64)" stroke-width="2"/>
</g>
<path opacity="0.8" d="M163.728 270H159.882V256.389H163.728V261.353L168.42 256.389H173.139L167.22 262.526L174.066 270H169.102L163.728 264.135V270ZM185.867 259.608H181.666L181.612 261.517C181.521 263.535 181.312 265.127 180.984 266.29C180.639 267.509 180.093 268.445 179.348 269.1C178.62 269.736 177.611 270.073 176.32 270.109C175.647 270.109 175.165 270.027 174.874 269.864V266.727C175.074 266.8 175.338 266.836 175.665 266.836C176.556 266.836 177.147 266.254 177.438 265.09C177.711 264.054 177.857 262.49 177.875 260.399L177.957 256.389H189.713V270H185.867V259.608ZM197.073 270H193.472V256.389H197.264V264.408L203.428 256.389H207.029V270H203.237V261.981L197.073 270ZM217.442 270.355C215.314 270.355 213.523 269.7 212.069 268.391C210.614 267.081 209.886 265.345 209.886 263.181C209.886 261.162 210.541 259.471 211.85 258.107C213.16 256.725 214.869 256.034 216.978 256.034C218.942 256.034 220.515 256.734 221.697 258.135C222.879 259.535 223.47 261.235 223.47 263.235V264.245H213.705C213.905 265.154 214.405 265.854 215.205 266.345C216.024 266.836 217.042 267.081 218.26 267.081C219.77 267.081 221.224 266.681 222.625 265.881V268.963C221.406 269.891 219.679 270.355 217.442 270.355ZM213.705 261.79H219.679C219.642 261.008 219.361 260.362 218.833 259.853C218.324 259.326 217.651 259.062 216.815 259.062C215.96 259.062 215.251 259.317 214.687 259.826C214.123 260.317 213.796 260.971 213.705 261.79ZM230.269 270H226.423V256.389H230.269V261.435H235.861V256.389H239.707V270H235.861V264.654H230.269V270ZM250.099 270H246.253V259.608H241.998V256.389H254.409V259.608H250.099V270ZM259.574 263.181C259.574 264.272 259.929 265.181 260.638 265.908C261.347 266.636 262.248 267 263.339 267C264.43 267 265.33 266.636 266.039 265.908C266.748 265.163 267.103 264.254 267.103 263.181C267.103 262.09 266.748 261.19 266.039 260.48C265.33 259.753 264.43 259.389 263.339 259.389C262.248 259.389 261.347 259.753 260.638 260.48C259.929 261.19 259.574 262.09 259.574 263.181ZM255.783 263.181C255.783 261.162 256.492 259.471 257.911 258.107C259.311 256.725 261.12 256.034 263.339 256.034C265.557 256.034 267.367 256.725 268.767 258.107C270.185 259.489 270.894 261.18 270.894 263.181C270.894 265.217 270.185 266.927 268.767 268.309C267.348 269.673 265.539 270.355 263.339 270.355C261.138 270.355 259.329 269.673 257.911 268.309C256.492 266.927 255.783 265.217 255.783 263.181ZM281.751 270H273.731V256.389H281.423C282.805 256.389 283.878 256.716 284.642 257.371C285.406 258.007 285.787 258.844 285.787 259.88C285.787 261.244 285.233 262.208 284.124 262.772C285.851 263.372 286.715 264.536 286.715 266.263C286.715 267.427 286.278 268.345 285.406 269.018C284.533 269.673 283.314 270 281.751 270ZM277.523 264.245V267.3H280.796C282.123 267.3 282.787 266.79 282.787 265.772C282.787 264.754 282.123 264.245 280.796 264.245H277.523ZM277.523 259.035V261.817H280.196C281.414 261.817 282.023 261.353 282.023 260.426C282.023 259.498 281.414 259.035 280.196 259.035H277.523Z" fill="black"/>
<path d="M61.079 238H41.8891V163.69L21.7465 173.898V154.708L44.0667 142.731H61.079V238ZM120.098 239.905C111.66 239.905 104.265 237.546 97.9139 232.828C91.7441 228.201 87.026 222.213 83.7596 214.863C80.584 207.514 78.9962 199.348 78.9962 190.365C78.9962 181.474 80.5386 173.399 83.6235 166.14C86.8899 158.518 91.6987 152.394 98.05 147.767C104.492 143.139 111.841 140.826 120.098 140.826C132.619 140.826 142.554 145.68 149.904 155.388C157.344 165.006 161.064 176.665 161.064 190.365C161.064 204.066 157.344 215.725 149.904 225.343C142.554 235.051 132.619 239.905 120.098 239.905ZM104.447 212.55C108.439 218.538 113.656 221.532 120.098 221.532C126.631 221.532 131.802 218.538 135.613 212.55C139.515 206.47 141.465 199.076 141.465 190.365C141.465 181.564 139.515 174.215 135.613 168.317C131.802 162.238 126.631 159.199 120.098 159.199C113.565 159.199 108.348 162.238 104.447 168.317C100.545 174.215 98.5944 181.564 98.5944 190.365C98.5944 199.076 100.545 206.47 104.447 212.55ZM216.058 239.905C207.62 239.905 200.225 237.546 193.874 232.828C187.704 228.201 182.986 222.213 179.72 214.863C176.544 207.514 174.956 199.348 174.956 190.365C174.956 181.474 176.499 173.399 179.584 166.14C182.85 158.518 187.659 152.394 194.01 147.767C200.452 143.139 207.801 140.826 216.058 140.826C228.579 140.826 238.514 145.68 245.864 155.388C253.304 165.006 257.024 176.665 257.024 190.365C257.024 204.066 253.304 215.725 245.864 225.343C238.514 235.051 228.579 239.905 216.058 239.905ZM200.407 212.55C204.399 218.538 209.616 221.532 216.058 221.532C222.591 221.532 227.763 218.538 231.573 212.55C235.475 206.47 237.426 199.076 237.426 190.365C237.426 181.564 235.475 174.215 231.573 168.317C227.763 162.238 222.591 159.199 216.058 159.199C209.525 159.199 204.308 162.238 200.407 168.317C196.505 174.215 194.555 181.564 194.555 190.365C194.555 199.076 196.505 206.47 200.407 212.55Z" fill="black"/>
<path opacity="0.8" d="M28.6287 114.262C30.4108 114.262 31.8565 114.816 32.9658 115.926C34.0932 117.053 34.6569 118.526 34.6569 120.344C34.6569 122.399 33.975 124.081 32.6112 125.391C31.2837 126.7 29.5925 127.355 27.5377 127.355C25.1191 127.355 23.2734 126.554 22.0005 124.954C20.7094 123.336 20.0638 121.181 20.0638 118.49C20.0638 116.653 20.3184 115.116 20.8276 113.88C21.3367 112.625 22.155 111.589 23.2825 110.77C24.4463 109.916 25.7738 109.243 27.2649 108.752C28.7378 108.243 30.6745 107.797 33.0749 107.415V110.988L31.6292 111.234L30.2108 111.479C29.8289 111.552 29.4016 111.643 28.9288 111.752C28.2196 111.898 27.4467 112.125 26.6102 112.434C26.0283 112.652 25.4373 113.034 24.8373 113.58C24.0917 114.234 23.6643 115.235 23.5552 116.58C24.7736 115.035 26.4648 114.262 28.6287 114.262ZM27.5104 124.109C28.4924 124.109 29.2925 123.781 29.9108 123.127C30.5472 122.472 30.8654 121.636 30.8654 120.617C30.8654 119.653 30.5654 118.89 29.9653 118.326C29.3652 117.744 28.5924 117.453 27.6468 117.453C26.9012 117.453 26.1738 117.653 25.4646 118.053C24.7554 118.435 24.2099 118.926 23.828 119.526C23.8462 120.999 24.1735 122.136 24.81 122.936C25.4646 123.718 26.3648 124.109 27.5104 124.109ZM40.3953 120.181C40.3953 121.272 40.7499 122.181 41.4591 122.908C42.1683 123.636 43.0684 124 44.1595 124C45.2506 124 46.1507 123.636 46.8599 122.908C47.5691 122.163 47.9237 121.254 47.9237 120.181C47.9237 119.09 47.5691 118.19 46.8599 117.48C46.1507 116.753 45.2506 116.389 44.1595 116.389C43.0684 116.389 42.1683 116.753 41.4591 117.48C40.7499 118.19 40.3953 119.09 40.3953 120.181ZM36.6038 120.181C36.6038 118.162 37.313 116.471 38.7314 115.107C40.1316 113.725 41.941 113.034 44.1595 113.034C46.378 113.034 48.1874 113.725 49.5876 115.107C51.006 116.489 51.7152 118.18 51.7152 120.181C51.7152 122.217 51.006 123.927 49.5876 125.309C48.1692 126.673 46.3598 127.355 44.1595 127.355C41.9592 127.355 40.1498 126.673 38.7314 125.309C37.313 123.927 36.6038 122.217 36.6038 120.181ZM63.8085 116.608H59.6078L59.5533 118.517C59.4623 120.535 59.2532 122.127 58.9259 123.29C58.5804 124.509 58.0348 125.445 57.2893 126.1C56.5619 126.736 55.5527 127.073 54.2615 127.109C53.5887 127.109 53.1068 127.027 52.8159 126.864V123.727C53.0159 123.8 53.2796 123.836 53.6069 123.836C54.4979 123.836 55.0889 123.254 55.3799 122.09C55.6527 121.054 55.7981 119.49 55.8163 117.399L55.8982 113.389H67.6545V127H63.8085V116.608ZM78.0691 127.355C75.9415 127.355 74.1504 126.7 72.6956 125.391C71.2408 124.081 70.5135 122.345 70.5135 120.181C70.5135 118.162 71.1681 116.471 72.4774 115.107C73.7867 113.725 75.496 113.034 77.6054 113.034C79.5694 113.034 81.1423 113.734 82.3243 115.135C83.5063 116.535 84.0973 118.235 84.0973 120.235V121.245H74.3322C74.5322 122.154 75.0323 122.854 75.8324 123.345C76.6507 123.836 77.6691 124.081 78.8875 124.081C80.3968 124.081 81.8515 123.681 83.2518 122.881V125.963C82.0334 126.891 80.3059 127.355 78.0691 127.355ZM74.3322 118.79H80.3058C80.2695 118.008 79.9876 117.362 79.4603 116.853C78.9511 116.326 78.2783 116.062 77.4418 116.062C76.5871 116.062 75.8779 116.317 75.3142 116.826C74.7505 117.317 74.4231 117.971 74.3322 118.79ZM93.7054 127.355C91.5778 127.355 89.7866 126.7 88.3319 125.391C86.8771 124.081 86.1497 122.345 86.1497 120.181C86.1497 118.162 86.8044 116.471 88.1136 115.107C89.4229 113.725 91.1323 113.034 93.2417 113.034C95.2056 113.034 96.7786 113.734 97.9606 115.135C99.1426 116.535 99.7336 118.235 99.7336 120.235V121.245H89.9685C90.1685 122.154 90.6686 122.854 91.4687 123.345C92.287 123.836 93.3053 124.081 94.5237 124.081C96.033 124.081 97.4878 123.681 98.888 122.881V125.963C97.6696 126.891 95.9421 127.355 93.7054 127.355ZM89.9685 118.79H95.9421C95.9057 118.008 95.6239 117.362 95.0965 116.853C94.5874 116.326 93.9145 116.062 93.078 116.062C92.2234 116.062 91.5142 116.317 90.9504 116.826C90.3867 117.317 90.0594 117.971 89.9685 118.79Z" fill="black"/>
<line x1="213" y1="25.5" x2="271" y2="25.5" stroke="url(#paint2_linear_451_64)" stroke-width="3"/>
<line x1="271.5" y1="26" x2="271.5" y2="84" stroke="url(#paint3_linear_451_64)" stroke-width="3"/>
<line x1="272.061" y1="25.0607" x2="214.061" y2="83.0607" stroke="url(#paint4_linear_451_64)" stroke-width="3"/>
</g>
<defs>
<filter id="filter0_b_451_64" x="-30" y="-30" width="356" height="356" filterUnits="userSpaceOnUse" color-interpolation-filters="sRGB">
<feFlood flood-opacity="0" result="BackgroundImageFix"/>
<feGaussianBlur in="BackgroundImageFix" stdDeviation="15"/>
<feComposite in2="SourceAlpha" operator="in" result="effect1_backgroundBlur_451_64"/>
<feBlend mode="normal" in="SourceGraphic" in2="effect1_backgroundBlur_451_64" result="shape"/>
</filter>
<linearGradient id="paint0_linear_451_64" x1="9.73151" y1="276.132" x2="296" y2="-7.16293e-06" gradientUnits="userSpaceOnUse">
<stop stop-color="white"/>
<stop offset="1" stop-color="white" stop-opacity="0.3"/>
</linearGradient>
<linearGradient id="paint1_linear_451_64" x1="-1.85534e-06" y1="65.6877" x2="244.91" y2="296" gradientUnits="userSpaceOnUse">
<stop stop-color="white"/>
<stop offset="1" stop-color="white" stop-opacity="0"/>
</linearGradient>
<linearGradient id="paint2_linear_451_64" x1="211" y1="24.9999" x2="276.5" y2="27" gradientUnits="userSpaceOnUse">
<stop stop-color="#404040"/>
<stop offset="1" stop-color="#999999"/>
</linearGradient>
<linearGradient id="paint3_linear_451_64" x1="270" y1="88" x2="272.5" y2="20" gradientUnits="userSpaceOnUse">
<stop stop-color="#404040"/>
<stop offset="1" stop-color="#999999"/>
</linearGradient>
<linearGradient id="paint4_linear_451_64" x1="213" y1="82" x2="275.5" y2="24" gradientUnits="userSpaceOnUse">
<stop stop-color="#404040"/>
<stop offset="1" stop-color="#999999"/>
</linearGradient>
<clipPath id="clip0_451_64">
<rect width="296" height="296" rx="24" fill="white"/>
</clipPath>
</defs>
</svg>
