<svg width="400" height="429" viewBox="0 0 400 429" fill="none" xmlns="http://www.w3.org/2000/svg">
<g filter="url(#filter0_dddd_451_73)">
<g clip-path="url(#clip0_451_73)">
<g filter="url(#filter1_b_451_73)">
<rect x="52" y="10" width="296" height="296" rx="24" fill="url(#paint0_linear_451_73)"/>
<rect x="53" y="11" width="294" height="294" rx="23" stroke="url(#paint1_linear_451_73)" stroke-width="2"/>
</g>
<path opacity="0.8" d="M218.374 209.355C216.356 209.355 214.619 208.7 213.164 207.391C211.709 206.045 210.982 204.299 210.982 202.154C210.982 200.008 211.709 198.289 213.164 196.998C214.637 195.689 216.392 195.034 218.429 195.034C219.92 195.034 221.265 195.334 222.466 195.934V199.208C221.284 198.662 220.129 198.389 219.001 198.389C217.801 198.389 216.792 198.744 215.974 199.453C215.174 200.144 214.773 201.053 214.773 202.181C214.773 203.308 215.183 204.227 216.001 204.936C216.819 205.645 217.819 206 219.001 206C220.402 206 221.629 205.69 222.684 205.072V208.345C221.411 209.018 219.974 209.355 218.374 209.355ZM229.793 209H225.947V195.389H239.067V209H235.221V198.608H229.793V209ZM249.491 209.355C247.363 209.355 245.572 208.7 244.117 207.391C242.662 206.081 241.935 204.345 241.935 202.181C241.935 200.162 242.589 198.471 243.899 197.107C245.208 195.725 246.917 195.034 249.027 195.034C250.991 195.034 252.564 195.734 253.746 197.135C254.928 198.535 255.519 200.235 255.519 202.235V203.245H245.754C245.954 204.154 246.454 204.854 247.254 205.345C248.072 205.836 249.09 206.081 250.309 206.081C251.818 206.081 253.273 205.681 254.673 204.881V207.963C253.455 208.891 251.727 209.355 249.491 209.355ZM245.754 200.79H251.727C251.691 200.008 251.409 199.362 250.882 198.853C250.372 198.326 249.7 198.062 248.863 198.062C248.008 198.062 247.299 198.317 246.736 198.826C246.172 199.317 245.845 199.971 245.754 200.79ZM273.883 212.464H270.173V209H258.471V195.389H262.317V205.781H267.8V195.389H271.646V205.781H273.883V212.464ZM291.53 209H283.511V195.389H291.203C292.585 195.389 293.658 195.716 294.421 196.371C295.185 197.007 295.567 197.844 295.567 198.88C295.567 200.244 295.012 201.208 293.903 201.772C295.631 202.372 296.494 203.536 296.494 205.263C296.494 206.427 296.058 207.345 295.185 208.018C294.312 208.673 293.094 209 291.53 209ZM287.302 203.245V206.3H290.575C291.903 206.3 292.566 205.79 292.566 204.772C292.566 203.754 291.903 203.245 290.575 203.245H287.302ZM287.302 198.035V200.817H289.975C291.194 200.817 291.803 200.353 291.803 199.426C291.803 198.498 291.194 198.035 289.975 198.035H287.302ZM215.728 247H211.882V233.389H215.728V238.353L220.42 233.389H225.139L219.22 239.526L226.066 247H221.102L215.728 241.135V247ZM230.063 240.181C230.063 241.272 230.418 242.181 231.127 242.908C231.836 243.636 232.737 244 233.828 244C234.919 244 235.819 243.636 236.528 242.908C237.237 242.163 237.592 241.254 237.592 240.181C237.592 239.09 237.237 238.19 236.528 237.48C235.819 236.753 234.919 236.389 233.828 236.389C232.737 236.389 231.836 236.753 231.127 237.48C230.418 238.19 230.063 239.09 230.063 240.181ZM226.272 240.181C226.272 238.162 226.981 236.471 228.4 235.107C229.8 233.725 231.609 233.034 233.828 233.034C236.046 233.034 237.856 233.725 239.256 235.107C240.674 236.489 241.383 238.18 241.383 240.181C241.383 242.217 240.674 243.927 239.256 245.309C237.837 246.673 236.028 247.355 233.828 247.355C231.627 247.355 229.818 246.673 228.4 245.309C226.981 243.927 226.272 242.217 226.272 240.181ZM247.848 247H244.22V233.389H248.012L251.967 238.462L255.949 233.389H259.741V247H256.113V238.599L252.731 242.827H251.203L247.848 238.599V247ZM276.462 244.027C276.79 244.027 277.053 243.972 277.253 243.863V246.673C276.762 247.055 276.071 247.245 275.18 247.245C273.635 247.245 272.607 246.664 272.098 245.5C270.898 246.736 269.334 247.355 267.406 247.355C265.915 247.355 264.706 246.936 263.778 246.1C262.851 245.263 262.387 244.163 262.387 242.799C262.387 241.345 262.915 240.235 263.969 239.472C265.024 238.708 266.288 238.326 267.761 238.326C269.307 238.326 270.616 238.608 271.689 239.172V238.762C271.689 237.053 270.489 236.198 268.088 236.198C266.615 236.198 265.242 236.58 263.969 237.344V234.125C265.351 233.398 267.034 233.034 269.016 233.034C270.98 233.034 272.543 233.507 273.707 234.453C274.907 235.398 275.508 236.708 275.508 238.381V242.99C275.508 243.681 275.826 244.027 276.462 244.027ZM271.689 242.99V241.626C270.889 241.099 269.943 240.835 268.852 240.835C268.034 240.835 267.379 240.99 266.888 241.299C266.415 241.608 266.179 242.045 266.179 242.608C266.179 243.19 266.397 243.636 266.834 243.945C267.27 244.236 267.861 244.381 268.607 244.381C269.952 244.381 270.98 243.918 271.689 242.99ZM283.761 247H279.914V233.389H283.761V238.435H289.352V233.389H293.198V247H289.352V241.654H283.761V247ZM299.308 250.464H295.626V243.781H297.372C298.408 242.163 298.954 239.581 299.008 236.035L299.063 233.389H310.519V243.781H312.756V250.464H309.128V247H299.308V250.464ZM301.3 243.781H306.755V236.608H302.5C302.5 239.426 302.1 241.817 301.3 243.781ZM322.051 247.355C319.924 247.355 318.133 246.7 316.678 245.391C315.223 244.081 314.496 242.345 314.496 240.181C314.496 238.162 315.15 236.471 316.46 235.107C317.769 233.725 319.478 233.034 321.588 233.034C323.552 233.034 325.124 233.734 326.306 235.135C327.488 236.535 328.079 238.235 328.079 240.235V241.245H318.314C318.514 242.154 319.014 242.854 319.815 243.345C320.633 243.836 321.651 244.081 322.87 244.081C324.379 244.081 325.834 243.681 327.234 242.881V245.963C326.016 246.891 324.288 247.355 322.051 247.355ZM318.314 238.79H324.288C324.252 238.008 323.97 237.362 323.442 236.853C322.933 236.326 322.26 236.062 321.424 236.062C320.569 236.062 319.86 236.317 319.296 236.826C318.733 237.317 318.405 237.971 318.314 238.79Z" fill="black"/>
<line x1="265" y1="35.5" x2="323" y2="35.5" stroke="url(#paint2_linear_451_73)" stroke-width="3"/>
<line x1="323.5" y1="36" x2="323.5" y2="94" stroke="url(#paint3_linear_451_73)" stroke-width="3"/>
<line x1="324.061" y1="35.0607" x2="266.061" y2="93.0607" stroke="url(#paint4_linear_451_73)" stroke-width="3"/>
<path d="M146.684 248H78.9071V233.71L106.943 208.259C113.385 202.362 117.786 197.644 120.145 194.105C122.686 190.476 123.956 186.62 123.956 182.537C123.956 178.454 122.459 175.233 119.465 172.874C116.47 170.424 112.523 169.199 107.624 169.199C98.7322 169.199 90.1579 172.828 81.9013 180.087V159.944C89.6136 153.865 98.8683 150.826 109.665 150.826C118.739 150.826 126.632 153.502 133.347 158.855C140.061 164.209 143.418 171.24 143.418 179.951C143.418 186.665 141.921 192.608 138.927 197.78C136.205 202.679 130.988 208.713 123.275 215.881L106.943 230.852H146.684V248ZM194.88 248H175.69V173.69L155.548 183.898V164.708L177.868 152.731H194.88V248Z" fill="black"/>
</g>
</g>
<defs>
<filter id="filter0_dddd_451_73" x="0" y="0" width="400" height="488" filterUnits="userSpaceOnUse" color-interpolation-filters="sRGB">
<feFlood flood-opacity="0" result="BackgroundImageFix"/>
<feColorMatrix in="SourceAlpha" type="matrix" values="0 0 0 0 0 0 0 0 0 0 0 0 0 0 0 0 0 0 127 0" result="hardAlpha"/>
<feOffset dy="8"/>
<feGaussianBlur stdDeviation="9"/>
<feColorMatrix type="matrix" values="0 0 0 0 0.596078 0 0 0 0 0.596078 0 0 0 0 0.596078 0 0 0 0.1 0"/>
<feBlend mode="normal" in2="BackgroundImageFix" result="effect1_dropShadow_451_73"/>
<feColorMatrix in="SourceAlpha" type="matrix" values="0 0 0 0 0 0 0 0 0 0 0 0 0 0 0 0 0 0 127 0" result="hardAlpha"/>
<feOffset dy="33"/>
<feGaussianBlur stdDeviation="16.5"/>
<feColorMatrix type="matrix" values="0 0 0 0 0.596078 0 0 0 0 0.596078 0 0 0 0 0.596078 0 0 0 0.09 0"/>
<feBlend mode="normal" in2="effect1_dropShadow_451_73" result="effect2_dropShadow_451_73"/>
<feColorMatrix in="SourceAlpha" type="matrix" values="0 0 0 0 0 0 0 0 0 0 0 0 0 0 0 0 0 0 127 0" result="hardAlpha"/>
<feOffset dy="73"/>
<feGaussianBlur stdDeviation="22"/>
<feColorMatrix type="matrix" values="0 0 0 0 0.596078 0 0 0 0 0.596078 0 0 0 0 0.596078 0 0 0 0.05 0"/>
<feBlend mode="normal" in2="effect2_dropShadow_451_73" result="effect3_dropShadow_451_73"/>
<feColorMatrix in="SourceAlpha" type="matrix" values="0 0 0 0 0 0 0 0 0 0 0 0 0 0 0 0 0 0 127 0" result="hardAlpha"/>
<feOffset dy="130"/>
<feGaussianBlur stdDeviation="26"/>
<feColorMatrix type="matrix" values="0 0 0 0 0.596078 0 0 0 0 0.596078 0 0 0 0 0.596078 0 0 0 0.01 0"/>
<feBlend mode="normal" in2="effect3_dropShadow_451_73" result="effect4_dropShadow_451_73"/>
<feBlend mode="normal" in="SourceGraphic" in2="effect4_dropShadow_451_73" result="shape"/>
</filter>
<filter id="filter1_b_451_73" x="22" y="-20" width="356" height="356" filterUnits="userSpaceOnUse" color-interpolation-filters="sRGB">
<feFlood flood-opacity="0" result="BackgroundImageFix"/>
<feGaussianBlur in="BackgroundImageFix" stdDeviation="15"/>
<feComposite in2="SourceAlpha" operator="in" result="effect1_backgroundBlur_451_73"/>
<feBlend mode="normal" in="SourceGraphic" in2="effect1_backgroundBlur_451_73" result="shape"/>
</filter>
<linearGradient id="paint0_linear_451_73" x1="61.7315" y1="286.132" x2="348" y2="9.99999" gradientUnits="userSpaceOnUse">
<stop stop-color="white"/>
<stop offset="1" stop-color="white" stop-opacity="0.3"/>
</linearGradient>
<linearGradient id="paint1_linear_451_73" x1="52" y1="75.6877" x2="296.91" y2="306" gradientUnits="userSpaceOnUse">
<stop stop-color="#F6F6F6"/>
<stop offset="1" stop-color="white" stop-opacity="0"/>
</linearGradient>
<linearGradient id="paint2_linear_451_73" x1="263" y1="34.9999" x2="328.5" y2="37" gradientUnits="userSpaceOnUse">
<stop stop-color="#404040"/>
<stop offset="1" stop-color="#999999"/>
</linearGradient>
<linearGradient id="paint3_linear_451_73" x1="322" y1="98" x2="324.5" y2="30" gradientUnits="userSpaceOnUse">
<stop stop-color="#404040"/>
<stop offset="1" stop-color="#999999"/>
</linearGradient>
<linearGradient id="paint4_linear_451_73" x1="265" y1="92" x2="327.5" y2="34" gradientUnits="userSpaceOnUse">
<stop stop-color="#404040"/>
<stop offset="1" stop-color="#999999"/>
</linearGradient>
<clipPath id="clip0_451_73">
<rect x="52" y="10" width="296" height="296" rx="24" fill="white"/>
</clipPath>
</defs>
</svg>
