<svg width="400" height="429" viewBox="0 0 400 429" fill="none" xmlns="http://www.w3.org/2000/svg">
<g filter="url(#filter0_dddd_472_70)">
<g clip-path="url(#clip0_472_70)">
<g filter="url(#filter1_b_472_70)">
<rect x="52" y="10" width="296" height="296" rx="24" fill="url(#paint0_linear_472_70)"/>
<rect x="53" y="11" width="294" height="294" rx="23" stroke="url(#paint1_linear_472_70)" stroke-width="2"/>
</g>
<path opacity="0.8" d="M204.171 248.216H205.228V246.119H206.268V239.794H214.877V249.477H213.65V241.022H207.512V246.289H206.455V248.403H205.398V249.477H204.171V248.216ZM221.73 241.891H222.787V240.851H223.844V239.794H229.283V240.851H230.34V241.891H231.397V245.249H222.975V247.176H224.032V248.216H229.112V247.176H230.152V246.119H231.397V247.346H230.34V248.403H229.283V249.477H223.844V248.403H222.787V247.346H221.73V241.891ZM230.152 244.005V242.078H229.112V241.022H224.032V242.078H222.975V244.005H230.152ZM242.989 241.022H238.778V239.794H248.445V241.022H244.234V249.477H242.989V241.022ZM205.211 263.794H206.455V268.005H212.593V263.794H213.82V273.477H212.593V269.249H206.455V273.477H205.211V263.794ZM221.73 268.005H222.787V266.948H229.112V265.022H222.975V266.078H221.73V264.851H222.787V263.794H229.283V264.851H230.34V272.216H231.397V273.477H230.152V272.403H228.243V273.477H222.787V272.403H221.73V268.005ZM228.055 272.216V271.176H229.112V268.192H222.975V272.216H228.055ZM247.303 263.794H248.547V264.851H249.416V263.794H254.855V264.851H255.912V265.891H256.969V270.289H255.912V271.346H254.855V272.403H249.416V271.346H248.547V274.534H247.303V263.794ZM249.604 270.119V271.176H254.684V270.119H255.724V266.078H254.684V265.022H249.604V266.078H248.547V270.119H249.604ZM263.839 263.794H265.067V266.948H271.391V268.005H272.431V272.403H271.391V273.477H263.839V263.794ZM273.301 263.794H274.545V273.477H273.301V263.794ZM271.204 272.216V268.192H265.067V272.216H271.204ZM281.927 263.794H283.172V268.005H289.309V263.794H290.536V273.477H289.309V269.249H283.172V273.477H281.927V263.794ZM298.447 263.794H299.691V268.005H303.715V266.948H304.771V265.891H305.828V263.794H307.056V266.078H305.999V267.135H304.959V268.192H303.902V269.062H304.959V270.119H305.999V271.176H307.056V272.216H308.113V273.477H306.868V272.403H305.828V271.346H304.771V270.289H303.715V269.249H299.691V273.477H298.447V263.794ZM315.495 265.891H316.552V264.851H317.609V263.794H323.047V264.851H324.104V265.891H325.161V269.249H316.739V271.176H317.796V272.216H322.877V271.176H323.916V270.119H325.161V271.346H324.104V272.403H323.047V273.477H317.609V272.403H316.552V271.346H315.495V265.891ZM323.916 268.005V266.078H322.877V265.022H317.796V266.078H316.739V268.005H323.916Z" fill="#FC3D12"/>
<path d="M116.918 221.232L59.2539 215.112H117.87L116.918 221.232ZM118.55 208.176L60.8859 202.056H119.23L118.55 208.176ZM119.91 195.12L62.5179 189H120.59L119.91 195.12ZM118.414 267.472L115.15 273.456L59.6619 267.472H118.414ZM81.5579 228.168H140.31L137.046 234.152L81.5579 228.168ZM67.0059 254.28H125.758L122.494 260.264L67.0059 254.28ZM129.702 247.072L74.3499 241.224H132.966L129.702 247.072ZM185.598 206L148.742 274H119.502L153.366 213.072H122.222L124.67 189H188.59L185.598 206Z" fill="#4185F3"/>
<line x1="265" y1="35.5" x2="323" y2="35.5" stroke="url(#paint2_linear_472_70)" stroke-width="3"/>
<line x1="323.5" y1="36" x2="323.5" y2="94" stroke="url(#paint3_linear_472_70)" stroke-width="3"/>
<line x1="324.061" y1="35.0607" x2="266.061" y2="93.0607" stroke="url(#paint4_linear_472_70)" stroke-width="3"/>
</g>
</g>
<defs>
<filter id="filter0_dddd_472_70" x="0" y="0" width="400" height="488" filterUnits="userSpaceOnUse" color-interpolation-filters="sRGB">
<feFlood flood-opacity="0" result="BackgroundImageFix"/>
<feColorMatrix in="SourceAlpha" type="matrix" values="0 0 0 0 0 0 0 0 0 0 0 0 0 0 0 0 0 0 127 0" result="hardAlpha"/>
<feOffset dy="8"/>
<feGaussianBlur stdDeviation="9"/>
<feColorMatrix type="matrix" values="0 0 0 0 0.596078 0 0 0 0 0.596078 0 0 0 0 0.596078 0 0 0 0.1 0"/>
<feBlend mode="normal" in2="BackgroundImageFix" result="effect1_dropShadow_472_70"/>
<feColorMatrix in="SourceAlpha" type="matrix" values="0 0 0 0 0 0 0 0 0 0 0 0 0 0 0 0 0 0 127 0" result="hardAlpha"/>
<feOffset dy="33"/>
<feGaussianBlur stdDeviation="16.5"/>
<feColorMatrix type="matrix" values="0 0 0 0 0.596078 0 0 0 0 0.596078 0 0 0 0 0.596078 0 0 0 0.09 0"/>
<feBlend mode="normal" in2="effect1_dropShadow_472_70" result="effect2_dropShadow_472_70"/>
<feColorMatrix in="SourceAlpha" type="matrix" values="0 0 0 0 0 0 0 0 0 0 0 0 0 0 0 0 0 0 127 0" result="hardAlpha"/>
<feOffset dy="73"/>
<feGaussianBlur stdDeviation="22"/>
<feColorMatrix type="matrix" values="0 0 0 0 0.596078 0 0 0 0 0.596078 0 0 0 0 0.596078 0 0 0 0.05 0"/>
<feBlend mode="normal" in2="effect2_dropShadow_472_70" result="effect3_dropShadow_472_70"/>
<feColorMatrix in="SourceAlpha" type="matrix" values="0 0 0 0 0 0 0 0 0 0 0 0 0 0 0 0 0 0 127 0" result="hardAlpha"/>
<feOffset dy="130"/>
<feGaussianBlur stdDeviation="26"/>
<feColorMatrix type="matrix" values="0 0 0 0 0.596078 0 0 0 0 0.596078 0 0 0 0 0.596078 0 0 0 0.01 0"/>
<feBlend mode="normal" in2="effect3_dropShadow_472_70" result="effect4_dropShadow_472_70"/>
<feBlend mode="normal" in="SourceGraphic" in2="effect4_dropShadow_472_70" result="shape"/>
</filter>
<filter id="filter1_b_472_70" x="22" y="-20" width="356" height="356" filterUnits="userSpaceOnUse" color-interpolation-filters="sRGB">
<feFlood flood-opacity="0" result="BackgroundImageFix"/>
<feGaussianBlur in="BackgroundImageFix" stdDeviation="15"/>
<feComposite in2="SourceAlpha" operator="in" result="effect1_backgroundBlur_472_70"/>
<feBlend mode="normal" in="SourceGraphic" in2="effect1_backgroundBlur_472_70" result="shape"/>
</filter>
<linearGradient id="paint0_linear_472_70" x1="61.7315" y1="286.132" x2="348" y2="9.99999" gradientUnits="userSpaceOnUse">
<stop stop-color="white"/>
<stop offset="1" stop-color="white" stop-opacity="0.3"/>
</linearGradient>
<linearGradient id="paint1_linear_472_70" x1="52" y1="75.6877" x2="296.91" y2="306" gradientUnits="userSpaceOnUse">
<stop stop-color="white"/>
<stop offset="1" stop-color="white" stop-opacity="0"/>
</linearGradient>
<linearGradient id="paint2_linear_472_70" x1="263" y1="34.9999" x2="328.5" y2="37" gradientUnits="userSpaceOnUse">
<stop stop-color="#404040"/>
<stop offset="1" stop-color="#999999"/>
</linearGradient>
<linearGradient id="paint3_linear_472_70" x1="322" y1="98" x2="324.5" y2="30" gradientUnits="userSpaceOnUse">
<stop stop-color="#404040"/>
<stop offset="1" stop-color="#999999"/>
</linearGradient>
<linearGradient id="paint4_linear_472_70" x1="265" y1="92" x2="327.5" y2="34" gradientUnits="userSpaceOnUse">
<stop stop-color="#404040"/>
<stop offset="1" stop-color="#999999"/>
</linearGradient>
<clipPath id="clip0_472_70">
<rect x="52" y="10" width="296" height="296" rx="24" fill="white"/>
</clipPath>
</defs>
</svg>
