<svg width="296" height="296" viewBox="0 0 296 296" fill="none" xmlns="http://www.w3.org/2000/svg">
<g clip-path="url(#clip0_451_49)">
<g filter="url(#filter0_b_451_49)">
<rect width="296" height="296" rx="24" fill="url(#paint0_linear_451_49)"/>
<rect x="1" y="1" width="294" height="294" rx="23" stroke="url(#paint1_linear_451_49)" stroke-width="2"/>
</g>
<path opacity="0.8" d="M151.538 189.608H147.337L147.283 191.517C147.192 193.535 146.983 195.127 146.656 196.29C146.31 197.509 145.765 198.445 145.019 199.1C144.292 199.736 143.282 200.073 141.991 200.109C141.318 200.109 140.836 200.027 140.546 199.864V196.727C140.746 196.8 141.009 196.836 141.337 196.836C142.228 196.836 142.819 196.254 143.11 195.09C143.382 194.054 143.528 192.49 143.546 190.399L143.628 186.389H155.384V200H151.538V189.608ZM165.799 200.355C163.671 200.355 161.88 199.7 160.425 198.391C158.971 197.081 158.243 195.345 158.243 193.181C158.243 191.162 158.898 189.471 160.207 188.107C161.516 186.725 163.226 186.034 165.335 186.034C167.299 186.034 168.872 186.734 170.054 188.135C171.236 189.535 171.827 191.235 171.827 193.235V194.245H162.062C162.262 195.154 162.762 195.854 163.562 196.345C164.38 196.836 165.399 197.081 166.617 197.081C168.126 197.081 169.581 196.681 170.981 195.881V198.963C169.763 199.891 168.036 200.355 165.799 200.355ZM162.062 191.79H168.036C167.999 191.008 167.717 190.362 167.19 189.853C166.681 189.326 166.008 189.062 165.171 189.062C164.317 189.062 163.608 189.317 163.044 189.826C162.48 190.317 162.153 190.971 162.062 191.79ZM181.408 200H177.562V189.608H173.307V186.389H185.718V189.608H181.408V200ZM145.728 238H141.882V224.389H145.728V229.435H151.32V224.389H155.166V238H151.32V232.654H145.728V238ZM171.887 235.027C172.214 235.027 172.478 234.972 172.678 234.863V237.673C172.187 238.055 171.496 238.245 170.605 238.245C169.059 238.245 168.032 237.664 167.522 236.5C166.322 237.736 164.758 238.355 162.831 238.355C161.34 238.355 160.13 237.936 159.203 237.1C158.276 236.263 157.812 235.163 157.812 233.799C157.812 232.345 158.339 231.235 159.394 230.472C160.449 229.708 161.712 229.326 163.185 229.326C164.731 229.326 166.04 229.608 167.113 230.172V229.762C167.113 228.053 165.913 227.198 163.513 227.198C162.04 227.198 160.667 227.58 159.394 228.344V225.125C160.776 224.398 162.458 224.034 164.44 224.034C166.404 224.034 167.968 224.507 169.132 225.453C170.332 226.398 170.932 227.708 170.932 229.381V233.99C170.932 234.681 171.25 235.027 171.887 235.027ZM167.113 233.99V232.626C166.313 232.099 165.367 231.835 164.276 231.835C163.458 231.835 162.803 231.99 162.312 232.299C161.84 232.608 161.603 233.045 161.603 233.608C161.603 234.19 161.822 234.636 162.258 234.945C162.694 235.236 163.285 235.381 164.031 235.381C165.377 235.381 166.404 234.918 167.113 233.99ZM190.637 224.034C192.492 224.034 194.02 224.725 195.22 226.107C196.438 227.453 197.047 229.153 197.047 231.208C197.047 233.227 196.438 234.927 195.22 236.309C194.02 237.673 192.492 238.355 190.637 238.355C188.728 238.355 187.237 237.682 186.164 236.336V243.455H182.318V224.389H186.164V226.053C187.182 224.707 188.673 224.034 190.637 224.034ZM189.546 227.389C188.819 227.389 188.155 227.58 187.555 227.962C186.955 228.344 186.491 228.835 186.164 229.435V232.981C186.491 233.581 186.955 234.072 187.555 234.454C188.155 234.818 188.819 235 189.546 235C190.637 235 191.519 234.636 192.192 233.908C192.883 233.163 193.229 232.263 193.229 231.208C193.229 230.135 192.883 229.226 192.192 228.48C191.519 227.753 190.637 227.389 189.546 227.389ZM217.548 238H213.756V224.389H217.548V238ZM206.691 238H199.872V224.389H203.718V228.371H206.5C208.21 228.371 209.574 228.808 210.592 229.681C211.61 230.553 212.119 231.717 212.119 233.172C212.119 234.554 211.647 235.709 210.701 236.636C209.737 237.545 208.401 238 206.691 238ZM203.718 231.235V235.027H205.9C206.646 235.027 207.228 234.863 207.646 234.536C208.064 234.209 208.273 233.745 208.273 233.145C208.273 232.545 208.064 232.081 207.646 231.754C207.228 231.408 206.646 231.235 205.9 231.235H203.718ZM225.161 238H221.315V224.389H225.161V229.435H230.753V224.389H234.599V238H230.753V232.654H225.161V238ZM242.209 238H238.363V224.389H242.209V229.353L246.901 224.389H251.62L245.701 230.526L252.547 238H247.583L242.209 232.135V238ZM260.309 238.355C258.181 238.355 256.39 237.7 254.935 236.391C253.481 235.081 252.753 233.345 252.753 231.181C252.753 229.162 253.408 227.471 254.717 226.107C256.026 224.725 257.736 224.034 259.845 224.034C261.809 224.034 263.382 224.734 264.564 226.135C265.746 227.535 266.337 229.235 266.337 231.235V232.245H256.572C256.772 233.154 257.272 233.854 258.072 234.345C258.891 234.836 259.909 235.081 261.127 235.081C262.637 235.081 264.091 234.681 265.492 233.881V236.963C264.273 237.891 262.546 238.355 260.309 238.355ZM256.572 229.79H262.546C262.509 229.008 262.227 228.362 261.7 227.853C261.191 227.326 260.518 227.062 259.682 227.062C258.827 227.062 258.118 227.317 257.554 227.826C256.99 228.317 256.663 228.971 256.572 229.79Z" fill="black"/>
<path d="M82.106 239H61.298L100.194 161.344H55.178V143.8H122.362V158.896L82.106 239Z" fill="black"/>
<line x1="213" y1="25.5" x2="271" y2="25.5" stroke="url(#paint2_linear_451_49)" stroke-width="3"/>
<line x1="271.5" y1="26" x2="271.5" y2="84" stroke="url(#paint3_linear_451_49)" stroke-width="3"/>
<line x1="272.061" y1="25.0607" x2="214.061" y2="83.0607" stroke="url(#paint4_linear_451_49)" stroke-width="3"/>
</g>
<defs>
<filter id="filter0_b_451_49" x="-30" y="-30" width="356" height="356" filterUnits="userSpaceOnUse" color-interpolation-filters="sRGB">
<feFlood flood-opacity="0" result="BackgroundImageFix"/>
<feGaussianBlur in="BackgroundImageFix" stdDeviation="15"/>
<feComposite in2="SourceAlpha" operator="in" result="effect1_backgroundBlur_451_49"/>
<feBlend mode="normal" in="SourceGraphic" in2="effect1_backgroundBlur_451_49" result="shape"/>
</filter>
<linearGradient id="paint0_linear_451_49" x1="9.73151" y1="276.132" x2="296" y2="-7.16293e-06" gradientUnits="userSpaceOnUse">
<stop stop-color="white"/>
<stop offset="1" stop-color="white" stop-opacity="0.3"/>
</linearGradient>
<linearGradient id="paint1_linear_451_49" x1="-1.85534e-06" y1="65.6877" x2="244.91" y2="296" gradientUnits="userSpaceOnUse">
<stop stop-color="white"/>
<stop offset="1" stop-color="white" stop-opacity="0"/>
</linearGradient>
<linearGradient id="paint2_linear_451_49" x1="211" y1="24.9999" x2="276.5" y2="27" gradientUnits="userSpaceOnUse">
<stop stop-color="#404040"/>
<stop offset="1" stop-color="#999999"/>
</linearGradient>
<linearGradient id="paint3_linear_451_49" x1="270" y1="88" x2="272.5" y2="20" gradientUnits="userSpaceOnUse">
<stop stop-color="#404040"/>
<stop offset="1" stop-color="#999999"/>
</linearGradient>
<linearGradient id="paint4_linear_451_49" x1="213" y1="82" x2="275.5" y2="24" gradientUnits="userSpaceOnUse">
<stop stop-color="#404040"/>
<stop offset="1" stop-color="#999999"/>
</linearGradient>
<clipPath id="clip0_451_49">
<rect width="296" height="296" rx="24" fill="white"/>
</clipPath>
</defs>
</svg>
