<svg width="296" height="296" viewBox="0 0 296 296" fill="none" xmlns="http://www.w3.org/2000/svg">
<g clip-path="url(#clip0_451_73)">
<g filter="url(#filter0_b_451_73)">
<rect width="296" height="296" rx="24" fill="url(#paint0_linear_451_73)"/>
<rect x="1" y="1" width="294" height="294" rx="23" stroke="url(#paint1_linear_451_73)" stroke-width="2"/>
</g>
<path opacity="0.8" d="M166.374 199.355C164.356 199.355 162.619 198.7 161.164 197.391C159.709 196.045 158.982 194.299 158.982 192.154C158.982 190.008 159.709 188.289 161.164 186.998C162.637 185.689 164.392 185.034 166.429 185.034C167.92 185.034 169.265 185.334 170.466 185.934V189.208C169.284 188.662 168.129 188.389 167.001 188.389C165.801 188.389 164.792 188.744 163.974 189.453C163.174 190.144 162.773 191.053 162.773 192.181C162.773 193.308 163.183 194.227 164.001 194.936C164.819 195.645 165.819 196 167.001 196C168.402 196 169.629 195.69 170.684 195.072V198.345C169.411 199.018 167.974 199.355 166.374 199.355ZM177.793 199H173.947V185.389H187.067V199H183.221V188.608H177.793V199ZM197.491 199.355C195.363 199.355 193.572 198.7 192.117 197.391C190.662 196.081 189.935 194.345 189.935 192.181C189.935 190.162 190.589 188.471 191.899 187.107C193.208 185.725 194.917 185.034 197.027 185.034C198.991 185.034 200.564 185.734 201.746 187.135C202.928 188.535 203.519 190.235 203.519 192.235V193.245H193.754C193.954 194.154 194.454 194.854 195.254 195.345C196.072 195.836 197.09 196.081 198.309 196.081C199.818 196.081 201.273 195.681 202.673 194.881V197.963C201.455 198.891 199.727 199.355 197.491 199.355ZM193.754 190.79H199.727C199.691 190.008 199.409 189.362 198.882 188.853C198.372 188.326 197.7 188.062 196.863 188.062C196.008 188.062 195.299 188.317 194.736 188.826C194.172 189.317 193.845 189.971 193.754 190.79ZM221.883 202.464H218.173V199H206.471V185.389H210.317V195.781H215.8V185.389H219.646V195.781H221.883V202.464ZM239.53 199H231.511V185.389H239.203C240.585 185.389 241.658 185.716 242.421 186.371C243.185 187.007 243.567 187.844 243.567 188.88C243.567 190.244 243.012 191.208 241.903 191.772C243.631 192.372 244.494 193.536 244.494 195.263C244.494 196.427 244.058 197.345 243.185 198.018C242.312 198.673 241.094 199 239.53 199ZM235.302 193.245V196.3H238.575C239.903 196.3 240.566 195.79 240.566 194.772C240.566 193.754 239.903 193.245 238.575 193.245H235.302ZM235.302 188.035V190.817H237.975C239.194 190.817 239.803 190.353 239.803 189.426C239.803 188.498 239.194 188.035 237.975 188.035H235.302ZM163.728 237H159.882V223.389H163.728V228.353L168.42 223.389H173.139L167.22 229.526L174.066 237H169.102L163.728 231.135V237ZM178.063 230.181C178.063 231.272 178.418 232.181 179.127 232.908C179.836 233.636 180.737 234 181.828 234C182.919 234 183.819 233.636 184.528 232.908C185.237 232.163 185.592 231.254 185.592 230.181C185.592 229.09 185.237 228.19 184.528 227.48C183.819 226.753 182.919 226.389 181.828 226.389C180.737 226.389 179.836 226.753 179.127 227.48C178.418 228.19 178.063 229.09 178.063 230.181ZM174.272 230.181C174.272 228.162 174.981 226.471 176.4 225.107C177.8 223.725 179.609 223.034 181.828 223.034C184.046 223.034 185.856 223.725 187.256 225.107C188.674 226.489 189.383 228.18 189.383 230.181C189.383 232.217 188.674 233.927 187.256 235.309C185.837 236.673 184.028 237.355 181.828 237.355C179.627 237.355 177.818 236.673 176.4 235.309C174.981 233.927 174.272 232.217 174.272 230.181ZM195.848 237H192.22V223.389H196.012L199.967 228.462L203.949 223.389H207.741V237H204.113V228.599L200.731 232.827H199.203L195.848 228.599V237ZM224.462 234.027C224.79 234.027 225.053 233.972 225.253 233.863V236.673C224.762 237.055 224.071 237.245 223.18 237.245C221.635 237.245 220.607 236.664 220.098 235.5C218.898 236.736 217.334 237.355 215.406 237.355C213.915 237.355 212.706 236.936 211.778 236.1C210.851 235.263 210.387 234.163 210.387 232.799C210.387 231.345 210.915 230.235 211.969 229.472C213.024 228.708 214.288 228.326 215.761 228.326C217.307 228.326 218.616 228.608 219.689 229.172V228.762C219.689 227.053 218.489 226.198 216.088 226.198C214.615 226.198 213.242 226.58 211.969 227.344V224.125C213.351 223.398 215.034 223.034 217.016 223.034C218.98 223.034 220.543 223.507 221.707 224.453C222.907 225.398 223.508 226.708 223.508 228.381V232.99C223.508 233.681 223.826 234.027 224.462 234.027ZM219.689 232.99V231.626C218.889 231.099 217.943 230.835 216.852 230.835C216.034 230.835 215.379 230.99 214.888 231.299C214.415 231.608 214.179 232.045 214.179 232.608C214.179 233.19 214.397 233.636 214.834 233.945C215.27 234.236 215.861 234.381 216.607 234.381C217.952 234.381 218.98 233.918 219.689 232.99ZM231.761 237H227.914V223.389H231.761V228.435H237.352V223.389H241.198V237H237.352V231.654H231.761V237ZM247.308 240.464H243.626V233.781H245.372C246.408 232.163 246.954 229.581 247.008 226.035L247.063 223.389H258.519V233.781H260.756V240.464H257.128V237H247.308V240.464ZM249.3 233.781H254.755V226.608H250.5C250.5 229.426 250.1 231.817 249.3 233.781ZM270.051 237.355C267.924 237.355 266.133 236.7 264.678 235.391C263.223 234.081 262.496 232.345 262.496 230.181C262.496 228.162 263.15 226.471 264.46 225.107C265.769 223.725 267.478 223.034 269.588 223.034C271.552 223.034 273.124 223.734 274.306 225.135C275.488 226.535 276.079 228.235 276.079 230.235V231.245H266.314C266.514 232.154 267.014 232.854 267.815 233.345C268.633 233.836 269.651 234.081 270.87 234.081C272.379 234.081 273.834 233.681 275.234 232.881V235.963C274.016 236.891 272.288 237.355 270.051 237.355ZM266.314 228.79H272.288C272.252 228.008 271.97 227.362 271.442 226.853C270.933 226.326 270.26 226.062 269.424 226.062C268.569 226.062 267.86 226.317 267.296 226.826C266.733 227.317 266.405 227.971 266.314 228.79Z" fill="black"/>
<line x1="213" y1="25.5" x2="271" y2="25.5" stroke="url(#paint2_linear_451_73)" stroke-width="3"/>
<line x1="271.5" y1="26" x2="271.5" y2="84" stroke="url(#paint3_linear_451_73)" stroke-width="3"/>
<line x1="272.061" y1="25.0607" x2="214.061" y2="83.0607" stroke="url(#paint4_linear_451_73)" stroke-width="3"/>
<path d="M94.6843 238H26.9071V223.71L54.9434 198.259C61.3855 192.362 65.786 187.644 68.145 184.105C70.6855 180.476 71.9558 176.62 71.9558 172.537C71.9558 168.454 70.4587 165.233 67.4645 162.874C64.4704 160.424 60.5235 159.199 55.6239 159.199C46.7322 159.199 38.1579 162.828 29.9013 170.087V149.944C37.6136 143.865 46.8683 140.826 57.6654 140.826C66.7387 140.826 74.6324 143.502 81.3466 148.855C88.0608 154.209 91.4179 161.24 91.4179 169.951C91.4179 176.665 89.9208 182.608 86.9266 187.78C84.2047 192.679 78.9875 198.713 71.2753 205.881L54.9434 220.852H94.6843V238ZM142.88 238H123.69V163.69L103.548 173.898V154.708L125.868 142.731H142.88V238Z" fill="black"/>
</g>
<defs>
<filter id="filter0_b_451_73" x="-30" y="-30" width="356" height="356" filterUnits="userSpaceOnUse" color-interpolation-filters="sRGB">
<feFlood flood-opacity="0" result="BackgroundImageFix"/>
<feGaussianBlur in="BackgroundImageFix" stdDeviation="15"/>
<feComposite in2="SourceAlpha" operator="in" result="effect1_backgroundBlur_451_73"/>
<feBlend mode="normal" in="SourceGraphic" in2="effect1_backgroundBlur_451_73" result="shape"/>
</filter>
<linearGradient id="paint0_linear_451_73" x1="9.73151" y1="276.132" x2="296" y2="-7.16293e-06" gradientUnits="userSpaceOnUse">
<stop stop-color="white"/>
<stop offset="1" stop-color="white" stop-opacity="0.3"/>
</linearGradient>
<linearGradient id="paint1_linear_451_73" x1="-1.85534e-06" y1="65.6877" x2="244.91" y2="296" gradientUnits="userSpaceOnUse">
<stop stop-color="#F6F6F6"/>
<stop offset="1" stop-color="white" stop-opacity="0"/>
</linearGradient>
<linearGradient id="paint2_linear_451_73" x1="211" y1="24.9999" x2="276.5" y2="27" gradientUnits="userSpaceOnUse">
<stop stop-color="#404040"/>
<stop offset="1" stop-color="#999999"/>
</linearGradient>
<linearGradient id="paint3_linear_451_73" x1="270" y1="88" x2="272.5" y2="20" gradientUnits="userSpaceOnUse">
<stop stop-color="#404040"/>
<stop offset="1" stop-color="#999999"/>
</linearGradient>
<linearGradient id="paint4_linear_451_73" x1="213" y1="82" x2="275.5" y2="24" gradientUnits="userSpaceOnUse">
<stop stop-color="#404040"/>
<stop offset="1" stop-color="#999999"/>
</linearGradient>
<clipPath id="clip0_451_73">
<rect width="296" height="296" rx="24" fill="white"/>
</clipPath>
</defs>
</svg>
