<svg width="400" height="429" viewBox="0 0 400 429" fill="none" xmlns="http://www.w3.org/2000/svg">
<g filter="url(#filter0_dddd_451_64)">
<g clip-path="url(#clip0_451_64)">
<g filter="url(#filter1_b_451_64)">
<rect x="52" y="10" width="296" height="296" rx="24" fill="url(#paint0_linear_451_64)"/>
<rect x="53" y="11" width="294" height="294" rx="23" stroke="url(#paint1_linear_451_64)" stroke-width="2"/>
</g>
<path opacity="0.8" d="M215.728 280H211.882V266.389H215.728V271.353L220.42 266.389H225.139L219.22 272.526L226.066 280H221.102L215.728 274.135V280ZM237.867 269.608H233.666L233.612 271.517C233.521 273.535 233.312 275.127 232.984 276.29C232.639 277.509 232.093 278.445 231.348 279.1C230.62 279.736 229.611 280.073 228.32 280.109C227.647 280.109 227.165 280.027 226.874 279.864V276.727C227.074 276.8 227.338 276.836 227.665 276.836C228.556 276.836 229.147 276.254 229.438 275.09C229.711 274.054 229.857 272.49 229.875 270.399L229.957 266.389H241.713V280H237.867V269.608ZM249.073 280H245.472V266.389H249.264V274.408L255.428 266.389H259.029V280H255.237V271.981L249.073 280ZM269.442 280.355C267.314 280.355 265.523 279.7 264.069 278.391C262.614 277.081 261.886 275.345 261.886 273.181C261.886 271.162 262.541 269.471 263.85 268.107C265.16 266.725 266.869 266.034 268.978 266.034C270.942 266.034 272.515 266.734 273.697 268.135C274.879 269.535 275.47 271.235 275.47 273.235V274.245H265.705C265.905 275.154 266.405 275.854 267.205 276.345C268.024 276.836 269.042 277.081 270.26 277.081C271.77 277.081 273.224 276.681 274.625 275.881V278.963C273.406 279.891 271.679 280.355 269.442 280.355ZM265.705 271.79H271.679C271.642 271.008 271.361 270.362 270.833 269.853C270.324 269.326 269.651 269.062 268.815 269.062C267.96 269.062 267.251 269.317 266.687 269.826C266.123 270.317 265.796 270.971 265.705 271.79ZM282.269 280H278.423V266.389H282.269V271.435H287.861V266.389H291.707V280H287.861V274.654H282.269V280ZM302.099 280H298.253V269.608H293.998V266.389H306.409V269.608H302.099V280ZM311.574 273.181C311.574 274.272 311.929 275.181 312.638 275.908C313.347 276.636 314.248 277 315.339 277C316.43 277 317.33 276.636 318.039 275.908C318.748 275.163 319.103 274.254 319.103 273.181C319.103 272.09 318.748 271.19 318.039 270.48C317.33 269.753 316.43 269.389 315.339 269.389C314.248 269.389 313.347 269.753 312.638 270.48C311.929 271.19 311.574 272.09 311.574 273.181ZM307.783 273.181C307.783 271.162 308.492 269.471 309.911 268.107C311.311 266.725 313.12 266.034 315.339 266.034C317.557 266.034 319.367 266.725 320.767 268.107C322.185 269.489 322.894 271.18 322.894 273.181C322.894 275.217 322.185 276.927 320.767 278.309C319.348 279.673 317.539 280.355 315.339 280.355C313.138 280.355 311.329 279.673 309.911 278.309C308.492 276.927 307.783 275.217 307.783 273.181ZM333.751 280H325.731V266.389H333.423C334.805 266.389 335.878 266.716 336.642 267.371C337.406 268.007 337.787 268.844 337.787 269.88C337.787 271.244 337.233 272.208 336.124 272.772C337.851 273.372 338.715 274.536 338.715 276.263C338.715 277.427 338.278 278.345 337.406 279.018C336.533 279.673 335.314 280 333.751 280ZM329.523 274.245V277.3H332.796C334.123 277.3 334.787 276.79 334.787 275.772C334.787 274.754 334.123 274.245 332.796 274.245H329.523ZM329.523 269.035V271.817H332.196C333.414 271.817 334.023 271.353 334.023 270.426C334.023 269.498 333.414 269.035 332.196 269.035H329.523Z" fill="black"/>
<path d="M113.079 248H93.8891V173.69L73.7465 183.898V164.708L96.0667 152.731H113.079V248ZM172.098 249.905C163.66 249.905 156.265 247.546 149.914 242.828C143.744 238.201 139.026 232.213 135.76 224.863C132.584 217.514 130.996 209.348 130.996 200.365C130.996 191.474 132.539 183.399 135.624 176.14C138.89 168.518 143.699 162.394 150.05 157.767C156.492 153.139 163.841 150.826 172.098 150.826C184.619 150.826 194.554 155.68 201.904 165.388C209.344 175.006 213.064 186.665 213.064 200.365C213.064 214.066 209.344 225.725 201.904 235.343C194.554 245.051 184.619 249.905 172.098 249.905ZM156.447 222.55C160.439 228.538 165.656 231.532 172.098 231.532C178.631 231.532 183.802 228.538 187.613 222.55C191.515 216.47 193.465 209.076 193.465 200.365C193.465 191.564 191.515 184.215 187.613 178.317C183.802 172.238 178.631 169.199 172.098 169.199C165.565 169.199 160.348 172.238 156.447 178.317C152.545 184.215 150.594 191.564 150.594 200.365C150.594 209.076 152.545 216.47 156.447 222.55ZM268.058 249.905C259.62 249.905 252.225 247.546 245.874 242.828C239.704 238.201 234.986 232.213 231.72 224.863C228.544 217.514 226.956 209.348 226.956 200.365C226.956 191.474 228.499 183.399 231.584 176.14C234.85 168.518 239.659 162.394 246.01 157.767C252.452 153.139 259.801 150.826 268.058 150.826C280.579 150.826 290.514 155.68 297.864 165.388C305.304 175.006 309.024 186.665 309.024 200.365C309.024 214.066 305.304 225.725 297.864 235.343C290.514 245.051 280.579 249.905 268.058 249.905ZM252.407 222.55C256.399 228.538 261.616 231.532 268.058 231.532C274.591 231.532 279.763 228.538 283.573 222.55C287.475 216.47 289.426 209.076 289.426 200.365C289.426 191.564 287.475 184.215 283.573 178.317C279.763 172.238 274.591 169.199 268.058 169.199C261.525 169.199 256.308 172.238 252.407 178.317C248.505 184.215 246.555 191.564 246.555 200.365C246.555 209.076 248.505 216.47 252.407 222.55Z" fill="black"/>
<path opacity="0.8" d="M80.6287 124.262C82.4108 124.262 83.8565 124.816 84.9658 125.926C86.0932 127.053 86.6569 128.526 86.6569 130.344C86.6569 132.399 85.975 134.081 84.6112 135.391C83.2837 136.7 81.5925 137.355 79.5377 137.355C77.1191 137.355 75.2734 136.554 74.0005 134.954C72.7094 133.336 72.0638 131.181 72.0638 128.49C72.0638 126.653 72.3184 125.116 72.8276 123.88C73.3367 122.625 74.155 121.589 75.2825 120.77C76.4463 119.916 77.7738 119.243 79.2649 118.752C80.7378 118.243 82.6745 117.797 85.0749 117.415V120.988L83.6292 121.234L82.2108 121.479C81.8289 121.552 81.4016 121.643 80.9288 121.752C80.2196 121.898 79.4467 122.125 78.6102 122.434C78.0283 122.652 77.4373 123.034 76.8373 123.58C76.0917 124.234 75.6643 125.235 75.5552 126.58C76.7736 125.035 78.4648 124.262 80.6287 124.262ZM79.5104 134.109C80.4924 134.109 81.2925 133.781 81.9108 133.127C82.5472 132.472 82.8654 131.636 82.8654 130.617C82.8654 129.653 82.5654 128.89 81.9653 128.326C81.3652 127.744 80.5924 127.453 79.6468 127.453C78.9012 127.453 78.1738 127.653 77.4646 128.053C76.7554 128.435 76.2099 128.926 75.828 129.526C75.8462 130.999 76.1735 132.136 76.81 132.936C77.4646 133.718 78.3648 134.109 79.5104 134.109ZM92.3953 130.181C92.3953 131.272 92.7499 132.181 93.4591 132.908C94.1683 133.636 95.0684 134 96.1595 134C97.2506 134 98.1507 133.636 98.8599 132.908C99.5691 132.163 99.9237 131.254 99.9237 130.181C99.9237 129.09 99.5691 128.19 98.8599 127.48C98.1507 126.753 97.2506 126.389 96.1595 126.389C95.0684 126.389 94.1683 126.753 93.4591 127.48C92.7499 128.19 92.3953 129.09 92.3953 130.181ZM88.6038 130.181C88.6038 128.162 89.313 126.471 90.7314 125.107C92.1316 123.725 93.941 123.034 96.1595 123.034C98.378 123.034 100.187 123.725 101.588 125.107C103.006 126.489 103.715 128.18 103.715 130.181C103.715 132.217 103.006 133.927 101.588 135.309C100.169 136.673 98.3598 137.355 96.1595 137.355C93.9592 137.355 92.1498 136.673 90.7314 135.309C89.313 133.927 88.6038 132.217 88.6038 130.181ZM115.808 126.608H111.608L111.553 128.517C111.462 130.535 111.253 132.127 110.926 133.29C110.58 134.509 110.035 135.445 109.289 136.1C108.562 136.736 107.553 137.073 106.262 137.109C105.589 137.109 105.107 137.027 104.816 136.864V133.727C105.016 133.8 105.28 133.836 105.607 133.836C106.498 133.836 107.089 133.254 107.38 132.09C107.653 131.054 107.798 129.49 107.816 127.399L107.898 123.389H119.654V137H115.808V126.608ZM130.069 137.355C127.942 137.355 126.15 136.7 124.696 135.391C123.241 134.081 122.513 132.345 122.513 130.181C122.513 128.162 123.168 126.471 124.477 125.107C125.787 123.725 127.496 123.034 129.605 123.034C131.569 123.034 133.142 123.734 134.324 125.135C135.506 126.535 136.097 128.235 136.097 130.235V131.245H126.332C126.532 132.154 127.032 132.854 127.832 133.345C128.651 133.836 129.669 134.081 130.887 134.081C132.397 134.081 133.852 133.681 135.252 132.881V135.963C134.033 136.891 132.306 137.355 130.069 137.355ZM126.332 128.79H132.306C132.269 128.008 131.988 127.362 131.46 126.853C130.951 126.326 130.278 126.062 129.442 126.062C128.587 126.062 127.878 126.317 127.314 126.826C126.75 127.317 126.423 127.971 126.332 128.79ZM145.705 137.355C143.578 137.355 141.787 136.7 140.332 135.391C138.877 134.081 138.15 132.345 138.15 130.181C138.15 128.162 138.804 126.471 140.114 125.107C141.423 123.725 143.132 123.034 145.242 123.034C147.206 123.034 148.779 123.734 149.961 125.135C151.143 126.535 151.734 128.235 151.734 130.235V131.245H141.968C142.169 132.154 142.669 132.854 143.469 133.345C144.287 133.836 145.305 134.081 146.524 134.081C148.033 134.081 149.488 133.681 150.888 132.881V135.963C149.67 136.891 147.942 137.355 145.705 137.355ZM141.968 128.79H147.942C147.906 128.008 147.624 127.362 147.097 126.853C146.587 126.326 145.915 126.062 145.078 126.062C144.223 126.062 143.514 126.317 142.95 126.826C142.387 127.317 142.059 127.971 141.968 128.79Z" fill="black"/>
<line x1="265" y1="35.5" x2="323" y2="35.5" stroke="url(#paint2_linear_451_64)" stroke-width="3"/>
<line x1="323.5" y1="36" x2="323.5" y2="94" stroke="url(#paint3_linear_451_64)" stroke-width="3"/>
<line x1="324.061" y1="35.0607" x2="266.061" y2="93.0607" stroke="url(#paint4_linear_451_64)" stroke-width="3"/>
</g>
</g>
<defs>
<filter id="filter0_dddd_451_64" x="0" y="0" width="400" height="488" filterUnits="userSpaceOnUse" color-interpolation-filters="sRGB">
<feFlood flood-opacity="0" result="BackgroundImageFix"/>
<feColorMatrix in="SourceAlpha" type="matrix" values="0 0 0 0 0 0 0 0 0 0 0 0 0 0 0 0 0 0 127 0" result="hardAlpha"/>
<feOffset dy="8"/>
<feGaussianBlur stdDeviation="9"/>
<feColorMatrix type="matrix" values="0 0 0 0 0.596078 0 0 0 0 0.596078 0 0 0 0 0.596078 0 0 0 0.1 0"/>
<feBlend mode="normal" in2="BackgroundImageFix" result="effect1_dropShadow_451_64"/>
<feColorMatrix in="SourceAlpha" type="matrix" values="0 0 0 0 0 0 0 0 0 0 0 0 0 0 0 0 0 0 127 0" result="hardAlpha"/>
<feOffset dy="33"/>
<feGaussianBlur stdDeviation="16.5"/>
<feColorMatrix type="matrix" values="0 0 0 0 0.596078 0 0 0 0 0.596078 0 0 0 0 0.596078 0 0 0 0.09 0"/>
<feBlend mode="normal" in2="effect1_dropShadow_451_64" result="effect2_dropShadow_451_64"/>
<feColorMatrix in="SourceAlpha" type="matrix" values="0 0 0 0 0 0 0 0 0 0 0 0 0 0 0 0 0 0 127 0" result="hardAlpha"/>
<feOffset dy="73"/>
<feGaussianBlur stdDeviation="22"/>
<feColorMatrix type="matrix" values="0 0 0 0 0.596078 0 0 0 0 0.596078 0 0 0 0 0.596078 0 0 0 0.05 0"/>
<feBlend mode="normal" in2="effect2_dropShadow_451_64" result="effect3_dropShadow_451_64"/>
<feColorMatrix in="SourceAlpha" type="matrix" values="0 0 0 0 0 0 0 0 0 0 0 0 0 0 0 0 0 0 127 0" result="hardAlpha"/>
<feOffset dy="130"/>
<feGaussianBlur stdDeviation="26"/>
<feColorMatrix type="matrix" values="0 0 0 0 0.596078 0 0 0 0 0.596078 0 0 0 0 0.596078 0 0 0 0.01 0"/>
<feBlend mode="normal" in2="effect3_dropShadow_451_64" result="effect4_dropShadow_451_64"/>
<feBlend mode="normal" in="SourceGraphic" in2="effect4_dropShadow_451_64" result="shape"/>
</filter>
<filter id="filter1_b_451_64" x="22" y="-20" width="356" height="356" filterUnits="userSpaceOnUse" color-interpolation-filters="sRGB">
<feFlood flood-opacity="0" result="BackgroundImageFix"/>
<feGaussianBlur in="BackgroundImageFix" stdDeviation="15"/>
<feComposite in2="SourceAlpha" operator="in" result="effect1_backgroundBlur_451_64"/>
<feBlend mode="normal" in="SourceGraphic" in2="effect1_backgroundBlur_451_64" result="shape"/>
</filter>
<linearGradient id="paint0_linear_451_64" x1="61.7315" y1="286.132" x2="348" y2="9.99999" gradientUnits="userSpaceOnUse">
<stop stop-color="white"/>
<stop offset="1" stop-color="white" stop-opacity="0.3"/>
</linearGradient>
<linearGradient id="paint1_linear_451_64" x1="52" y1="75.6877" x2="296.91" y2="306" gradientUnits="userSpaceOnUse">
<stop stop-color="white"/>
<stop offset="1" stop-color="white" stop-opacity="0"/>
</linearGradient>
<linearGradient id="paint2_linear_451_64" x1="263" y1="34.9999" x2="328.5" y2="37" gradientUnits="userSpaceOnUse">
<stop stop-color="#404040"/>
<stop offset="1" stop-color="#999999"/>
</linearGradient>
<linearGradient id="paint3_linear_451_64" x1="322" y1="98" x2="324.5" y2="30" gradientUnits="userSpaceOnUse">
<stop stop-color="#404040"/>
<stop offset="1" stop-color="#999999"/>
</linearGradient>
<linearGradient id="paint4_linear_451_64" x1="265" y1="92" x2="327.5" y2="34" gradientUnits="userSpaceOnUse">
<stop stop-color="#404040"/>
<stop offset="1" stop-color="#999999"/>
</linearGradient>
<clipPath id="clip0_451_64">
<rect x="52" y="10" width="296" height="296" rx="24" fill="white"/>
</clipPath>
</defs>
</svg>
